<svg width="693" height="991" viewBox="0 0 693 991" fill="none" xmlns="http://www.w3.org/2000/svg">
<path d="M441.697 736.562C414.726 731.136 369.092 731.942 369.092 731.942C369.092 731.942 357.283 756.258 352.9 762.731C348.516 769.204 336.318 800.312 331.725 802.994C327.132 805.677 351.374 807.264 362.484 811.54C374.83 816.292 381.776 819.437 390.533 826.402C400.835 834.596 401.468 840.938 407.77 850.419C414.586 860.674 416.484 866.856 423.923 876.962C430.021 885.246 441.435 897.662 441.435 897.662C441.435 897.662 455.9 911.217 470.017 916.631C486.379 922.905 498.78 923.859 518.323 924.397C541.622 925.037 554.881 921.764 576.641 916.848C601.298 911.278 614.117 906.2 634.71 896.506C655.629 886.658 681.726 867.155 681.726 867.155L642.03 876.767C642.03 876.767 625.157 881.117 614.222 880.069C600.918 878.794 594.523 874.585 585.897 868.523C575.098 860.934 570.819 844.824 570.819 844.824C570.819 844.824 563.934 821.551 554.684 807.541C541.616 787.747 506.982 760.922 506.982 760.922C506.982 760.922 470.292 742.315 441.697 736.562Z" fill="#DF8423" stroke="#D26200" stroke-width="2" stroke-linecap="round"/>
<path d="M559.299 823.3C559.299 823.3 534.019 759.395 522.049 803.287C510.078 847.18 425.294 794.493 434.955 812.248C444.616 830.003 411.345 847.425 411.345 847.425C411.345 847.425 419.588 864.379 427.085 874.696C433.231 883.153 445.972 897.896 445.972 897.896C445.972 897.896 456.26 909.388 469.582 915.394C485.024 922.356 499.839 923.397 517.995 923.397C543.559 923.397 551.402 922.532 571.066 918.715C593.348 914.391 604.788 909.992 623.066 901.409C641.634 892.689 672.625 871.189 672.625 871.189L628.492 882.293C628.492 882.293 609.584 883.524 601.797 880.398C597.075 878.503 601.797 882.293 584.483 869.347C573.894 861.429 559.299 823.3 559.299 823.3Z" fill="#C5BB9B"/>
<path d="M356.145 857.918C351.846 841.18 351.974 814.425 352.022 810.21L341.351 808.402L323.872 797.175L306.92 784.376L307.488 837.561L308.917 885.337L311.231 912.492L303.366 913.259C299.783 913.608 297.616 912.931 294.19 914.153C291.555 915.093 290.003 915.778 287.893 917.809C286.231 919.409 284.346 922.718 284.346 922.718C284.346 922.718 281.9 921.317 280.221 920.838C276.214 919.697 273.599 920.296 269.734 921.86C266.493 923.172 265.009 924.806 262.254 927.152C259.175 929.776 256.753 930.804 254.968 934.707C252.914 939.2 253.994 942.619 254.095 947.722C254.171 951.565 252.782 954.551 254.93 957.528C256.778 960.089 258.941 960.342 261.806 960.661C265.177 961.037 269.016 959.959 270.198 958.322C269.046 961.274 269.273 963.939 270.905 966.62C272.065 968.523 275.16 970.008 275.16 970.008L284.528 971.377L292.393 970.61C294.645 976.225 296.666 979.623 301.352 982.667C309.007 987.641 315.585 984.293 323.636 980.496C330.993 977.026 332.941 971.011 339.584 966.012C346.099 961.11 350.161 959.1 357.165 955.172C366.836 949.749 377.216 953.548 382.546 942.811C384.594 938.687 385.318 935.881 385.514 931.113C385.826 923.527 379.975 912.639 379.975 912.639L369.589 891.594C369.589 891.594 359.704 871.776 356.145 857.918Z" fill="#DF8423"/>
<path d="M352.03 809.643C352.03 809.643 351.468 839.708 356.145 857.918C359.704 871.776 369.589 891.594 369.589 891.594L379.975 912.639C379.975 912.639 385.826 923.527 385.514 931.113C385.318 935.881 384.594 938.687 382.546 942.811C377.216 953.548 366.836 949.749 357.165 955.172C350.161 959.1 346.099 961.11 339.584 966.012C332.941 971.011 330.993 977.026 323.636 980.496C315.585 984.293 309.007 987.641 301.352 982.667C296.666 979.623 294.645 976.225 292.393 970.61M292.393 970.61C289.689 963.864 288.975 958.816 290.786 951.753C292.178 946.325 293.634 942.856 297.687 939.672C302.962 935.527 314.073 938.075 314.073 938.075L324.559 937.053M292.393 970.61L284.528 971.377L275.16 970.008C275.16 970.008 272.065 968.523 270.905 966.62C269.273 963.939 269.046 961.274 270.198 958.322M270.198 958.322C269.796 953.609 268.248 950.849 269.17 946.253C270.114 941.543 274.888 935.809 274.888 935.809C274.888 935.809 279.222 930.483 282.894 928.944C286.262 927.532 292.07 928.05 292.07 928.05L299.537 930.364M270.198 958.322C269.016 959.959 265.177 961.037 261.806 960.661C258.941 960.342 256.778 960.089 254.93 957.528C252.782 954.551 254.171 951.565 254.095 947.722C253.994 942.619 252.914 939.2 254.968 934.707C256.753 930.804 259.175 929.776 262.254 927.152C265.009 924.806 266.493 923.172 269.734 921.86C273.599 920.296 276.214 919.697 280.221 920.838C281.9 921.317 284.346 922.718 284.346 922.718C284.346 922.718 286.231 919.409 287.893 917.809C290.003 915.778 291.555 915.093 294.19 914.153C297.616 912.931 299.783 913.608 303.366 913.259L311.231 912.492M311.231 912.492L321.063 911.534M311.231 912.492L308.917 885.337L307.488 837.561L306.92 784.376L323.872 797.175L341.351 808.402L352.75 810.333" stroke="#D26200" stroke-width="2" stroke-linecap="round"/>
<path d="M218.278 847.596C218.326 830.238 225.145 804.496 226.247 800.448L216.417 795.652L202.386 779.834L189.256 762.651L176.491 814.058L165.909 860.501L161.343 887.328L153.572 885.816C150.032 885.127 148.114 883.854 144.507 884.052C141.733 884.204 140.066 884.419 137.525 885.772C135.523 886.839 132.879 889.487 132.879 889.487C132.879 889.487 130.873 887.437 129.374 886.496C125.8 884.25 123.13 884.078 119.014 884.48C115.563 884.816 113.724 885.966 110.483 887.439C106.859 889.085 104.268 889.382 101.571 892.633C98.4677 896.374 98.6519 899.977 97.472 904.923C96.5835 908.648 94.4982 911.127 95.8229 914.611C96.9623 917.607 98.9828 918.469 101.664 919.597C104.818 920.924 108.786 920.983 110.335 919.745C108.486 922.259 108.038 924.892 108.94 927.942C109.58 930.107 112.19 932.424 112.19 932.424L120.875 936.423L128.645 937.936C129.409 943.99 130.506 947.842 134.259 952.116C140.39 959.099 147.565 957.755 156.274 956.4C164.23 955.162 167.613 949.924 175.266 947.008C182.77 944.149 187.186 943.374 194.918 941.594C205.593 939.137 214.644 945.767 222.467 936.947C225.473 933.559 226.873 931.063 228.255 926.525C230.455 919.305 227.542 907.14 227.542 907.14L222.803 883.891C222.803 883.891 218.238 861.967 218.278 847.596Z" fill="#DF8423"/>
<path d="M226.397 799.904C226.397 799.904 218.33 828.712 218.278 847.596C218.238 861.967 222.803 883.891 222.803 883.891L227.542 907.14C227.542 907.14 230.455 919.305 228.255 926.525C226.873 931.063 225.473 933.559 222.467 936.947C214.644 945.767 205.593 939.137 194.918 941.594C187.186 943.374 182.77 944.149 175.266 947.008C167.613 949.924 164.23 955.162 156.274 956.4C147.565 957.755 140.39 959.099 134.259 952.116C130.506 947.842 129.409 943.99 128.645 937.936M128.645 937.936C127.728 930.662 128.304 925.593 131.816 919.306C134.515 914.475 136.787 911.549 141.489 909.64C147.609 907.156 157.677 912.79 157.677 912.79L168.037 914.806M128.645 937.936L120.875 936.423L112.19 932.424C112.19 932.424 109.58 930.107 108.94 927.942C108.038 924.892 108.486 922.259 110.335 919.745M110.335 919.745C111.128 915.088 110.327 911.986 112.365 907.822C114.454 903.553 120.489 899.394 120.489 899.394C120.489 899.394 125.998 895.503 129.921 895.071C133.52 894.674 138.986 896.835 138.986 896.835L145.602 901.202M110.335 919.745C108.786 920.983 104.818 920.924 101.664 919.597C98.9828 918.469 96.9623 917.607 95.8229 914.611C94.4982 911.127 96.5835 908.648 97.472 904.923C98.6519 899.977 98.4677 896.374 101.571 892.633C104.268 889.382 106.859 889.085 110.483 887.439C113.724 885.966 115.563 884.816 119.014 884.48C123.13 884.078 125.8 884.25 129.374 886.496C130.873 887.437 132.879 889.487 132.879 889.487C132.879 889.487 135.523 886.839 137.525 885.772C140.066 884.419 141.733 884.204 144.507 884.052C148.114 883.854 150.032 885.127 153.572 885.816L161.343 887.328M161.343 887.328L171.055 889.218M161.343 887.328L165.909 860.501L176.491 814.058L189.256 762.651L202.386 779.834L216.417 795.652L226.917 800.775" stroke="#D26200" stroke-width="2" stroke-linecap="round"/>
<path d="M234.247 421.741C240.99 408.692 259.285 356.71 295.197 354.092C331.11 351.474 341.075 409.521 343.394 445.878C345.712 482.235 339.382 480.213 303.47 482.831C280.279 483.345 264.289 483.103 253.389 481.265C225.497 476.562 227.503 434.79 234.247 421.741Z" fill="#DF8423"/>
<g filter="url(#filter0_d_16_1458)">
<path d="M205.902 149.588C210.121 139.665 199.117 109.253 205.902 89.1463C212.687 69.0392 229.266 51.4311 249.776 33.2154C266.945 17.966 276.649 5.26317 298.711 1.64148C300.739 1.30856 301.383 1.12922 301.556 1.05033C301.465 0.990826 301.719 0.976028 301.556 1.05033C301.789 1.20158 304.255 1.64166 321.492 1.64148C352.709 1.64115 345.116 67.4956 345.116 67.4956V135.154L387.302 89.1463C387.302 89.1463 419.955 53.8456 447.206 48.5513C460.173 46.0319 469.515 41.553 480.955 48.5513C494.924 57.0973 492.952 72.4868 496.985 89.1463C503.921 117.795 501.8 135.782 496.985 164.924C492.034 194.89 471.674 237.995 471.674 237.995L480.955 310.163C480.955 310.163 487.49 337.552 480.955 352.563C472.106 372.886 453.944 372.913 434.55 381.43C411.409 391.594 396.959 393.618 372.115 396.766C344.957 400.207 329.175 392.747 302.086 396.766C282.613 399.655 272.646 412.101 253.151 409.396C245.699 408.362 234.589 403.983 234.589 403.983C234.589 403.983 230.142 399.35 226.995 396.766C210.95 383.592 194.972 391.797 177.216 381.43C164.433 373.967 153.868 371.174 147.686 357.073C141.951 343.995 147.686 320.087 147.686 320.087L141.78 297.534C141.78 297.534 123.975 265.099 124.905 242.505C125.727 222.568 131.248 211.17 141.78 194.693C158.692 168.233 201.684 159.51 205.902 149.588Z" fill="#DF8423"/>
<path d="M205.902 149.588C210.121 139.665 199.117 109.253 205.902 89.1463C212.687 69.0392 229.266 51.4311 249.776 33.2154C266.945 17.966 276.649 5.26317 298.711 1.64148C300.739 1.30856 301.383 1.12922 301.556 1.05033C301.465 0.990826 301.719 0.976028 301.556 1.05033C301.789 1.20158 304.255 1.64166 321.492 1.64148C352.709 1.64115 345.116 67.4956 345.116 67.4956V135.154L387.302 89.1463C387.302 89.1463 419.955 53.8456 447.206 48.5513C460.173 46.0319 469.515 41.553 480.955 48.5513C494.924 57.0973 492.952 72.4868 496.985 89.1463C503.921 117.795 501.8 135.782 496.985 164.924C492.034 194.89 471.674 237.995 471.674 237.995L480.955 310.163C480.955 310.163 487.49 337.552 480.955 352.563C472.106 372.886 453.944 372.913 434.55 381.43C411.409 391.594 396.959 393.618 372.115 396.766C344.957 400.207 329.175 392.747 302.086 396.766C282.613 399.655 272.646 412.101 253.151 409.396C245.699 408.362 234.589 403.983 234.589 403.983C234.589 403.983 230.142 399.35 226.995 396.766C210.95 383.592 194.972 391.797 177.216 381.43C164.433 373.967 153.868 371.174 147.686 357.073C141.951 343.995 147.686 320.087 147.686 320.087L141.78 297.534C141.78 297.534 123.975 265.099 124.905 242.505C125.727 222.568 131.248 211.17 141.78 194.693C158.692 168.233 201.684 159.51 205.902 149.588Z" stroke="#DA7100"/>
</g>
<path d="M416.797 93.9168C416.797 93.9168 389.507 121.391 383.049 139.022C376.59 156.653 411.484 165.183 424.791 182.851C438.097 200.519 442.593 187.813 448.015 182.851C464.362 167.89 467.503 143.33 473.383 117.051C477.336 99.3878 476.387 78.0815 476.116 70.6018C475.845 63.1222 470.162 61.7344 464.362 59.0889C458.562 56.4435 452.091 66.7705 442.952 70.6025C428.989 76.458 416.797 93.9168 416.797 93.9168Z" fill="#E2A2A2"/>
<path d="M318.341 82.5507C318.341 82.5507 316.318 122.57 307.887 139.222C299.456 155.874 270.846 132.874 249.636 133.404C228.426 133.935 234.604 122.064 234.652 114.433C234.794 91.4261 250.317 73.0138 265.3 51.2545C275.371 36.6291 291.207 23.6569 296.726 19.0519C302.246 14.447 306.904 18.1938 312.537 21.2247C318.169 24.2555 314.966 36.2053 318.124 46.1424C322.95 61.327 318.341 82.5507 318.341 82.5507Z" fill="#E2A2A2"/>
<g filter="url(#filter1_f_16_1458)">
<path d="M448.858 335.683C406.866 370.879 385.456 402.599 283.849 362.319C182.242 322.038 133.493 265.989 151.869 212.996C170.246 160.003 251.067 131.218 352.674 171.499C454.281 211.78 448.858 287.885 448.858 335.683Z" fill="url(#paint0_radial_16_1458)" fill-opacity="0.81"/>
</g>
<ellipse cx="25.5566" cy="33.9873" rx="25.5566" ry="33.9873" transform="matrix(0.920675 0.39033 -0.347711 0.937602 234.654 170.252)" fill="url(#paint1_linear_16_1458)"/>
<ellipse cx="25.6613" cy="33.8605" rx="25.6613" ry="33.8605" transform="matrix(0.885383 0.464862 -0.417358 0.908742 353.939 203.073)" fill="url(#paint2_linear_16_1458)"/>
<path d="M244.345 185.779L258.606 188.674C258.606 188.674 266.19 187.671 268.256 183.801C271.308 178.085 265.96 172.552 260.81 168.947C253.696 163.967 244.083 169.822 239.258 172.258C234.433 174.695 221.573 190.337 221.573 190.337L244.345 185.779Z" fill="#FAD4AB" stroke="#060606"/>
<path d="M381.558 222.914L369.746 213.892C369.746 213.892 365.182 207.338 366.371 203.067C368.126 196.759 375.562 197.068 381.558 198.557C389.841 200.613 392.526 212.088 394.214 217.501C395.901 222.914 394.214 243.662 394.214 243.662L381.558 222.914Z" fill="#FAD4AB" stroke="#060606"/>
<g filter="url(#filter2_d_16_1458)">
<path d="M202.842 390.804C127.449 386.041 81.6118 372.033 83.6889 334.448C85.7659 296.863 134.971 249.935 210.364 254.698C285.756 259.461 304.825 291.988 302.748 329.573C300.671 367.158 278.234 395.567 202.842 390.804Z" fill="#EEBC86"/>
<path d="M202.856 390.554C165.163 388.173 134.892 383.481 114.311 374.704C104.022 370.316 96.173 364.915 91.025 358.287C85.8814 351.665 83.4222 343.803 83.9384 334.464C84.9715 315.768 97.7354 294.702 119.68 278.896C141.617 263.095 172.71 252.569 210.35 254.947C248.018 257.327 271.564 266.641 285.434 280.007C299.296 293.365 303.534 310.811 302.498 329.557C301.462 348.303 295.353 364.719 280.139 375.867C264.914 387.022 240.526 392.934 202.856 390.554Z" stroke="black" stroke-width="0.5"/>
</g>
<path d="M87.9728 290.233C87.9728 290.233 64.3744 289.619 56.4289 300.125C51.4466 306.714 50.393 320.618 50.393 320.618C50.393 320.618 55.6249 334.306 61.5689 341.139C66.6567 346.987 77.0653 353.329 77.0653 353.329C77.0653 353.329 91.8385 358.707 99.8998 354.694C107.32 351 112.861 337.454 112.861 337.454L123.147 334.228C127.164 332.968 135.783 323.616 134.257 318.344L130.349 304.844C128.823 299.572 122.745 296.784 116.636 293.645C106.548 288.46 87.9728 290.233 87.9728 290.233Z" fill="black" stroke="black"/>
<ellipse cx="343.393" cy="267.123" rx="2.53116" ry="2.70633" fill="#D9D9D9"/>
<ellipse cx="216.835" cy="308.62" rx="2.53116" ry="2.70633" fill="black"/>
<ellipse cx="216.835" cy="308.62" rx="2.53116" ry="2.70633" fill="black"/>
<ellipse cx="216.835" cy="308.62" rx="2.53116" ry="2.70633" fill="black"/>
<ellipse cx="237.084" cy="310.424" rx="2.53116" ry="2.70633" fill="black"/>
<ellipse cx="237.084" cy="310.424" rx="2.53116" ry="2.70633" fill="black"/>
<ellipse cx="237.084" cy="310.424" rx="2.53116" ry="2.70633" fill="black"/>
<ellipse cx="223.585" cy="324.858" rx="2.53116" ry="2.70633" fill="black"/>
<ellipse cx="223.585" cy="324.858" rx="2.53116" ry="2.70633" fill="black"/>
<ellipse cx="223.585" cy="324.858" rx="2.53116" ry="2.70633" fill="black"/>
<ellipse cx="228.647" cy="292.382" rx="2.53116" ry="2.70633" fill="black"/>
<ellipse cx="228.647" cy="292.382" rx="2.53116" ry="2.70633" fill="black"/>
<ellipse cx="228.647" cy="292.382" rx="2.53116" ry="2.70633" fill="black"/>
<ellipse cx="216.835" cy="276.144" rx="2.53116" ry="2.70633" fill="black"/>
<ellipse cx="216.835" cy="276.144" rx="2.53116" ry="2.70633" fill="black"/>
<ellipse cx="216.835" cy="276.144" rx="2.53116" ry="2.70633" fill="black"/>
<ellipse cx="208.398" cy="290.578" rx="2.53116" ry="2.70633" fill="black"/>
<ellipse cx="208.398" cy="290.578" rx="2.53116" ry="2.70633" fill="black"/>
<ellipse cx="208.398" cy="290.578" rx="2.53116" ry="2.70633" fill="black"/>
<ellipse cx="203.336" cy="323.054" rx="2.53116" ry="2.70633" fill="black"/>
<ellipse cx="203.336" cy="323.054" rx="2.53116" ry="2.70633" fill="black"/>
<ellipse cx="203.336" cy="323.054" rx="2.53116" ry="2.70633" fill="black"/>
<path d="M408.008 636.766C396.918 680.908 369.487 857.3 299.708 863.945C229.929 870.591 164.964 775.183 154.606 650.845C144.248 526.508 193.128 430.311 262.907 423.666C308.156 423.392 339.449 425.241 361.052 432.217C416.325 450.067 419.099 592.623 408.008 636.766Z" fill="#DF8423"/>
<path d="M205.658 580.177C149.426 646.044 118.518 688.316 97.9639 674.445C77.41 660.573 92.3021 595.878 131.226 529.943C170.15 464.009 218.367 421.804 238.921 435.675C247.704 441.603 250.014 456.811 246.743 477.431C209.646 526.75 198.118 542.82 205.658 580.177Z" fill="#DF8423"/>
<path d="M132.464 695.626C112.302 710.062 92.8093 682.718 79.3098 693.821C61.6183 688.768 67.1894 672.254 73.4038 655.933C80.2735 637.89 95.8601 628.724 113.552 633.777C131.243 638.831 135.082 672.173 132.464 695.626Z" fill="#DF8423"/>
<path d="M70.933 670.11C70.933 670.11 67.9722 676.559 68.2853 680.707C68.5671 684.439 70.7677 687.769 71.6966 688.906C72.6255 690.042 76.9518 693.016 80.433 691.401C83.9382 689.775 87.2023 679.918 86.7208 681.845C86.2393 683.771 87.0145 689.558 89.6507 691.97C91.5004 693.663 95.475 693.634 95.475 693.634C95.475 693.634 98.4751 695.399 100.571 695.09C102.91 694.745 104.58 693.958 106.143 691.521C107.543 689.336 107.346 686.704 107.828 684.778C108.309 682.851 109.093 689.935 110.511 692.769C111.962 695.668 112.811 697.507 115.132 699.249C117.591 701.095 119.426 702.015 122.412 701.329C124.745 700.793 126.168 699.892 127.984 697.76C129.901 695.508 130.529 693.553 131.365 690.469C132.301 687.022 132.076 681.384 132.076 681.384" stroke="black" stroke-width="2" stroke-linecap="round"/>
<path d="M75.4923 690.299L79.0124 684.408C79.0124 684.408 80.5069 680.154 80.3797 677.409C80.1919 673.355 78.2113 673.603 76.5599 674.601C74.2787 675.981 73.0653 683.394 72.3817 686.893C71.6981 690.393 71.235 703.754 71.235 703.754L75.4923 690.299Z" fill="black" stroke="#060606"/>
<path d="M120.018 700.874L122.041 694.054C122.041 694.054 122.472 689.552 121.677 687.087C120.502 683.447 118.615 684.473 117.234 686.055C115.328 688.239 115.945 695.524 116.127 699.007C116.31 702.491 119.118 714.925 119.118 714.925L120.018 700.874Z" fill="black" stroke="#060606"/>
<path d="M92.484 697.217L96.0041 691.326C96.0041 691.326 97.4986 687.072 97.3714 684.327C97.1836 680.273 95.203 680.521 93.5516 681.52C91.2704 682.899 90.057 690.312 89.3734 693.812C88.6898 697.311 88.2267 710.672 88.2267 710.672L92.484 697.217Z" fill="black" stroke="#060606"/>
<path d="M384.342 581.981C440.574 647.848 471.482 690.121 492.036 676.249C512.59 662.378 497.698 597.682 458.774 531.748C419.85 465.813 371.633 423.608 351.079 437.48C342.296 443.407 339.986 458.615 343.257 479.235C380.354 528.555 391.882 544.625 384.342 581.981Z" fill="#DF8423"/>
<path d="M457.536 697.43C477.698 711.866 497.191 684.522 510.69 695.626C528.382 690.572 522.811 674.058 516.596 657.737C509.726 639.695 494.14 630.528 476.448 635.582C458.757 640.635 454.918 673.977 457.536 697.43Z" fill="#DF8423"/>
<path d="M519.067 671.915C519.067 671.915 522.028 678.363 521.715 682.511C521.433 686.244 519.232 689.573 518.303 690.71C517.375 691.847 513.048 694.82 509.567 693.205C506.062 691.579 502.798 681.722 503.279 683.649C503.761 685.575 502.985 691.362 500.349 693.774C498.5 695.467 494.525 695.438 494.525 695.438C494.525 695.438 491.525 697.203 489.429 696.894C487.09 696.549 485.42 695.763 483.857 693.325C482.457 691.14 482.654 688.509 482.172 686.582C481.691 684.655 480.907 691.74 479.489 694.573C478.038 697.472 477.189 699.312 474.868 701.053C472.409 702.899 470.574 703.819 467.588 703.133C465.255 702.597 463.832 701.697 462.016 699.564C460.099 697.312 459.471 695.357 458.635 692.273C457.699 688.826 457.924 683.188 457.924 683.188" stroke="black" stroke-width="2" stroke-linecap="round"/>
<path d="M514.508 692.103L510.988 686.212C510.988 686.212 509.493 681.958 509.62 679.213C509.808 675.159 511.789 675.407 513.44 676.405C515.721 677.785 516.935 685.198 517.618 688.697C518.302 692.197 518.765 705.558 518.765 705.558L514.508 692.103Z" fill="black" stroke="#060606"/>
<path d="M469.982 702.678L467.959 695.858C467.959 695.858 467.528 691.356 468.323 688.892C469.498 685.251 471.385 686.278 472.766 687.859C474.672 690.044 474.055 697.328 473.873 700.812C473.69 704.295 470.882 716.729 470.882 716.729L469.982 702.678Z" fill="black" stroke="#060606"/>
<path d="M497.516 699.021L493.996 693.13C493.996 693.13 492.502 688.876 492.629 686.131C492.817 682.077 494.797 682.325 496.449 683.324C498.73 684.703 499.944 692.117 500.627 695.616C501.311 699.115 501.774 712.476 501.774 712.476L497.516 699.021Z" fill="black" stroke="#060606"/>
<g filter="url(#filter3_i_16_1458)">
<path d="M358.305 623.081C350.495 648.82 330.657 751.526 283.623 756.006C236.588 760.485 193.588 705.641 187.579 633.508C181.57 561.375 215.227 505.063 262.261 500.583C292.73 500.023 313.786 500.819 328.277 504.68C365.354 514.558 366.115 597.341 358.305 623.081Z" fill="#DACDA4" fill-opacity="0.77"/>
</g>
<path d="M205.867 370.296C205.867 370.296 212.723 372.931 218.287 377.507C224.131 382.314 238.742 385.318 238.742 385.318C238.742 385.318 246.047 385.919 257.736 382.314C270.953 378.237 280.006 380.004 292.803 375.103C305.943 370.072 322.755 357.077 322.755 357.077L349.786 336.948M349.786 336.948C343.941 338.265 338.793 338.649 330.791 340.253L349.786 336.948ZM349.786 336.948C349.786 333.643 368.78 333.643 368.78 333.643" stroke="black" stroke-width="3"/>
<path d="M368.257 332.119C368.721 332.119 369.525 331.998 369.939 332.258C370.178 332.409 370.351 332.745 370.402 332.981C370.533 333.589 370.589 334.018 369.882 334.396C369.378 334.665 367.648 335.117 368.228 334.987C368.642 334.894 369.059 334.673 369.306 334.388C369.47 334.199 368.967 333.9 368.899 333.696C368.751 333.248 368.959 332.928 369.599 332.904C370.03 332.887 369.42 333.836 369.022 333.868C368.82 333.883 368.111 333.937 368.682 333.937" stroke="black" stroke-linecap="round"/>
<path d="M368.597 332.258C368.537 332.126 367.135 332.266 366.877 332.313C365.578 332.55 364.28 332.768 362.983 333.028" stroke="black" stroke-linecap="round"/>
<path d="M350.225 337.575C352.348 337.371 354.317 337.057 356.344 336.557C358.125 336.118 359.931 335.786 361.755 335.492C363.728 335.175 365.685 334.796 367.661 334.497C369.039 334.289 370.502 334.099 371.787 333.623C372.421 333.387 373.104 333.246 373.672 332.911C374.134 332.639 374.75 332.408 375.066 332.002C375.236 331.783 375.731 331.334 375.364 331.092C374.871 330.769 374.428 330.578 373.79 330.475C371.586 330.117 369.379 330.048 367.255 330.688C365.822 331.12 364.409 331.568 362.983 332.014C361.82 332.377 360.515 332.503 359.297 332.694C358.785 332.774 358.324 332.808 357.804 332.818C357.676 332.821 357.139 332.942 357.19 332.911C358.023 332.409 359.193 332.041 360.139 331.707C361.85 331.102 363.74 330.514 365.62 330.447C367.318 330.387 369.024 330.465 370.723 330.44C371.601 330.426 372.452 330.239 373.322 330.16C373.911 330.106 374.326 329.923 374.239 330.517C374.089 331.543 372.107 331.888 371.083 332.103C370.084 332.312 368.846 332.238 367.831 332.119" stroke="black" stroke-linecap="round"/>
<path d="M365.535 331.279C365.822 331.274 366.109 331.247 366.395 331.264C367.912 331.353 366.203 331.28 367.033 331.501C367.809 331.707 369.203 331.175 369.892 331.007C371.1 330.713 372.352 330.505 373.531 330.136C373.784 330.057 374.563 329.792 373.861 329.989C373.655 330.046 373.494 330.07 373.275 330.09" stroke="black" stroke-linecap="round"/>
<path d="M349.033 338.485C349.48 338.418 349.855 338.317 350.271 338.166C351.605 337.683 352.994 337.299 354.349 336.86C356.337 336.217 358.321 335.562 360.294 334.89C360.775 334.726 361.246 334.527 361.745 334.4C362.437 334.224 363.148 334.103 363.862 334.007C364.305 333.948 364.72 333.91 365.109 333.728" stroke="black" stroke-linecap="round"/>
<path d="M349.8 338.275C353.039 337.897 356.216 337.466 359.383 336.798C361.258 336.403 362.93 335.657 364.751 335.158C365.404 334.979 366 334.789 366.613 334.528C367.4 334.193 368.205 333.998 369.032 333.751C370.285 333.378 371.47 332.867 372.718 332.496C372.864 332.452 374.128 331.965 373.814 331.753C373.099 331.272 371.455 331.459 370.61 331.567C368.425 331.846 366.288 332.327 364.108 332.632C363.698 332.689 363.798 332.652 364.255 332.566C365.746 332.285 367.246 332.034 368.749 331.8C370.384 331.545 372.031 331.339 373.663 331.069C375.117 330.829 373.972 331.014 374.041 330.929" stroke="black" stroke-linecap="round"/>
<path d="M348.183 339.114C351.457 338.591 354.684 337.847 357.974 337.396C359.133 337.238 360.265 336.954 361.423 336.806C362.691 336.643 363.894 336.271 365.156 336.106C366.781 335.893 368.347 335.632 369.915 335.193C371.244 334.82 372.483 334.224 373.804 333.852C374.808 333.569 376.107 332.989 376.795 332.297C377.406 331.683 378.555 330.689 377.65 329.872C377.094 329.37 376.253 329.39 375.486 329.39C374.518 329.39 373.458 329.294 372.519 329.507C369.522 330.184 366.413 330.497 363.38 331.069C360.826 331.551 358.241 331.92 355.668 332.301C354.047 332.541 352.496 333.091 350.999 333.642C349.685 334.126 348.333 334.502 346.992 334.936C344.377 335.783 341.785 336.658 339.204 337.571C338.027 337.988 336.836 338.401 335.651 338.803C334.6 339.16 333.556 339.584 332.466 339.853C331.454 340.103 330.36 340.211 329.328 340.405C328.502 340.56 327.642 340.822 326.8 340.867C325.993 340.91 325.015 341.392 324.367 341.773" stroke="black" stroke-linecap="round"/>
<path d="M346.227 336.666C346.95 336.243 347.84 335.975 348.505 335.492C348.721 335.335 348.859 335.102 348.439 335.174C348.328 335.192 347.189 335.422 347.73 335.407C349.734 335.352 351.689 334.84 353.707 334.808C355.76 334.776 357.744 335.046 359.803 334.839C360.963 334.723 362.052 334.524 363.106 334.105C364.103 333.708 365.033 333.283 366.074 332.958C368.787 332.111 371.548 331.41 374.287 330.626C374.352 330.608 376.181 329.926 376.318 330.121C376.445 330.3 376.231 330.645 376.129 330.79C375.934 331.069 375.685 331.353 375.373 331.551C375.339 331.573 374.891 331.911 375.066 331.897C375.474 331.865 376.628 331.617 376.682 331.237C376.748 330.779 376.925 330.458 377.273 330.09" stroke="black" stroke-linecap="round"/>
<path d="M331.172 341.004C328.741 341.004 326.393 341.344 324.065 341.897C322.98 342.155 321.838 342.295 320.729 342.457C320.647 342.469 319.946 342.626 320.304 342.613C320.882 342.591 321.494 342.44 322.061 342.348C324.362 341.977 326.692 341.589 328.961 341.105C330.143 340.852 331.483 340.677 332.618 340.304" stroke="black" stroke-linecap="round"/>
<path d="M320.03 342.263C320.648 342.037 321.126 341.592 321.769 341.384C322.184 341.25 322.626 341.163 323.045 341.034C324.486 340.593 325.978 340.312 327.411 339.83C328.267 339.541 329.124 339.25 329.972 338.947C331.346 338.458 332.714 338.24 334.111 337.816C335.028 337.538 335.884 337.225 336.843 337.043C338.496 336.729 340.166 336.5 341.823 336.192C343.27 335.923 344.658 335.384 346.005 334.878C346.828 334.569 347.75 334.481 348.585 334.182C349.167 333.975 349.879 334.01 350.395 333.728" stroke="black" stroke-linecap="round"/>
<path d="M329.981 339.674C329.921 339.501 331.489 339.27 331.725 339.185C332.065 339.061 331.008 339.353 330.662 339.464" stroke="black" stroke-linecap="round"/>
<path d="M331.597 341.213C331.384 341.408 330.714 341.532 330.388 341.578C329.591 341.691 328.816 341.883 328.016 341.983C327.11 342.096 326.129 342.263 325.218 342.263C324.503 342.263 323.788 342.263 323.073 342.263C322.527 342.263 322.027 342.402 321.476 342.402" stroke="black" stroke-linecap="round"/>
<ellipse cx="43.5271" cy="40.6303" rx="43.5271" ry="40.6303" transform="matrix(0.988992 0.14797 -0.122805 0.992431 386.277 262.612)" fill="url(#paint3_radial_16_1458)" fill-opacity="0.28"/>
<path d="M295.247 375C295.247 375 272.732 400.164 255.975 402.973C238.431 399.435 221 379.639 221 379.639L240.406 386.727L253.061 384.021L265.717 379.639L280.904 377.706L295.247 375Z" fill="url(#paint4_linear_16_1458)"/>
<path d="M362.476 279.397C360.742 283.059 358.992 284.973 357.245 285.778C355.518 286.574 353.679 286.34 351.632 285.396C349.566 284.443 347.357 282.8 344.94 280.876C344.41 280.454 343.871 280.019 343.322 279.577C341.391 278.02 339.346 276.371 337.205 274.881C334.431 272.95 331.575 271.523 329.005 270.249L328.872 270.183C326.33 268.922 324.117 267.825 322.443 266.526C320.762 265.223 319.734 263.8 319.455 261.926C319.167 259.997 319.64 257.399 321.385 253.714C324.914 246.258 330.811 235.256 338.032 227.682C345.273 220.087 353.606 216.159 362.178 222.125C370.787 228.116 372.706 238.528 371.504 249.562C370.302 260.588 365.996 271.96 362.476 279.397Z" fill="#F6F4F4" stroke="black" stroke-width="1.5"/>
<path d="M353.851 278.371C347.997 290.188 339.889 284.311 331.691 278.381C323.493 272.451 315.443 267.343 321.298 255.526C327.152 243.709 344.693 229.658 352.891 235.588C365.062 244.393 359.705 266.554 353.851 278.371Z" fill="black"/>
<path d="M348.068 255.692C347.511 260.491 345.205 261.708 341.248 260.768C337.29 259.828 334.534 255.176 335.092 250.378C335.649 245.58 339.31 242.452 343.267 243.392C347.225 244.332 348.626 250.894 348.068 255.692Z" fill="#FDF4F4"/>
<path d="M348.068 255.692C347.511 260.491 345.205 261.708 341.248 260.768C337.29 259.828 334.534 255.176 335.092 250.378C335.649 245.58 339.31 242.452 343.267 243.392C347.225 244.332 348.626 250.894 348.068 255.692Z" fill="#FDF4F4"/>
<path d="M348.068 255.692C347.511 260.491 345.205 261.708 341.248 260.768C337.29 259.828 334.534 255.176 335.092 250.378C335.649 245.58 339.31 242.452 343.267 243.392C347.225 244.332 348.626 250.894 348.068 255.692Z" fill="#FDF4F4"/>
<ellipse cx="2.98434" cy="3.1961" rx="2.98434" ry="3.1961" transform="matrix(0.949878 0.22563 -0.118472 1.01939 331.939 260.79)" fill="#D9D9D9"/>
<path d="M348.3 218.6C346.854 215.59 346.025 214.714 346.113 211.078C346.283 204.081 347.684 206.117 348.779 198.804" stroke="black" stroke-width="2" stroke-linecap="round"/>
<path d="M358.649 218.956C358.46 212.739 358.776 207.328 362.069 202.189" stroke="black" stroke-width="2" stroke-linecap="round"/>
<path d="M367.297 225.773C368.727 221.099 370.018 214.528 373.755 211.25" stroke="black" stroke-width="2" stroke-linecap="round"/>
<path d="M372.613 233.986C376.633 230.332 380.411 227.211 383.764 222.931" stroke="black" stroke-width="2" stroke-linecap="round"/>
<path d="M256.403 243.336C255.293 247.101 253.911 249.205 252.374 250.256C250.857 251.294 249.084 251.377 247.007 250.823C244.91 250.263 242.574 249.072 239.995 247.647C239.43 247.335 238.854 247.012 238.268 246.683C236.204 245.525 234.017 244.298 231.761 243.238C228.838 241.864 225.911 240.982 223.282 240.199L223.15 240.16C220.546 239.384 218.285 238.711 216.508 237.758C214.728 236.804 213.552 235.633 213.016 233.912C212.461 232.134 212.528 229.592 213.645 225.804C215.905 218.139 219.895 206.715 225.645 198.326C231.415 189.908 238.748 184.816 247.742 189.043C256.778 193.29 260.129 202.834 260.605 213.514C261.081 224.18 258.658 235.69 256.403 243.336Z" fill="#F6F4F4" stroke="black" stroke-width="1.5"/>
<path d="M248.087 243.809C244.257 256.001 235.689 251.768 227.028 247.499C218.367 243.23 209.968 239.717 213.798 227.525C217.627 215.333 232.237 199.079 240.898 203.348C253.757 209.686 251.917 231.617 248.087 243.809Z" fill="black"/>
<path d="M239.263 223.236C239.437 227.885 237.425 229.424 233.526 229.188C229.627 228.953 226.325 224.994 226.151 220.346C225.977 215.697 228.997 212.119 232.896 212.355C236.795 212.59 239.089 218.588 239.263 223.236Z" fill="#FDF4F4"/>
<path d="M239.263 223.236C239.437 227.885 237.425 229.424 233.526 229.188C229.627 228.953 226.325 224.994 226.151 220.346C225.977 215.697 228.997 212.119 232.896 212.355C236.795 212.59 239.089 218.588 239.263 223.236Z" fill="#FDF4F4"/>
<path d="M239.263 223.236C239.437 227.885 237.425 229.424 233.526 229.188C229.627 228.953 226.325 224.994 226.151 220.346C225.977 215.697 228.997 212.119 232.896 212.355C236.795 212.59 239.089 218.588 239.263 223.236Z" fill="#FDF4F4"/>
<ellipse cx="2.85426" cy="3.0922" rx="2.85426" ry="3.0922" transform="matrix(0.978491 0.0590541 0.0382108 1.02073 224.683 230.755)" fill="#D9D9D9"/>
<path d="M234.042 187.979C232.226 185.362 231.31 184.668 230.861 181.2C229.995 174.529 231.626 176.229 231.594 169.104" stroke="black" stroke-width="2" stroke-linecap="round"/>
<path d="M243.929 186.599C242.838 180.728 242.345 175.538 244.72 170.112" stroke="black" stroke-width="2" stroke-linecap="round"/>
<path d="M253.15 191.636C253.822 186.96 254.085 180.507 257.156 176.774" stroke="black" stroke-width="2" stroke-linecap="round"/>
<path d="M259.406 198.552C262.69 194.414 265.823 190.824 268.382 186.203" stroke="black" stroke-width="2" stroke-linecap="round"/>
<defs>
<filter id="filter0_d_16_1458" x="120.37" y="0.5" width="385.557" height="417.778" filterUnits="userSpaceOnUse" color-interpolation-filters="sRGB">
<feFlood flood-opacity="0" result="BackgroundImageFix"/>
<feColorMatrix in="SourceAlpha" type="matrix" values="0 0 0 0 0 0 0 0 0 0 0 0 0 0 0 0 0 0 127 0" result="hardAlpha"/>
<feOffset dy="4"/>
<feGaussianBlur stdDeviation="2"/>
<feComposite in2="hardAlpha" operator="out"/>
<feColorMatrix type="matrix" values="0 0 0 0 0 0 0 0 0 0 0 0 0 0 0 0 0 0 0.25 0"/>
<feBlend mode="normal" in2="BackgroundImageFix" result="effect1_dropShadow_16_1458"/>
<feBlend mode="normal" in="SourceGraphic" in2="effect1_dropShadow_16_1458" result="shape"/>
</filter>
<filter id="filter1_f_16_1458" x="144.059" y="148.57" width="308.85" height="236.567" filterUnits="userSpaceOnUse" color-interpolation-filters="sRGB">
<feFlood flood-opacity="0" result="BackgroundImageFix"/>
<feBlend mode="normal" in="SourceGraphic" in2="BackgroundImageFix" result="shape"/>
<feGaussianBlur stdDeviation="2" result="effect1_foregroundBlur_16_1458"/>
</filter>
<filter id="filter2_d_16_1458" x="79.6211" y="254.362" width="227.276" height="144.964" filterUnits="userSpaceOnUse" color-interpolation-filters="sRGB">
<feFlood flood-opacity="0" result="BackgroundImageFix"/>
<feColorMatrix in="SourceAlpha" type="matrix" values="0 0 0 0 0 0 0 0 0 0 0 0 0 0 0 0 0 0 127 0" result="hardAlpha"/>
<feOffset dy="4"/>
<feGaussianBlur stdDeviation="2"/>
<feComposite in2="hardAlpha" operator="out"/>
<feColorMatrix type="matrix" values="0 0 0 0 0 0 0 0 0 0 0 0 0 0 0 0 0 0 0.25 0"/>
<feBlend mode="normal" in2="BackgroundImageFix" result="effect1_dropShadow_16_1458"/>
<feBlend mode="normal" in="SourceGraphic" in2="effect1_dropShadow_16_1458" result="shape"/>
</filter>
<filter id="filter3_i_16_1458" x="186.884" y="500.422" width="175.387" height="259.839" filterUnits="userSpaceOnUse" color-interpolation-filters="sRGB">
<feFlood flood-opacity="0" result="BackgroundImageFix"/>
<feBlend mode="normal" in="SourceGraphic" in2="BackgroundImageFix" result="shape"/>
<feColorMatrix in="SourceAlpha" type="matrix" values="0 0 0 0 0 0 0 0 0 0 0 0 0 0 0 0 0 0 127 0" result="hardAlpha"/>
<feOffset dy="4"/>
<feGaussianBlur stdDeviation="2"/>
<feComposite in2="hardAlpha" operator="arithmetic" k2="-1" k3="1"/>
<feColorMatrix type="matrix" values="0 0 0 0 0 0 0 0 0 0 0 0 0 0 0 0 0 0 0.25 0"/>
<feBlend mode="normal" in2="shape" result="effect1_innerShadow_16_1458"/>
</filter>
<radialGradient id="paint0_radial_16_1458" cx="0" cy="0" r="1" gradientUnits="userSpaceOnUse" gradientTransform="translate(313.623 263.974) rotate(108.998) scale(102.502 183.15)">
<stop stop-color="#F3DBCA"/>
<stop offset="0.84123" stop-color="#DE994F" stop-opacity="0.7"/>
</radialGradient>
<linearGradient id="paint1_linear_16_1458" x1="-1.13214e-06" y1="57.6306" x2="66.3099" y2="58.2763" gradientUnits="userSpaceOnUse">
<stop stop-color="#F3DBCA"/>
<stop offset="0.9" stop-color="#DE994F" stop-opacity="0.8"/>
</linearGradient>
<linearGradient id="paint2_linear_16_1458" x1="-1.13677e-06" y1="57.4156" x2="66.5814" y2="58.0691" gradientUnits="userSpaceOnUse">
<stop stop-color="#F3DBCA"/>
<stop offset="0.9" stop-color="#DE994F" stop-opacity="0.8"/>
</linearGradient>
<radialGradient id="paint3_radial_16_1458" cx="0" cy="0" r="1" gradientUnits="userSpaceOnUse" gradientTransform="translate(43.5271 40.6303) rotate(90) scale(40.6303 43.5271)">
<stop stop-color="#E3DCDC"/>
<stop offset="0.714895" stop-color="#E5A8A8"/>
</radialGradient>
<linearGradient id="paint4_linear_16_1458" x1="215.714" y1="392.256" x2="297.586" y2="392.256" gradientUnits="userSpaceOnUse">
<stop stop-color="#D06666"/>
<stop offset="1" stop-color="#CD1010"/>
</linearGradient>
</defs>
</svg>
