<svg width="3068" height="2605" viewBox="0 0 3068 2605" fill="none" xmlns="http://www.w3.org/2000/svg">
<path d="M2156.54 1000.6C2156.54 1020.82 2143.49 1050.85 2094.39 1087.55C2046.36 1123.44 1973.05 1158.31 1877.07 1188.65C1685.81 1249.11 1417.88 1287.46 1119.27 1287.46C820.668 1287.46 552.735 1249.11 361.475 1188.65C265.494 1158.31 192.182 1123.44 144.156 1087.55C95.0538 1050.85 82.0083 1020.82 82.0083 1000.6C82.0083 980.369 95.0538 950.34 144.156 913.642C192.182 877.748 265.494 842.878 361.475 812.537C552.735 752.077 820.668 713.734 1119.27 713.734C1417.88 713.734 1685.81 752.077 1877.07 812.537C1973.05 842.878 2046.36 877.748 2094.39 913.642C2143.49 950.34 2156.54 980.369 2156.54 1000.6Z" fill="#A5846B" stroke="#B50707" stroke-width="120"/>
<path d="M2134.97 2257.97C2134.97 2278.19 2121.92 2308.22 2072.82 2344.92C2024.79 2380.81 1951.48 2415.68 1855.5 2446.03C1664.24 2506.49 1396.31 2544.83 1097.7 2544.83C799.097 2544.83 531.165 2506.49 339.904 2446.03C243.923 2415.68 170.612 2380.81 122.585 2344.92C73.483 2308.22 60.4375 2278.19 60.4375 2257.97C60.4375 2237.74 73.483 2207.71 122.585 2171.01C170.612 2135.12 243.923 2100.25 339.904 2069.91C531.165 2009.45 799.097 1971.11 1097.7 1971.11C1396.31 1971.11 1664.24 2009.45 1855.5 2069.91C1951.48 2100.25 2024.79 2135.12 2072.82 2171.01C2121.92 2207.71 2134.97 2237.74 2134.97 2257.97Z" fill="#A5846B" stroke="#B50707" stroke-width="120"/>
<path d="M14.395 1017.07C14.395 1017.07 202.211 1171.65 447.422 1253.16C447.422 1253.16 705.596 1335.03 1111.66 1335.03C1517.72 1335.03 1493.06 1318.41 1765.13 1278.95C2026.21 1241.09 2212.41 1001.46 2212.41 1001.46L2192.75 2261.73C2192.75 2261.73 2056.66 2522.45 1111.66 2547.6C351.652 2567.82 14.395 2261.73 14.395 2261.73V1017.07Z" fill="#0054CB"/>
<path d="M443.595 1257.27L649.601 2506.9L465.8 2488.63L295.77 2423.59C295.77 2423.59 172.482 2375.33 104.803 2328.5C73.2029 2306.63 28.3529 2267.51 28.3529 2267.51L443.595 1257.27Z" fill="#0CB50C"/>
<path d="M1772.66 1263.85L1566.65 2513.47L1750.45 2495.21L1920.48 2430.17C1920.48 2430.17 2043.77 2381.91 2111.45 2335.07C2143.05 2313.2 2187.9 2274.08 2187.9 2274.08L1772.66 1263.85Z" fill="#0CB50C"/>
<path d="M1049.8 1347.46L1437.13 2532.28L1245.53 2547.02H1049.8H829.969L670.407 2532.28L1049.8 1347.46Z" fill="#0CB50C"/>
<rect width="94.9382" height="1783.41" rx="47.4691" transform="matrix(-0.19631 -0.960892 1.00278 -0.170098 1255.8 907.834)" fill="#D1AC8F"/>
<ellipse cx="135.197" cy="173.172" rx="135.197" ry="173.172" transform="matrix(-0.131995 -0.967966 1.0141 -0.114816 1202.43 955.233)" fill="#D1AC8F"/>
<rect width="94.5457" height="1790.05" rx="47.2729" transform="matrix(-0.465287 -0.88516 0.916513 -0.400004 1281.18 1124.23)" fill="#D1AC8F"/>
<ellipse cx="134.364" cy="174.139" rx="134.364" ry="174.139" transform="matrix(-0.465287 -0.88516 0.916513 -0.400004 1156.86 1273.07)" fill="#D1AC8F"/>
</svg>
