<svg width="2298" height="1164" viewBox="0 0 2298 1164" fill="none" xmlns="http://www.w3.org/2000/svg">
<g opacity="0.1">
<path d="M2189 648.297C2189 685.726 2171.37 727.908 2125.92 773.323C2080.18 819.03 2010.2 863.64 1917.75 902.715C1733.13 980.738 1472.88 1030.8 1181.5 1030.8C890.121 1030.8 629.867 980.738 445.254 902.715C352.799 863.64 282.824 819.03 237.08 773.323C191.63 727.908 174 685.726 174 648.297C174 610.868 191.63 568.686 237.08 523.271C282.824 477.563 352.799 432.954 445.254 393.879C629.867 315.856 890.121 265.797 1181.5 265.797C1472.88 265.797 1733.13 315.856 1917.75 393.879C2010.2 432.954 2080.18 477.563 2125.92 523.271C2171.37 568.686 2189 610.868 2189 648.297Z" stroke="#FF0000" stroke-width="150"/>
<path d="M2189 648.297C2189 685.726 2171.37 727.908 2125.92 773.323C2080.18 819.03 2010.2 863.64 1917.75 902.715C1733.13 980.738 1472.88 1030.8 1181.5 1030.8C890.121 1030.8 629.867 980.738 445.254 902.715C352.799 863.64 282.824 819.03 237.08 773.323C191.63 727.908 174 685.726 174 648.297C174 610.868 191.63 568.686 237.08 523.271C282.824 477.563 352.799 432.954 445.254 393.879C629.867 315.856 890.121 265.797 1181.5 265.797C1472.88 265.797 1733.13 315.856 1917.75 393.879C2010.2 432.954 2080.18 477.563 2125.92 523.271C2171.37 568.686 2189 610.868 2189 648.297Z" stroke="#FF0000" stroke-width="150"/>
</g>
<g opacity="0.1">
<path d="M2189 648.297C2189 685.726 2171.37 727.908 2125.92 773.323C2080.18 819.03 2010.2 863.64 1917.75 902.715C1733.13 980.738 1472.88 1030.8 1181.5 1030.8C890.121 1030.8 629.867 980.738 445.254 902.715C352.799 863.64 282.824 819.03 237.08 773.323C191.63 727.908 174 685.726 174 648.297C174 610.868 191.63 568.686 237.08 523.271C282.824 477.563 352.799 432.954 445.254 393.879C629.867 315.856 890.121 265.797 1181.5 265.797C1472.88 265.797 1733.13 315.856 1917.75 393.879C2010.2 432.954 2080.18 477.563 2125.92 523.271C2171.37 568.686 2189 610.868 2189 648.297Z" stroke="#FF0000" stroke-width="150"/>
<path d="M2189 648.297C2189 685.726 2171.37 727.908 2125.92 773.323C2080.18 819.03 2010.2 863.64 1917.75 902.715C1733.13 980.738 1472.88 1030.8 1181.5 1030.8C890.121 1030.8 629.867 980.738 445.254 902.715C352.799 863.64 282.824 819.03 237.08 773.323C191.63 727.908 174 685.726 174 648.297C174 610.868 191.63 568.686 237.08 523.271C282.824 477.563 352.799 432.954 445.254 393.879C629.867 315.856 890.121 265.797 1181.5 265.797C1472.88 265.797 1733.13 315.856 1917.75 393.879C2010.2 432.954 2080.18 477.563 2125.92 523.271C2171.37 568.686 2189 610.868 2189 648.297Z" stroke="#FF0000" stroke-width="150"/>
</g>
<g opacity="0.1">
<path d="M2189 648.297C2189 685.726 2171.37 727.908 2125.92 773.323C2080.18 819.03 2010.2 863.64 1917.75 902.715C1733.13 980.738 1472.88 1030.8 1181.5 1030.8C890.121 1030.8 629.867 980.738 445.254 902.715C352.799 863.64 282.824 819.03 237.08 773.323C191.63 727.908 174 685.726 174 648.297C174 610.868 191.63 568.686 237.08 523.271C282.824 477.563 352.799 432.954 445.254 393.879C629.867 315.856 890.121 265.797 1181.5 265.797C1472.88 265.797 1733.13 315.856 1917.75 393.879C2010.2 432.954 2080.18 477.563 2125.92 523.271C2171.37 568.686 2189 610.868 2189 648.297Z" stroke="#FF0000" stroke-width="150"/>
<path d="M2189 648.297C2189 685.726 2171.37 727.908 2125.92 773.323C2080.18 819.03 2010.2 863.64 1917.75 902.715C1733.13 980.738 1472.88 1030.8 1181.5 1030.8C890.121 1030.8 629.867 980.738 445.254 902.715C352.799 863.64 282.824 819.03 237.08 773.323C191.63 727.908 174 685.726 174 648.297C174 610.868 191.63 568.686 237.08 523.271C282.824 477.563 352.799 432.954 445.254 393.879C629.867 315.856 890.121 265.797 1181.5 265.797C1472.88 265.797 1733.13 315.856 1917.75 393.879C2010.2 432.954 2080.18 477.563 2125.92 523.271C2171.37 568.686 2189 610.868 2189 648.297Z" stroke="#FF0000" stroke-width="150"/>
</g>
<g opacity="0.1">
<path d="M2189 648.297C2189 685.726 2171.37 727.908 2125.92 773.323C2080.18 819.03 2010.2 863.64 1917.75 902.715C1733.13 980.738 1472.88 1030.8 1181.5 1030.8C890.121 1030.8 629.867 980.738 445.254 902.715C352.799 863.64 282.824 819.03 237.08 773.323C191.63 727.908 174 685.726 174 648.297C174 610.868 191.63 568.686 237.08 523.271C282.824 477.563 352.799 432.954 445.254 393.879C629.867 315.856 890.121 265.797 1181.5 265.797C1472.88 265.797 1733.13 315.856 1917.75 393.879C2010.2 432.954 2080.18 477.563 2125.92 523.271C2171.37 568.686 2189 610.868 2189 648.297Z" stroke="#FF0000" stroke-width="150"/>
<path d="M2189 648.297C2189 685.726 2171.37 727.908 2125.92 773.323C2080.18 819.03 2010.2 863.64 1917.75 902.715C1733.13 980.738 1472.88 1030.8 1181.5 1030.8C890.121 1030.8 629.867 980.738 445.254 902.715C352.799 863.64 282.824 819.03 237.08 773.323C191.63 727.908 174 685.726 174 648.297C174 610.868 191.63 568.686 237.08 523.271C282.824 477.563 352.799 432.954 445.254 393.879C629.867 315.856 890.121 265.797 1181.5 265.797C1472.88 265.797 1733.13 315.856 1917.75 393.879C2010.2 432.954 2080.18 477.563 2125.92 523.271C2171.37 568.686 2189 610.868 2189 648.297Z" stroke="#FF0000" stroke-width="150"/>
</g>
<g opacity="0.1">
<path d="M2189 648.297C2189 685.726 2171.37 727.908 2125.92 773.323C2080.18 819.03 2010.2 863.64 1917.75 902.715C1733.13 980.738 1472.88 1030.8 1181.5 1030.8C890.121 1030.8 629.867 980.738 445.254 902.715C352.799 863.64 282.824 819.03 237.08 773.323C191.63 727.908 174 685.726 174 648.297C174 610.868 191.63 568.686 237.08 523.271C282.824 477.563 352.799 432.954 445.254 393.879C629.867 315.856 890.121 265.797 1181.5 265.797C1472.88 265.797 1733.13 315.856 1917.75 393.879C2010.2 432.954 2080.18 477.563 2125.92 523.271C2171.37 568.686 2189 610.868 2189 648.297Z" stroke="#FF0000" stroke-width="150"/>
<path d="M2189 648.297C2189 685.726 2171.37 727.908 2125.92 773.323C2080.18 819.03 2010.2 863.64 1917.75 902.715C1733.13 980.738 1472.88 1030.8 1181.5 1030.8C890.121 1030.8 629.867 980.738 445.254 902.715C352.799 863.64 282.824 819.03 237.08 773.323C191.63 727.908 174 685.726 174 648.297C174 610.868 191.63 568.686 237.08 523.271C282.824 477.563 352.799 432.954 445.254 393.879C629.867 315.856 890.121 265.797 1181.5 265.797C1472.88 265.797 1733.13 315.856 1917.75 393.879C2010.2 432.954 2080.18 477.563 2125.92 523.271C2171.37 568.686 2189 610.868 2189 648.297Z" stroke="#FF0000" stroke-width="150"/>
</g>
<g opacity="0.1">
<path d="M2189 648.297C2189 685.726 2171.37 727.908 2125.92 773.323C2080.18 819.03 2010.2 863.64 1917.75 902.715C1733.13 980.738 1472.88 1030.8 1181.5 1030.8C890.121 1030.8 629.867 980.738 445.254 902.715C352.799 863.64 282.824 819.03 237.08 773.323C191.63 727.908 174 685.726 174 648.297C174 610.868 191.63 568.686 237.08 523.271C282.824 477.563 352.799 432.954 445.254 393.879C629.867 315.856 890.121 265.797 1181.5 265.797C1472.88 265.797 1733.13 315.856 1917.75 393.879C2010.2 432.954 2080.18 477.563 2125.92 523.271C2171.37 568.686 2189 610.868 2189 648.297Z" stroke="#FF0000" stroke-width="150"/>
<path d="M2189 648.297C2189 685.726 2171.37 727.908 2125.92 773.323C2080.18 819.03 2010.2 863.64 1917.75 902.715C1733.13 980.738 1472.88 1030.8 1181.5 1030.8C890.121 1030.8 629.867 980.738 445.254 902.715C352.799 863.64 282.824 819.03 237.08 773.323C191.63 727.908 174 685.726 174 648.297C174 610.868 191.63 568.686 237.08 523.271C282.824 477.563 352.799 432.954 445.254 393.879C629.867 315.856 890.121 265.797 1181.5 265.797C1472.88 265.797 1733.13 315.856 1917.75 393.879C2010.2 432.954 2080.18 477.563 2125.92 523.271C2171.37 568.686 2189 610.868 2189 648.297Z" stroke="#FF0000" stroke-width="150"/>
</g>
<g opacity="0.1">
<path d="M2189 648.297C2189 685.726 2171.37 727.908 2125.92 773.323C2080.18 819.03 2010.2 863.64 1917.75 902.715C1733.13 980.738 1472.88 1030.8 1181.5 1030.8C890.121 1030.8 629.867 980.738 445.254 902.715C352.799 863.64 282.824 819.03 237.08 773.323C191.63 727.908 174 685.726 174 648.297C174 610.868 191.63 568.686 237.08 523.271C282.824 477.563 352.799 432.954 445.254 393.879C629.867 315.856 890.121 265.797 1181.5 265.797C1472.88 265.797 1733.13 315.856 1917.75 393.879C2010.2 432.954 2080.18 477.563 2125.92 523.271C2171.37 568.686 2189 610.868 2189 648.297Z" stroke="#FF0000" stroke-width="150"/>
<path d="M2189 648.297C2189 685.726 2171.37 727.908 2125.92 773.323C2080.18 819.03 2010.2 863.64 1917.75 902.715C1733.13 980.738 1472.88 1030.8 1181.5 1030.8C890.121 1030.8 629.867 980.738 445.254 902.715C352.799 863.64 282.824 819.03 237.08 773.323C191.63 727.908 174 685.726 174 648.297C174 610.868 191.63 568.686 237.08 523.271C282.824 477.563 352.799 432.954 445.254 393.879C629.867 315.856 890.121 265.797 1181.5 265.797C1472.88 265.797 1733.13 315.856 1917.75 393.879C2010.2 432.954 2080.18 477.563 2125.92 523.271C2171.37 568.686 2189 610.868 2189 648.297Z" stroke="#FF0000" stroke-width="150"/>
</g>
<g opacity="0.1">
<path d="M2212 648.297C2212 685.726 2194.37 727.908 2148.92 773.323C2103.18 819.03 2033.2 863.64 1940.75 902.715C1756.13 980.738 1495.88 1030.8 1204.5 1030.8C913.121 1030.8 652.867 980.738 468.254 902.715C375.799 863.64 305.824 819.03 260.08 773.323C214.63 727.908 197 685.726 197 648.297C197 610.868 214.63 568.686 260.08 523.271C305.824 477.563 375.799 432.954 468.254 393.879C652.867 315.856 913.121 265.797 1204.5 265.797C1495.88 265.797 1756.13 315.856 1940.75 393.879C2033.2 432.954 2103.18 477.563 2148.92 523.271C2194.37 568.686 2212 610.868 2212 648.297Z" stroke="#FF0000" stroke-width="150"/>
<path d="M2212 648.297C2212 685.726 2194.37 727.908 2148.92 773.323C2103.18 819.03 2033.2 863.64 1940.75 902.715C1756.13 980.738 1495.88 1030.8 1204.5 1030.8C913.121 1030.8 652.867 980.738 468.254 902.715C375.799 863.64 305.824 819.03 260.08 773.323C214.63 727.908 197 685.726 197 648.297C197 610.868 214.63 568.686 260.08 523.271C305.824 477.563 375.799 432.954 468.254 393.879C652.867 315.856 913.121 265.797 1204.5 265.797C1495.88 265.797 1756.13 315.856 1940.75 393.879C2033.2 432.954 2103.18 477.563 2148.92 523.271C2194.37 568.686 2212 610.868 2212 648.297Z" stroke="#FF0000" stroke-width="150"/>
</g>
<g opacity="0.1">
<path d="M2189 648.297C2189 685.726 2171.37 727.908 2125.92 773.323C2080.18 819.03 2010.2 863.64 1917.75 902.715C1733.13 980.738 1472.88 1030.8 1181.5 1030.8C890.121 1030.8 629.867 980.738 445.254 902.715C352.799 863.64 282.824 819.03 237.08 773.323C191.63 727.908 174 685.726 174 648.297C174 610.868 191.63 568.686 237.08 523.271C282.824 477.563 352.799 432.954 445.254 393.879C629.867 315.856 890.121 265.797 1181.5 265.797C1472.88 265.797 1733.13 315.856 1917.75 393.879C2010.2 432.954 2080.18 477.563 2125.92 523.271C2171.37 568.686 2189 610.868 2189 648.297Z" stroke="#FF0000" stroke-width="150"/>
<path d="M2189 648.297C2189 685.726 2171.37 727.908 2125.92 773.323C2080.18 819.03 2010.2 863.64 1917.75 902.715C1733.13 980.738 1472.88 1030.8 1181.5 1030.8C890.121 1030.8 629.867 980.738 445.254 902.715C352.799 863.64 282.824 819.03 237.08 773.323C191.63 727.908 174 685.726 174 648.297C174 610.868 191.63 568.686 237.08 523.271C282.824 477.563 352.799 432.954 445.254 393.879C629.867 315.856 890.121 265.797 1181.5 265.797C1472.88 265.797 1733.13 315.856 1917.75 393.879C2010.2 432.954 2080.18 477.563 2125.92 523.271C2171.37 568.686 2189 610.868 2189 648.297Z" stroke="#FF0000" stroke-width="150"/>
</g>
<g opacity="0.1">
<path d="M2212 648.297C2212 685.726 2194.37 727.908 2148.92 773.323C2103.18 819.03 2033.2 863.64 1940.75 902.715C1756.13 980.738 1495.88 1030.8 1204.5 1030.8C913.121 1030.8 652.867 980.738 468.254 902.715C375.799 863.64 305.824 819.03 260.08 773.323C214.63 727.908 197 685.726 197 648.297C197 610.868 214.63 568.686 260.08 523.271C305.824 477.563 375.799 432.954 468.254 393.879C652.867 315.856 913.121 265.797 1204.5 265.797C1495.88 265.797 1756.13 315.856 1940.75 393.879C2033.2 432.954 2103.18 477.563 2148.92 523.271C2194.37 568.686 2212 610.868 2212 648.297Z" stroke="#FF0000" stroke-width="150"/>
<path d="M2212 648.297C2212 685.726 2194.37 727.908 2148.92 773.323C2103.18 819.03 2033.2 863.64 1940.75 902.715C1756.13 980.738 1495.88 1030.8 1204.5 1030.8C913.121 1030.8 652.867 980.738 468.254 902.715C375.799 863.64 305.824 819.03 260.08 773.323C214.63 727.908 197 685.726 197 648.297C197 610.868 214.63 568.686 260.08 523.271C305.824 477.563 375.799 432.954 468.254 393.879C652.867 315.856 913.121 265.797 1204.5 265.797C1495.88 265.797 1756.13 315.856 1940.75 393.879C2033.2 432.954 2103.18 477.563 2148.92 523.271C2194.37 568.686 2212 610.868 2212 648.297Z" stroke="#FF0000" stroke-width="150"/>
</g>
<g opacity="0.1">
<path d="M2189 648.297C2189 685.726 2171.37 727.908 2125.92 773.323C2080.18 819.03 2010.2 863.64 1917.75 902.715C1733.13 980.738 1472.88 1030.8 1181.5 1030.8C890.121 1030.8 629.867 980.738 445.254 902.715C352.799 863.64 282.824 819.03 237.08 773.323C191.63 727.908 174 685.726 174 648.297C174 610.868 191.63 568.686 237.08 523.271C282.824 477.563 352.799 432.954 445.254 393.879C629.867 315.856 890.121 265.797 1181.5 265.797C1472.88 265.797 1733.13 315.856 1917.75 393.879C2010.2 432.954 2080.18 477.563 2125.92 523.271C2171.37 568.686 2189 610.868 2189 648.297Z" stroke="#FF0000" stroke-width="150"/>
<path d="M2189 648.297C2189 685.726 2171.37 727.908 2125.92 773.323C2080.18 819.03 2010.2 863.64 1917.75 902.715C1733.13 980.738 1472.88 1030.8 1181.5 1030.8C890.121 1030.8 629.867 980.738 445.254 902.715C352.799 863.64 282.824 819.03 237.08 773.323C191.63 727.908 174 685.726 174 648.297C174 610.868 191.63 568.686 237.08 523.271C282.824 477.563 352.799 432.954 445.254 393.879C629.867 315.856 890.121 265.797 1181.5 265.797C1472.88 265.797 1733.13 315.856 1917.75 393.879C2010.2 432.954 2080.18 477.563 2125.92 523.271C2171.37 568.686 2189 610.868 2189 648.297Z" stroke="#FF0000" stroke-width="150"/>
</g>
<ellipse cx="1597" cy="987.797" rx="200" ry="133" fill="url(#paint0_angular_61_123)"/>
<ellipse cx="951" cy="1030.8" rx="200" ry="133" fill="url(#paint1_angular_61_123)"/>
<ellipse cx="395" cy="897.797" rx="200" ry="133" fill="url(#paint2_angular_61_123)"/>
<ellipse cx="235.125" cy="459.658" rx="200" ry="133" transform="rotate(-21.8417 235.125 459.658)" fill="url(#paint3_angular_61_123)"/>
<ellipse cx="730.125" cy="190.658" rx="200" ry="133" transform="rotate(-10.3173 730.125 190.658)" fill="url(#paint4_angular_61_123)"/>
<ellipse cx="1353.59" cy="161.466" rx="200" ry="133" transform="rotate(8.61763 1353.59 161.466)" fill="url(#paint5_angular_61_123)"/>
<ellipse cx="2069.67" cy="352.263" rx="200" ry="133" transform="rotate(8.61763 2069.67 352.263)" fill="url(#paint6_angular_61_123)"/>
<ellipse cx="2098" cy="764.797" rx="200" ry="133" fill="url(#paint7_angular_61_123)"/>
<g opacity="0.1">
<path d="M2200 530.297C2200 567.726 2182.37 609.908 2136.92 655.323C2091.18 701.03 2021.2 745.64 1928.75 784.715C1744.13 862.738 1483.88 912.797 1192.5 912.797C901.121 912.797 640.867 862.738 456.254 784.715C363.799 745.64 293.824 701.03 248.08 655.323C202.63 609.908 185 567.726 185 530.297C185 492.868 202.63 450.686 248.08 405.271C293.824 359.563 363.799 314.954 456.254 275.879C640.867 197.856 901.121 147.797 1192.5 147.797C1483.88 147.797 1744.13 197.856 1928.75 275.879C2021.2 314.954 2091.18 359.563 2136.92 405.271C2182.37 450.686 2200 492.868 2200 530.297Z" stroke="#FF0000" stroke-width="150"/>
<path d="M2200 530.297C2200 567.726 2182.37 609.908 2136.92 655.323C2091.18 701.03 2021.2 745.64 1928.75 784.715C1744.13 862.738 1483.88 912.797 1192.5 912.797C901.121 912.797 640.867 862.738 456.254 784.715C363.799 745.64 293.824 701.03 248.08 655.323C202.63 609.908 185 567.726 185 530.297C185 492.868 202.63 450.686 248.08 405.271C293.824 359.563 363.799 314.954 456.254 275.879C640.867 197.856 901.121 147.797 1192.5 147.797C1483.88 147.797 1744.13 197.856 1928.75 275.879C2021.2 314.954 2091.18 359.563 2136.92 405.271C2182.37 450.686 2200 492.868 2200 530.297Z" stroke="#FF0000" stroke-width="150"/>
</g>
<g opacity="0.1">
<path d="M2200 530.297C2200 567.726 2182.37 609.908 2136.92 655.323C2091.18 701.03 2021.2 745.64 1928.75 784.715C1744.13 862.738 1483.88 912.797 1192.5 912.797C901.121 912.797 640.867 862.738 456.254 784.715C363.799 745.64 293.824 701.03 248.08 655.323C202.63 609.908 185 567.726 185 530.297C185 492.868 202.63 450.686 248.08 405.271C293.824 359.563 363.799 314.954 456.254 275.879C640.867 197.856 901.121 147.797 1192.5 147.797C1483.88 147.797 1744.13 197.856 1928.75 275.879C2021.2 314.954 2091.18 359.563 2136.92 405.271C2182.37 450.686 2200 492.868 2200 530.297Z" stroke="#FF0000" stroke-width="150"/>
<path d="M2200 530.297C2200 567.726 2182.37 609.908 2136.92 655.323C2091.18 701.03 2021.2 745.64 1928.75 784.715C1744.13 862.738 1483.88 912.797 1192.5 912.797C901.121 912.797 640.867 862.738 456.254 784.715C363.799 745.64 293.824 701.03 248.08 655.323C202.63 609.908 185 567.726 185 530.297C185 492.868 202.63 450.686 248.08 405.271C293.824 359.563 363.799 314.954 456.254 275.879C640.867 197.856 901.121 147.797 1192.5 147.797C1483.88 147.797 1744.13 197.856 1928.75 275.879C2021.2 314.954 2091.18 359.563 2136.92 405.271C2182.37 450.686 2200 492.868 2200 530.297Z" stroke="#FF0000" stroke-width="150"/>
</g>
<g opacity="0.1">
<path d="M2200 530.297C2200 567.726 2182.37 609.908 2136.92 655.323C2091.18 701.03 2021.2 745.64 1928.75 784.715C1744.13 862.738 1483.88 912.797 1192.5 912.797C901.121 912.797 640.867 862.738 456.254 784.715C363.799 745.64 293.824 701.03 248.08 655.323C202.63 609.908 185 567.726 185 530.297C185 492.868 202.63 450.686 248.08 405.271C293.824 359.563 363.799 314.954 456.254 275.879C640.867 197.856 901.121 147.797 1192.5 147.797C1483.88 147.797 1744.13 197.856 1928.75 275.879C2021.2 314.954 2091.18 359.563 2136.92 405.271C2182.37 450.686 2200 492.868 2200 530.297Z" stroke="#FF0000" stroke-width="150"/>
<path d="M2200 530.297C2200 567.726 2182.37 609.908 2136.92 655.323C2091.18 701.03 2021.2 745.64 1928.75 784.715C1744.13 862.738 1483.88 912.797 1192.5 912.797C901.121 912.797 640.867 862.738 456.254 784.715C363.799 745.64 293.824 701.03 248.08 655.323C202.63 609.908 185 567.726 185 530.297C185 492.868 202.63 450.686 248.08 405.271C293.824 359.563 363.799 314.954 456.254 275.879C640.867 197.856 901.121 147.797 1192.5 147.797C1483.88 147.797 1744.13 197.856 1928.75 275.879C2021.2 314.954 2091.18 359.563 2136.92 405.271C2182.37 450.686 2200 492.868 2200 530.297Z" stroke="#FF0000" stroke-width="150"/>
</g>
<g opacity="0.1">
<path d="M2200 530.297C2200 567.726 2182.37 609.908 2136.92 655.323C2091.18 701.03 2021.2 745.64 1928.75 784.715C1744.13 862.738 1483.88 912.797 1192.5 912.797C901.121 912.797 640.867 862.738 456.254 784.715C363.799 745.64 293.824 701.03 248.08 655.323C202.63 609.908 185 567.726 185 530.297C185 492.868 202.63 450.686 248.08 405.271C293.824 359.563 363.799 314.954 456.254 275.879C640.867 197.856 901.121 147.797 1192.5 147.797C1483.88 147.797 1744.13 197.856 1928.75 275.879C2021.2 314.954 2091.18 359.563 2136.92 405.271C2182.37 450.686 2200 492.868 2200 530.297Z" stroke="#FF0000" stroke-width="150"/>
<path d="M2200 530.297C2200 567.726 2182.37 609.908 2136.92 655.323C2091.18 701.03 2021.2 745.64 1928.75 784.715C1744.13 862.738 1483.88 912.797 1192.5 912.797C901.121 912.797 640.867 862.738 456.254 784.715C363.799 745.64 293.824 701.03 248.08 655.323C202.63 609.908 185 567.726 185 530.297C185 492.868 202.63 450.686 248.08 405.271C293.824 359.563 363.799 314.954 456.254 275.879C640.867 197.856 901.121 147.797 1192.5 147.797C1483.88 147.797 1744.13 197.856 1928.75 275.879C2021.2 314.954 2091.18 359.563 2136.92 405.271C2182.37 450.686 2200 492.868 2200 530.297Z" stroke="#FF0000" stroke-width="150"/>
</g>
<g opacity="0.1">
<path d="M2200 530.297C2200 567.726 2182.37 609.908 2136.92 655.323C2091.18 701.03 2021.2 745.64 1928.75 784.715C1744.13 862.738 1483.88 912.797 1192.5 912.797C901.121 912.797 640.867 862.738 456.254 784.715C363.799 745.64 293.824 701.03 248.08 655.323C202.63 609.908 185 567.726 185 530.297C185 492.868 202.63 450.686 248.08 405.271C293.824 359.563 363.799 314.954 456.254 275.879C640.867 197.856 901.121 147.797 1192.5 147.797C1483.88 147.797 1744.13 197.856 1928.75 275.879C2021.2 314.954 2091.18 359.563 2136.92 405.271C2182.37 450.686 2200 492.868 2200 530.297Z" stroke="#FF0000" stroke-width="150"/>
<path d="M2200 530.297C2200 567.726 2182.37 609.908 2136.92 655.323C2091.18 701.03 2021.2 745.64 1928.75 784.715C1744.13 862.738 1483.88 912.797 1192.5 912.797C901.121 912.797 640.867 862.738 456.254 784.715C363.799 745.64 293.824 701.03 248.08 655.323C202.63 609.908 185 567.726 185 530.297C185 492.868 202.63 450.686 248.08 405.271C293.824 359.563 363.799 314.954 456.254 275.879C640.867 197.856 901.121 147.797 1192.5 147.797C1483.88 147.797 1744.13 197.856 1928.75 275.879C2021.2 314.954 2091.18 359.563 2136.92 405.271C2182.37 450.686 2200 492.868 2200 530.297Z" stroke="#FF0000" stroke-width="150"/>
</g>
<g opacity="0.1">
<path d="M2200 530.297C2200 567.726 2182.37 609.908 2136.92 655.323C2091.18 701.03 2021.2 745.64 1928.75 784.715C1744.13 862.738 1483.88 912.797 1192.5 912.797C901.121 912.797 640.867 862.738 456.254 784.715C363.799 745.64 293.824 701.03 248.08 655.323C202.63 609.908 185 567.726 185 530.297C185 492.868 202.63 450.686 248.08 405.271C293.824 359.563 363.799 314.954 456.254 275.879C640.867 197.856 901.121 147.797 1192.5 147.797C1483.88 147.797 1744.13 197.856 1928.75 275.879C2021.2 314.954 2091.18 359.563 2136.92 405.271C2182.37 450.686 2200 492.868 2200 530.297Z" stroke="#FF0000" stroke-width="150"/>
<path d="M2200 530.297C2200 567.726 2182.37 609.908 2136.92 655.323C2091.18 701.03 2021.2 745.64 1928.75 784.715C1744.13 862.738 1483.88 912.797 1192.5 912.797C901.121 912.797 640.867 862.738 456.254 784.715C363.799 745.64 293.824 701.03 248.08 655.323C202.63 609.908 185 567.726 185 530.297C185 492.868 202.63 450.686 248.08 405.271C293.824 359.563 363.799 314.954 456.254 275.879C640.867 197.856 901.121 147.797 1192.5 147.797C1483.88 147.797 1744.13 197.856 1928.75 275.879C2021.2 314.954 2091.18 359.563 2136.92 405.271C2182.37 450.686 2200 492.868 2200 530.297Z" stroke="#FF0000" stroke-width="150"/>
</g>
<g opacity="0.1">
<path d="M2200 530.297C2200 567.726 2182.37 609.908 2136.92 655.323C2091.18 701.03 2021.2 745.64 1928.75 784.715C1744.13 862.738 1483.88 912.797 1192.5 912.797C901.121 912.797 640.867 862.738 456.254 784.715C363.799 745.64 293.824 701.03 248.08 655.323C202.63 609.908 185 567.726 185 530.297C185 492.868 202.63 450.686 248.08 405.271C293.824 359.563 363.799 314.954 456.254 275.879C640.867 197.856 901.121 147.797 1192.5 147.797C1483.88 147.797 1744.13 197.856 1928.75 275.879C2021.2 314.954 2091.18 359.563 2136.92 405.271C2182.37 450.686 2200 492.868 2200 530.297Z" stroke="#FF0000" stroke-width="150"/>
<path d="M2200 530.297C2200 567.726 2182.37 609.908 2136.92 655.323C2091.18 701.03 2021.2 745.64 1928.75 784.715C1744.13 862.738 1483.88 912.797 1192.5 912.797C901.121 912.797 640.867 862.738 456.254 784.715C363.799 745.64 293.824 701.03 248.08 655.323C202.63 609.908 185 567.726 185 530.297C185 492.868 202.63 450.686 248.08 405.271C293.824 359.563 363.799 314.954 456.254 275.879C640.867 197.856 901.121 147.797 1192.5 147.797C1483.88 147.797 1744.13 197.856 1928.75 275.879C2021.2 314.954 2091.18 359.563 2136.92 405.271C2182.37 450.686 2200 492.868 2200 530.297Z" stroke="#FF0000" stroke-width="150"/>
</g>
<g opacity="0.1">
<path d="M2223 530.297C2223 567.726 2205.37 609.908 2159.92 655.323C2114.18 701.03 2044.2 745.64 1951.75 784.715C1767.13 862.738 1506.88 912.797 1215.5 912.797C924.121 912.797 663.867 862.738 479.254 784.715C386.799 745.64 316.824 701.03 271.08 655.323C225.63 609.908 208 567.726 208 530.297C208 492.868 225.63 450.686 271.08 405.271C316.824 359.563 386.799 314.954 479.254 275.879C663.867 197.856 924.121 147.797 1215.5 147.797C1506.88 147.797 1767.13 197.856 1951.75 275.879C2044.2 314.954 2114.18 359.563 2159.92 405.271C2205.37 450.686 2223 492.868 2223 530.297Z" stroke="#FF0000" stroke-width="150"/>
<path d="M2223 530.297C2223 567.726 2205.37 609.908 2159.92 655.323C2114.18 701.03 2044.2 745.64 1951.75 784.715C1767.13 862.738 1506.88 912.797 1215.5 912.797C924.121 912.797 663.867 862.738 479.254 784.715C386.799 745.64 316.824 701.03 271.08 655.323C225.63 609.908 208 567.726 208 530.297C208 492.868 225.63 450.686 271.08 405.271C316.824 359.563 386.799 314.954 479.254 275.879C663.867 197.856 924.121 147.797 1215.5 147.797C1506.88 147.797 1767.13 197.856 1951.75 275.879C2044.2 314.954 2114.18 359.563 2159.92 405.271C2205.37 450.686 2223 492.868 2223 530.297Z" stroke="#FF0000" stroke-width="150"/>
</g>
<g opacity="0.1">
<path d="M2200 530.297C2200 567.726 2182.37 609.908 2136.92 655.323C2091.18 701.03 2021.2 745.64 1928.75 784.715C1744.13 862.738 1483.88 912.797 1192.5 912.797C901.121 912.797 640.867 862.738 456.254 784.715C363.799 745.64 293.824 701.03 248.08 655.323C202.63 609.908 185 567.726 185 530.297C185 492.868 202.63 450.686 248.08 405.271C293.824 359.563 363.799 314.954 456.254 275.879C640.867 197.856 901.121 147.797 1192.5 147.797C1483.88 147.797 1744.13 197.856 1928.75 275.879C2021.2 314.954 2091.18 359.563 2136.92 405.271C2182.37 450.686 2200 492.868 2200 530.297Z" stroke="#FF0000" stroke-width="150"/>
<path d="M2200 530.297C2200 567.726 2182.37 609.908 2136.92 655.323C2091.18 701.03 2021.2 745.64 1928.75 784.715C1744.13 862.738 1483.88 912.797 1192.5 912.797C901.121 912.797 640.867 862.738 456.254 784.715C363.799 745.64 293.824 701.03 248.08 655.323C202.63 609.908 185 567.726 185 530.297C185 492.868 202.63 450.686 248.08 405.271C293.824 359.563 363.799 314.954 456.254 275.879C640.867 197.856 901.121 147.797 1192.5 147.797C1483.88 147.797 1744.13 197.856 1928.75 275.879C2021.2 314.954 2091.18 359.563 2136.92 405.271C2182.37 450.686 2200 492.868 2200 530.297Z" stroke="#FF0000" stroke-width="150"/>
</g>
<g opacity="0.1">
<path d="M2223 530.297C2223 567.726 2205.37 609.908 2159.92 655.323C2114.18 701.03 2044.2 745.64 1951.75 784.715C1767.13 862.738 1506.88 912.797 1215.5 912.797C924.121 912.797 663.867 862.738 479.254 784.715C386.799 745.64 316.824 701.03 271.08 655.323C225.63 609.908 208 567.726 208 530.297C208 492.868 225.63 450.686 271.08 405.271C316.824 359.563 386.799 314.954 479.254 275.879C663.867 197.856 924.121 147.797 1215.5 147.797C1506.88 147.797 1767.13 197.856 1951.75 275.879C2044.2 314.954 2114.18 359.563 2159.92 405.271C2205.37 450.686 2223 492.868 2223 530.297Z" stroke="#FF0000" stroke-width="150"/>
<path d="M2223 530.297C2223 567.726 2205.37 609.908 2159.92 655.323C2114.18 701.03 2044.2 745.64 1951.75 784.715C1767.13 862.738 1506.88 912.797 1215.5 912.797C924.121 912.797 663.867 862.738 479.254 784.715C386.799 745.64 316.824 701.03 271.08 655.323C225.63 609.908 208 567.726 208 530.297C208 492.868 225.63 450.686 271.08 405.271C316.824 359.563 386.799 314.954 479.254 275.879C663.867 197.856 924.121 147.797 1215.5 147.797C1506.88 147.797 1767.13 197.856 1951.75 275.879C2044.2 314.954 2114.18 359.563 2159.92 405.271C2205.37 450.686 2223 492.868 2223 530.297Z" stroke="#FF0000" stroke-width="150"/>
</g>
<g opacity="0.1">
<path d="M2200 530.297C2200 567.726 2182.37 609.908 2136.92 655.323C2091.18 701.03 2021.2 745.64 1928.75 784.715C1744.13 862.738 1483.88 912.797 1192.5 912.797C901.121 912.797 640.867 862.738 456.254 784.715C363.799 745.64 293.824 701.03 248.08 655.323C202.63 609.908 185 567.726 185 530.297C185 492.868 202.63 450.686 248.08 405.271C293.824 359.563 363.799 314.954 456.254 275.879C640.867 197.856 901.121 147.797 1192.5 147.797C1483.88 147.797 1744.13 197.856 1928.75 275.879C2021.2 314.954 2091.18 359.563 2136.92 405.271C2182.37 450.686 2200 492.868 2200 530.297Z" stroke="#FF0000" stroke-width="150"/>
<path d="M2200 530.297C2200 567.726 2182.37 609.908 2136.92 655.323C2091.18 701.03 2021.2 745.64 1928.75 784.715C1744.13 862.738 1483.88 912.797 1192.5 912.797C901.121 912.797 640.867 862.738 456.254 784.715C363.799 745.64 293.824 701.03 248.08 655.323C202.63 609.908 185 567.726 185 530.297C185 492.868 202.63 450.686 248.08 405.271C293.824 359.563 363.799 314.954 456.254 275.879C640.867 197.856 901.121 147.797 1192.5 147.797C1483.88 147.797 1744.13 197.856 1928.75 275.879C2021.2 314.954 2091.18 359.563 2136.92 405.271C2182.37 450.686 2200 492.868 2200 530.297Z" stroke="#FF0000" stroke-width="150"/>
</g>
<defs>
<radialGradient id="paint0_angular_61_123" cx="0" cy="0" r="1" gradientUnits="userSpaceOnUse" gradientTransform="translate(1751.75 1076.55) rotate(164.042) scale(160.952 242.033)">
<stop offset="0.402434" stop-color="#737373"/>
<stop offset="0.535373" stop-color="#D9D9D9"/>
</radialGradient>
<radialGradient id="paint1_angular_61_123" cx="0" cy="0" r="1" gradientUnits="userSpaceOnUse" gradientTransform="translate(1105.75 1119.55) rotate(164.042) scale(160.952 242.033)">
<stop offset="0.402434" stop-color="#737373"/>
<stop offset="0.535373" stop-color="#D9D9D9"/>
</radialGradient>
<radialGradient id="paint2_angular_61_123" cx="0" cy="0" r="1" gradientUnits="userSpaceOnUse" gradientTransform="translate(549.75 986.547) rotate(164.042) scale(160.952 242.033)">
<stop offset="0.402434" stop-color="#737373"/>
<stop offset="0.535373" stop-color="#D9D9D9"/>
</radialGradient>
<radialGradient id="paint3_angular_61_123" cx="0" cy="0" r="1" gradientUnits="userSpaceOnUse" gradientTransform="translate(389.875 548.408) rotate(164.042) scale(160.952 242.033)">
<stop offset="0.402434" stop-color="#737373"/>
<stop offset="0.535373" stop-color="#D9D9D9"/>
</radialGradient>
<radialGradient id="paint4_angular_61_123" cx="0" cy="0" r="1" gradientUnits="userSpaceOnUse" gradientTransform="translate(884.875 279.408) rotate(164.042) scale(160.952 242.033)">
<stop offset="0.402434" stop-color="#737373"/>
<stop offset="0.535373" stop-color="#D9D9D9"/>
</radialGradient>
<radialGradient id="paint5_angular_61_123" cx="0" cy="0" r="1" gradientUnits="userSpaceOnUse" gradientTransform="translate(1508.34 250.216) rotate(164.042) scale(160.952 242.033)">
<stop offset="0.402434" stop-color="#737373"/>
<stop offset="0.535373" stop-color="#D9D9D9"/>
</radialGradient>
<radialGradient id="paint6_angular_61_123" cx="0" cy="0" r="1" gradientUnits="userSpaceOnUse" gradientTransform="translate(2224.42 441.013) rotate(164.042) scale(160.952 242.033)">
<stop offset="0.402434" stop-color="#737373"/>
<stop offset="0.535373" stop-color="#D9D9D9"/>
</radialGradient>
<radialGradient id="paint7_angular_61_123" cx="0" cy="0" r="1" gradientUnits="userSpaceOnUse" gradientTransform="translate(2252.75 853.547) rotate(164.042) scale(160.952 242.033)">
<stop offset="0.402434" stop-color="#737373"/>
<stop offset="0.535373" stop-color="#D9D9D9"/>
</radialGradient>
</defs>
</svg>
