<svg width="358" height="700" viewBox="0 0 358 700" fill="none" xmlns="http://www.w3.org/2000/svg">
<path d="M311.822 615.612C311.6 613.484 311.562 601.976 297.282 590.936C285.558 581.871 268.553 582.799 259.301 593.007C250.049 603.215 252.053 618.839 263.777 627.903C275.501 636.968 312.043 617.739 311.822 615.612Z" fill="url(#paint0_radial_16_450)"/>
<path d="M181.535 405.452C237.565 403.62 264.993 505.625 267.208 573.354C269.026 628.964 229.463 649.327 173.434 651.159C130.271 639.737 109.625 604.429 107.807 548.819C105.989 493.209 125.506 407.284 181.535 405.452Z" fill="#AEA5A5"/>
<path d="M173.876 385.652C229.639 380.019 211.028 442.077 234.437 502.595C257.845 563.113 236.912 609.215 181.149 614.848C125.387 620.481 109.802 524.66 135.572 460.712C151.281 421.73 118.113 391.285 173.876 385.652Z" fill="#AEA5A5"/>
<path d="M236.204 499.773C268.877 531.771 286.935 552.403 298.257 545.07C309.579 537.738 300.154 505.569 277.205 473.219C254.256 440.87 226.474 420.59 215.152 427.922C210.314 431.055 209.264 438.724 211.44 449.004C233.09 473.055 239.83 480.902 236.204 499.773Z" fill="#AEA5A5"/>
<path d="M279.218 556.323C290.783 563.193 301.288 549.124 309.055 554.445C318.913 551.586 315.512 543.408 311.754 535.337C307.599 526.416 298.691 522.105 288.833 524.963C278.975 527.821 277.364 544.611 279.218 556.323Z" fill="#AEA5A5"/>
<path d="M313.374 542.401C313.374 542.401 315.143 545.581 315.035 547.666C314.938 549.543 313.756 551.253 313.253 551.84C312.749 552.427 310.367 553.998 308.385 553.252C306.389 552.5 304.393 547.617 304.695 548.575C304.997 549.532 304.656 552.448 303.215 553.706C302.203 554.588 299.969 554.647 299.969 554.647C299.969 554.647 298.313 555.587 297.13 555.47C295.81 555.34 294.859 554.976 293.941 553.783C293.118 552.713 293.186 551.389 292.884 550.432C292.582 549.475 292.257 553.042 291.507 554.488C290.739 555.969 290.292 556.907 289.016 557.823C287.665 558.793 286.649 559.288 284.96 558.999C283.64 558.773 282.826 558.347 281.771 557.311C280.657 556.217 280.272 555.248 279.752 553.717C279.17 552.006 279.204 549.174 279.204 549.174" stroke="white" stroke-width="2" stroke-linecap="round"/>
<path d="M131.066 503.201C100.547 537.26 83.8718 559.024 72.0962 552.445C60.3206 545.866 67.6302 513.151 88.4227 479.375C109.215 445.6 135.617 423.552 147.392 430.132C152.424 432.943 153.971 440.527 152.47 450.927C132.433 476.337 126.218 484.607 131.066 503.201Z" fill="#AEA5A5"/>
<path d="M91.827 562.434C80.7342 570.042 69.3348 556.688 61.9313 562.503C51.9082 560.293 54.7684 551.91 57.9933 543.612C61.5582 534.439 70.1661 529.557 80.1892 531.767C90.2123 533.977 92.9144 550.626 91.827 562.434Z" fill="#AEA5A5"/>
<path d="M56.837 550.767C56.837 550.767 55.2788 554.055 55.5226 556.129C55.742 557.995 57.0329 559.625 57.5734 560.178C58.1139 560.731 60.5934 562.142 62.523 561.269C64.4659 560.389 66.1388 555.387 65.8997 556.362C65.6607 557.336 66.1909 560.224 67.7116 561.385C68.7785 562.2 71.0113 562.113 71.0113 562.113C71.0113 562.113 72.7259 562.943 73.8985 562.749C75.207 562.534 76.1326 562.109 76.9708 560.858C77.722 559.737 77.5683 558.42 77.8072 557.446C78.0462 556.471 78.6026 560.009 79.4456 561.403C80.3082 562.831 80.8156 563.738 82.1478 564.568C83.5601 565.449 84.6056 565.876 86.2725 565.478C87.5744 565.166 88.3596 564.689 89.3448 563.586C90.3849 562.422 90.706 561.43 91.1256 559.868C91.5948 558.122 91.3761 555.299 91.3761 555.299" stroke="white" stroke-width="2" stroke-linecap="round"/>
<path d="M298.792 665.362C299.04 669.864 280.182 673.46 263.429 674.556C249.673 675.455 238.32 672.534 238.073 668.031C237.825 663.529 248.775 659.149 262.531 658.25C276.287 657.351 298.545 660.859 298.792 665.362Z" fill="#AEA5A5"/>
<path d="M286.537 674.059C287.024 682.91 265.597 688.957 246.465 690.208C230.757 691.234 217.629 684.892 217.142 676.041C216.655 667.19 228.994 659.182 244.702 658.155C260.41 657.129 286.05 665.209 286.537 674.059Z" fill="#AEA5A5"/>
<path d="M245.363 580.341C256.922 581.997 260.41 614.204 258.154 641.858C256.301 664.563 245.428 681.627 233.868 679.971C222.308 678.315 214.44 658.566 216.293 635.86C218.145 613.155 233.803 578.685 245.363 580.341Z" fill="#AEA5A5"/>
<path d="M300.969 673.074C301.189 677.082 282.317 680.419 265.563 681.514C251.807 682.414 240.477 679.894 240.257 675.886C240.036 671.879 251.009 667.901 264.765 667.002C278.52 666.102 300.748 669.067 300.969 673.074Z" fill="#AEA5A5"/>
<path d="M296.889 681.708C297.123 685.959 278.258 689.423 261.504 690.519C247.748 691.418 236.407 688.701 236.173 684.45C235.939 680.2 246.901 676.025 260.657 675.125C274.413 674.226 296.655 677.457 296.889 681.708Z" fill="#AEA5A5"/>
<path d="M75.3813 672.095C75.4274 676.605 94.4796 678.965 111.269 678.966C125.054 678.967 136.192 675.313 136.146 670.804C136.1 666.294 124.887 662.638 111.102 662.637C97.3169 662.635 75.3352 667.586 75.3813 672.095Z" fill="#AEA5A5"/>
<path d="M88.1771 679.977C88.2677 688.841 110.043 693.478 129.216 693.48C144.957 693.481 157.645 686.297 157.554 677.433C157.464 668.569 144.629 661.382 128.888 661.381C113.146 661.38 88.0865 671.113 88.1771 679.977Z" fill="#AEA5A5"/>
<path d="M123.158 583.775C111.731 586.181 110.349 618.547 114.402 645.994C117.731 668.531 129.692 684.85 141.119 682.444C152.547 680.038 159.112 659.819 155.784 637.282C152.456 614.746 134.585 581.369 123.158 583.775Z" fill="#AEA5A5"/>
<path d="M73.712 679.934C73.753 683.947 92.8025 686.048 109.592 686.049C123.377 686.05 134.519 682.798 134.478 678.785C134.437 674.771 123.229 671.517 109.443 671.515C95.6582 671.514 73.671 675.92 73.712 679.934Z" fill="#AEA5A5"/>
<path d="M78.3456 688.284C78.3891 692.541 97.44 694.769 114.229 694.77C128.015 694.771 139.155 691.321 139.111 687.065C139.067 682.808 127.857 679.356 114.072 679.354C100.287 679.353 78.3021 684.027 78.3456 688.284Z" fill="#AEA5A5"/>
<path d="M177.163 199.726C234.729 197.148 278.873 255.006 281.421 320.884C283.512 374.974 237.407 418.77 179.841 421.348C122.275 423.926 75.0488 384.31 72.9573 330.22C70.8658 276.13 119.598 202.304 177.163 199.726Z" fill="#AEA5A5"/>
<path d="M173.31 334.962C231.331 332.364 297.835 305.481 277.859 354.11C257.388 403.939 215.257 423.339 181.856 424.835C148.456 426.331 74.9441 407.534 72.9808 347.615C63.2745 296.334 115.289 337.56 173.31 334.962Z" fill="#EBE6E6"/>
<path d="M191.245 363.517C191.42 368.584 183.872 377.666 176.719 377.895C169.567 378.124 161.409 369.545 161.234 364.477C161.059 359.41 168.933 359.773 176.085 359.544C183.237 359.315 191.07 358.449 191.245 363.517Z" fill="url(#paint1_radial_16_450)"/>
<ellipse cx="25.5924" cy="20.8383" rx="25.5924" ry="20.8383" transform="matrix(0.995346 0.0963663 -0.108826 0.994061 82.8491 325.922)" fill="url(#paint2_radial_16_450)" fill-opacity="0.28"/>
<ellipse cx="25.5924" cy="20.8383" rx="25.5924" ry="20.8383" transform="matrix(0.995346 0.0963663 -0.108826 0.994061 222.263 327.841)" fill="url(#paint3_radial_16_450)" fill-opacity="0.28"/>
<path d="M151.676 324.782C151.215 328.068 150.21 330.026 148.885 331.16C147.565 332.29 145.813 332.7 143.629 332.633C141.435 332.566 138.898 332.022 136.086 331.332C135.469 331.181 134.84 331.023 134.2 330.862C131.948 330.296 129.564 329.697 127.14 329.248C124.002 328.667 120.942 328.492 118.19 328.341L118.046 328.333C115.326 328.184 112.952 328.055 111.012 327.602C109.051 327.144 107.679 326.389 106.861 325.087C106.028 323.76 105.662 321.694 106.126 318.381C107.072 311.639 109.098 301.487 113.385 293.509C115.526 289.524 118.207 286.127 121.554 283.955C124.884 281.794 128.905 280.822 133.807 281.73C143.577 283.539 148.514 290.8 150.79 299.458C153.071 308.136 152.619 318.062 151.676 324.782Z" fill="#F6F4F4" stroke="black" stroke-width="1.5"/>
<path d="M143.484 326.741C141.745 337.519 132.491 335.641 123.138 333.752C113.786 331.863 104.822 330.548 106.562 319.77C108.301 308.992 120.086 292.832 129.438 294.721C143.324 297.526 145.224 315.963 143.484 326.741Z" fill="black"/>
<path d="M131.195 311.434C132.159 315.236 130.417 316.884 126.494 317.425C122.57 317.965 118.608 315.322 117.644 311.52C116.679 307.719 119.078 304.199 123.001 303.658C126.925 303.118 130.231 307.633 131.195 311.434Z" fill="#FDF4F4"/>
<path d="M131.195 311.434C132.159 315.236 130.417 316.884 126.494 317.425C122.57 317.965 118.608 315.322 117.644 311.52C116.679 307.719 119.078 304.199 123.001 303.658C126.925 303.118 130.231 307.633 131.195 311.434Z" fill="#FDF4F4"/>
<path d="M131.195 311.434C132.159 315.236 130.417 316.884 126.494 317.425C122.57 317.965 118.608 315.322 117.644 311.52C116.679 307.719 119.078 304.199 123.001 303.658C126.925 303.118 130.231 307.633 131.195 311.434Z" fill="#FDF4F4"/>
<ellipse cx="2.77265" cy="2.74956" rx="2.77265" ry="2.74956" transform="matrix(1.01358 -0.139661 0.238155 0.938759 117.953 320.383)" fill="#D9D9D9"/>
<path d="M119.994 283.336C117.74 281.519 116.71 281.12 115.672 278.345C113.675 273.005 115.588 274.1 114.343 268.229" stroke="black" stroke-width="3" stroke-linecap="round"/>
<path d="M129.607 280.335C127.52 275.698 126.146 271.51 127.588 266.587" stroke="black" stroke-width="3" stroke-linecap="round"/>
<path d="M139.647 282.752C139.521 278.769 138.685 273.397 141.108 269.739" stroke="black" stroke-width="3" stroke-linecap="round"/>
<path d="M147.055 287.277C149.622 283.246 152.132 279.694 153.894 275.4" stroke="black" stroke-width="3" stroke-linecap="round"/>
<path d="M246.051 320.158C246.383 323.446 245.866 325.531 244.84 326.869C243.816 328.205 242.193 328.914 240.032 329.233C237.863 329.553 235.242 329.466 232.321 329.285C231.68 329.245 231.025 329.201 230.358 329.156C228.015 328.999 225.536 328.831 223.053 328.818C219.838 328.801 216.798 329.166 214.063 329.501L213.918 329.519C211.217 329.851 208.858 330.14 206.845 330.038C204.809 329.935 203.278 329.436 202.165 328.306C201.033 327.158 200.182 325.209 199.846 321.893C199.163 315.14 198.724 304.869 201.019 296.325C202.166 292.057 203.982 288.269 206.745 285.559C209.493 282.864 213.207 281.206 218.237 281.233C228.261 281.287 234.837 287.523 239.133 295.576C243.442 303.653 245.369 313.428 246.051 320.158Z" fill="#F6F4F4" stroke="black" stroke-width="1.5"/>
<path d="M238.478 323.509C239.348 334.346 229.826 334.135 220.205 333.93C210.584 333.724 201.481 334.012 200.611 323.175C199.741 312.338 207.434 294.48 217.055 294.685C231.34 294.99 237.609 312.672 238.478 323.509Z" fill="black"/>
<path d="M222.772 310.708C224.626 314.254 223.311 316.17 219.594 317.387C215.876 318.603 211.36 316.715 209.506 313.17C207.652 309.624 209.163 305.764 212.88 304.547C216.598 303.331 220.918 307.163 222.772 310.708Z" fill="#FDF4F4"/>
<path d="M222.772 310.708C224.626 314.254 223.311 316.17 219.594 317.387C215.876 318.603 211.36 316.715 209.506 313.17C207.652 309.624 209.163 305.764 212.88 304.547C216.598 303.331 220.918 307.163 222.772 310.708Z" fill="#FDF4F4"/>
<path d="M222.772 310.708C224.626 314.254 223.311 316.17 219.594 317.387C215.876 318.603 211.36 316.715 209.506 313.17C207.652 309.624 209.163 305.764 212.88 304.547C216.598 303.331 220.918 307.163 222.772 310.708Z" fill="#FDF4F4"/>
<ellipse cx="2.79181" cy="2.72996" rx="2.79181" ry="2.72996" transform="matrix(0.953833 -0.312114 0.461113 0.881823 211.927 321.776)" fill="#D9D9D9"/>
<path d="M205.076 285.218C202.432 283.838 201.326 283.628 199.646 281.098C196.411 276.231 198.549 276.966 195.926 271.447" stroke="black" stroke-width="3" stroke-linecap="round"/>
<path d="M213.784 280.599C210.63 276.434 208.282 272.582 208.52 267.519" stroke="black" stroke-width="3" stroke-linecap="round"/>
<path d="M224.206 281.2C223.131 277.329 221.027 272.226 222.529 268.227" stroke="black" stroke-width="3" stroke-linecap="round"/>
<path d="M232.55 284.322C234.104 279.932 235.716 276.021 236.417 271.517" stroke="black" stroke-width="3" stroke-linecap="round"/>
<path d="M201.533 135.884C213.857 77.5378 230.096 5.66972 249.252 6.2472C268.408 6.82469 271.579 85.8465 270.902 137.975C270.224 190.104 254.147 231.895 234.991 231.318C226.805 231.071 197.202 231.947 191.437 218.863C197.302 176.985 194.637 168.532 201.533 135.884Z" fill="#AEA5A5"/>
<path d="M135.995 247.63L142.867 247.968C142.867 247.968 146.665 247.071 147.904 245.301C149.733 242.688 147.408 240.675 145.072 239.467C141.844 237.799 136.77 240.88 134.252 242.214C131.734 243.547 124.503 250.981 124.503 250.981L135.995 247.63Z" fill="black" stroke="#060606"/>
<path d="M218.921 247.696L212.086 248.482C212.086 248.482 208.237 247.834 206.886 246.148C204.891 243.66 207.079 241.5 209.332 240.142C212.444 238.267 217.708 241.011 220.308 242.178C222.907 243.345 230.607 250.292 230.607 250.292L218.921 247.696Z" fill="black" stroke="#060606"/>
<path d="M204.834 390.758C204.834 390.758 192.614 413.565 180.242 416.267C167.432 412.468 155.063 392.039 155.063 392.039L168.624 396.326L176.813 396.441L186.566 395.588L196.091 394.309L204.834 390.758Z" fill="url(#paint4_linear_16_450)"/>
<rect x="173.069" y="396.191" width="6.46393" height="10.5768" rx="1.75" transform="rotate(-1.86771 173.069 396.191)" fill="#D9D9D9" stroke="#C8BEBE" stroke-width="0.5"/>
<rect x="180.029" y="395.964" width="6.46393" height="10.5768" rx="1.75" transform="rotate(-1.86771 180.029 395.964)" fill="#D9D9D9" stroke="#C8BEBE" stroke-width="0.5"/>
<path d="M212.323 168.137C207.576 207.703 211.339 207.16 225.699 208.527C237.49 209.651 250.897 178.487 255.644 138.92C260.391 99.3544 254.681 66.3693 242.89 65.2461C231.099 64.1229 217.07 128.571 212.323 168.137Z" fill="url(#paint5_radial_16_450)"/>
<path d="M142.38 88.475C109.812 -27.6825 53.5393 80.751 54.3666 106.122C75.7737 121.586 95.934 68.286 97.1223 104.728C104.851 158.576 109.856 238.447 128.933 236.623C137.085 235.844 166.683 234.79 171.583 221.357C163.002 179.95 151.388 120.604 142.38 88.475Z" fill="#AEA5A5"/>
<path d="M133.285 101.395C117.134 1.09851 70.5871 74.7083 71.3609 93.0995C106.093 72.1104 106.299 86.1047 107.411 112.521C112.493 151.64 127.186 206.812 138.152 205.764C142.838 205.315 148.997 207.736 151.662 198.076C146.235 167.957 137.11 125.146 133.285 101.395Z" fill="url(#paint6_radial_16_450)"/>
<path d="M177.211 378.259C177.211 378.259 177.559 388.942 177.783 395.788M177.783 395.788C175.064 395.876 173.533 396.21 170.822 396.015C167.63 395.785 165.895 395.21 162.808 394.429C159.609 393.62 157.78 393.19 154.763 391.921C154.763 391.921 151.834 390.468 149.957 389.538C148.08 388.607 147.027 388.088 145.151 387.154C142.778 385.973 141.449 385.309 139.08 384.12M177.783 395.788C181.471 395.898 183.556 395.83 187.229 395.48C190.346 395.183 192.139 395.1 195.153 394.298C199.007 393.272 204.479 390.299 204.479 390.299L211.356 387.535L217.737 384.788M139.08 384.12C140.198 382.641 141.943 380.332 141.943 380.332C141.943 380.332 145.74 374.667 144.775 375.622C143.811 376.577 141.304 380.801 139.08 384.12ZM139.08 384.12C137.203 386.165 134.274 389.356 134.274 389.356M217.737 384.788C217.737 384.788 215.553 381.88 214.588 379.811C213.71 377.928 212.931 374.785 212.931 374.785M217.737 384.788C217.737 384.788 219.024 388.014 220.388 389.781C221.269 390.923 222.964 392.467 222.964 392.467" stroke="black" stroke-width="2.5" stroke-linecap="round"/>
<path d="M141.643 567.105C149.672 583.228 155.379 603.326 180.175 607.66C204.971 611.994 231.711 576.704 230.461 540.996C229.211 505.287 204.67 477.239 175.648 478.348C146.626 479.458 133.613 550.983 141.643 567.105Z" fill="url(#paint7_radial_16_450)" fill-opacity="0.8"/>
<defs>
<radialGradient id="paint0_radial_16_450" cx="0" cy="0" r="1" gradientUnits="userSpaceOnUse" gradientTransform="translate(274.746 612.542) rotate(-30.37) scale(31.145 37.149)">
<stop stop-color="#EFDCDC"/>
<stop offset="1" stop-color="#AEA5A5"/>
</radialGradient>
<radialGradient id="paint1_radial_16_450" cx="0" cy="0" r="1" gradientUnits="userSpaceOnUse" gradientTransform="translate(177.905 369.001) rotate(-100.045) scale(6.99409 6.68499)">
<stop stop-color="#EAE4E4"/>
<stop offset="0.92456" stop-color="#E56D8C"/>
</radialGradient>
<radialGradient id="paint2_radial_16_450" cx="0" cy="0" r="1" gradientUnits="userSpaceOnUse" gradientTransform="translate(25.5924 20.8383) rotate(90) scale(20.8383 25.5924)">
<stop stop-color="#E3DCDC"/>
<stop offset="0.714895" stop-color="#E5A8A8"/>
</radialGradient>
<radialGradient id="paint3_radial_16_450" cx="0" cy="0" r="1" gradientUnits="userSpaceOnUse" gradientTransform="translate(25.5924 20.8383) rotate(90) scale(20.8383 25.5924)">
<stop stop-color="#E3DCDC"/>
<stop offset="0.714895" stop-color="#E5A8A8"/>
</radialGradient>
<linearGradient id="paint4_linear_16_450" x1="150.902" y1="404.89" x2="211.035" y2="406.184" gradientUnits="userSpaceOnUse">
<stop stop-color="#D06666"/>
<stop offset="1" stop-color="#CD1010"/>
</linearGradient>
<radialGradient id="paint5_radial_16_450" cx="0" cy="0" r="1" gradientUnits="userSpaceOnUse" gradientTransform="translate(238.118 119.747) rotate(101.931) scale(84.3436 31.7997)">
<stop stop-color="#EFDCDC"/>
<stop offset="1" stop-color="#DC9191"/>
</radialGradient>
<radialGradient id="paint6_radial_16_450" cx="0" cy="0" r="1" gradientUnits="userSpaceOnUse" gradientTransform="translate(129.556 137.841) rotate(76.5954) scale(62.1784 45.5697)">
<stop stop-color="#EFDCDC"/>
<stop offset="1" stop-color="#DC9191"/>
</radialGradient>
<radialGradient id="paint7_radial_16_450" cx="0" cy="0" r="1" gradientUnits="userSpaceOnUse" gradientTransform="translate(181.664 527.221) rotate(101.706) scale(77.4276 76.1813)">
<stop stop-color="#EFDCDC"/>
<stop offset="1" stop-color="#BDBABA"/>
</radialGradient>
</defs>
</svg>
