<svg width="758" height="1759" viewBox="0 0 758 1759" fill="none" xmlns="http://www.w3.org/2000/svg">
<path d="M367.63 0H449.194C449.194 0 550.903 127.087 521.746 291C492.589 454.914 449.194 822 449.194 822H351.858C351.858 822 323.018 435.5 290.122 291C257.225 146.5 367.63 0 367.63 0Z" fill="#7D3B0C"/>
<path d="M716 1389C716 1646.09 574.448 1617 387.5 1617C200.552 1617 41 1646.09 41 1389C259 1033.5 80 753.5 387.5 686C674.5 701.5 552.5 1135 716 1389Z" fill="url(#paint0_linear_57_23)"/>
<ellipse cx="379" cy="1466" rx="379" ry="196" fill="#E2B43D"/>
<path d="M468.935 1231.27L541.848 1227.72L581.4 1669.82L472.529 1675.13L468.935 1231.27Z" fill="url(#paint1_linear_57_23)"/>
<ellipse cx="527.123" cy="1665.46" rx="92" ry="88.5" transform="rotate(-2.78805 527.123 1665.46)" fill="url(#paint2_linear_57_23)"/>
<ellipse cx="450.917" cy="923.358" rx="86" ry="184.831" transform="rotate(-9.36064 450.917 923.358)" fill="#E7D361" fill-opacity="0.33"/>
<ellipse cx="450.917" cy="923.358" rx="86" ry="184.831" transform="rotate(-9.36064 450.917 923.358)" fill="#E7D361" fill-opacity="0.33"/>
<defs>
<linearGradient id="paint0_linear_57_23" x1="402" y1="719.5" x2="379" y2="1778.5" gradientUnits="userSpaceOnUse">
<stop stop-color="#EFB82B"/>
<stop offset="1" stop-color="#896918"/>
</linearGradient>
<linearGradient id="paint1_linear_57_23" x1="505.392" y1="1229.5" x2="526.964" y2="1672.47" gradientUnits="userSpaceOnUse">
<stop stop-color="#BE9122"/>
<stop offset="1" stop-color="#967218"/>
</linearGradient>
<linearGradient id="paint2_linear_57_23" x1="527.123" y1="1576.96" x2="527.123" y2="1753.96" gradientUnits="userSpaceOnUse">
<stop stop-color="#BE9122"/>
<stop offset="1" stop-color="#967218"/>
</linearGradient>
</defs>
</svg>
