<svg width="389" height="711" viewBox="0 0 389 711" fill="none" xmlns="http://www.w3.org/2000/svg">
<path d="M257 176.572C257 216.464 241.148 267.15 138.596 272.782C71.6802 276.457 39.0227 233.206 28.8212 176.572C16.6077 108.768 67.2286 39.9998 138.596 39.9998C209.963 39.9998 257 112.291 257 176.572Z" fill="black"/>
<path d="M175.503 63.0938C166.293 88.9867 160.588 79.2981 217.725 99.6215C254.876 112.836 239.119 125.12 257.343 87.7321C266.553 61.8391 259.753 53.2372 246.908 17.5756C204.926 29.4761 184.713 37.2008 175.503 63.0938Z" fill="black"/>
<path d="M102.821 74.0935C112.031 99.9865 117.735 90.2979 60.5984 110.621C23.4468 123.836 39.2038 136.12 20.9798 98.7318C11.7698 72.8388 18.57 64.237 31.4149 28.5753C73.3969 40.4759 93.6106 48.2005 102.821 74.0935Z" fill="black"/>
<path d="M46.6947 92.5458C39.7023 81.2854 41.2652 77.672 45.4386 61.5437C56.3882 63.5727 65.0933 61.9871 72.0856 73.2475C79.078 84.5079 72.1543 87.3306 64.4299 92.1272C56.7055 96.9238 53.6871 103.806 46.6947 92.5458Z" fill="#E54F4F"/>
<path d="M228.065 83.6869C235.057 72.4265 233.494 68.8131 229.321 52.6848C218.371 54.7138 209.666 53.1282 202.674 64.3886C195.681 75.649 202.605 78.4717 210.329 83.2683C218.054 88.0649 221.072 94.9473 228.065 83.6869Z" fill="#E54F4F"/>
<path d="M111 153.5C111 167.307 101.979 172 89 172C76.0213 172 68 167.307 68 153.5C68 139.693 76.0213 122 89 122C101.979 122 111 139.693 111 153.5Z" fill="#817575" fill-opacity="0.95"/>
<path d="M210 145.5C210 159.307 200.979 164 188 164C175.021 164 167 159.307 167 145.5C167 131.693 175.021 114 188 114C200.979 114 210 131.693 210 145.5Z" fill="#817575" fill-opacity="0.95"/>
<path d="M203.874 156.832C204.192 159.584 203.874 161.289 203.2 162.346C202.539 163.382 201.47 163.899 200.006 164.093C198.522 164.29 196.704 164.144 194.637 163.907C194.187 163.855 193.726 163.799 193.257 163.742C191.598 163.541 189.83 163.326 188.065 163.241C185.772 163.13 183.616 163.346 181.696 163.544L181.618 163.552C179.7 163.75 178.067 163.918 176.675 163.777C175.295 163.636 174.286 163.204 173.523 162.292C172.722 161.333 172.071 159.702 171.751 156.925C171.1 151.282 170.535 142.721 171.941 135.682C173.353 128.607 176.668 123.405 183.511 123.737C190.399 124.071 195.14 129.315 198.385 136.174C201.622 143.017 203.226 151.208 203.874 156.832Z" fill="#F6F4F4" stroke="black" stroke-width="1.5"/>
<path d="M198.833 159.408C199.717 168.456 192.993 167.998 186.198 167.541C179.404 167.084 172.988 167.053 172.104 158.004C171.22 148.955 176.204 134.316 182.998 134.773C193.086 135.451 197.949 150.359 198.833 159.408Z" fill="black"/>
<path d="M187.431 148.283C188.828 151.29 187.948 152.846 185.355 153.749C182.762 154.651 179.528 152.945 178.132 149.938C176.735 146.931 177.705 143.762 180.298 142.86C182.891 141.957 186.035 145.276 187.431 148.283Z" fill="#FDF4F4"/>
<path d="M187.431 148.283C188.828 151.29 187.948 152.846 185.355 153.749C182.762 154.651 179.528 152.945 178.132 149.938C176.735 146.931 177.705 143.762 180.298 142.86C182.891 141.957 186.035 145.276 187.431 148.283Z" fill="#FDF4F4"/>
<path d="M187.431 148.283C188.828 151.29 187.948 152.846 185.355 153.749C182.762 154.651 179.528 152.945 178.132 149.938C176.735 146.931 177.705 143.762 180.298 142.86C182.891 141.957 186.035 145.276 187.431 148.283Z" fill="#FDF4F4"/>
<ellipse cx="2.01513" cy="2.19438" rx="2.01513" ry="2.19438" transform="matrix(0.921696 -0.320756 0.432127 0.930434 180.054 157.175)" fill="#D9D9D9"/>
<path d="M107.874 162.832C108.192 165.584 107.874 167.289 107.2 168.346C106.539 169.382 105.47 169.899 104.006 170.093C102.522 170.29 100.704 170.144 98.6367 169.907C98.1873 169.855 97.7265 169.799 97.2569 169.742C95.5982 169.541 93.8297 169.326 92.0655 169.241C89.772 169.13 87.6158 169.346 85.6961 169.544L85.6177 169.552C83.7004 169.75 82.0672 169.918 80.6749 169.777C79.2949 169.636 78.2856 169.204 77.5234 168.292C76.7219 167.333 76.0709 165.702 75.7507 162.925C75.1001 157.282 74.5351 148.721 75.9405 141.682C77.3533 134.607 80.6678 129.405 87.5111 129.737C94.3994 130.071 99.1405 135.315 102.385 142.174C105.622 149.017 107.226 157.208 107.874 162.832Z" fill="#F6F4F4" stroke="black" stroke-width="1.5"/>
<path d="M102.833 165.408C103.717 174.456 96.9928 173.998 90.1985 173.541C83.4041 173.084 76.9879 173.053 76.1041 164.004C75.2203 154.955 80.2037 140.316 86.998 140.773C97.0858 141.451 101.949 156.359 102.833 165.408Z" fill="black"/>
<path d="M91.4314 154.283C92.828 157.29 91.9482 158.846 89.3553 159.749C86.7623 160.651 83.5282 158.945 82.1317 155.938C80.7351 152.931 81.705 149.762 84.298 148.86C86.8909 147.957 90.0349 151.276 91.4314 154.283Z" fill="#FDF4F4"/>
<path d="M91.4314 154.283C92.828 157.29 91.9482 158.846 89.3553 159.749C86.7623 160.651 83.5282 158.945 82.1317 155.938C80.7351 152.931 81.705 149.762 84.298 148.86C86.8909 147.957 90.0349 151.276 91.4314 154.283Z" fill="#FDF4F4"/>
<path d="M91.4314 154.283C92.828 157.29 91.9482 158.846 89.3553 159.749C86.7623 160.651 83.5282 158.945 82.1317 155.938C80.7351 152.931 81.705 149.762 84.298 148.86C86.8909 147.957 90.0349 151.276 91.4314 154.283Z" fill="#FDF4F4"/>
<ellipse cx="2.01513" cy="2.19438" rx="2.01513" ry="2.19438" transform="matrix(0.921696 -0.320756 0.432127 0.930434 84.0542 163.175)" fill="#D9D9D9"/>
<path d="M144.993 203.281C144.58 204.176 144.459 205.276 144.265 206.222C143.959 207.715 143.633 209.198 143.15 210.646C142.911 211.363 142.522 211.978 142.226 212.669C141.796 213.674 141.463 214.693 140.857 215.622C139.835 217.19 138.42 219.021 136.76 219.987C133.388 221.951 129.421 223.196 125.717 224.38C123.614 225.053 121.932 224.477 119.832 223.973C117.448 223.401 115.226 222.461 113.119 221.242C111.961 220.573 110.625 219.954 109.692 218.991C108.455 217.715 107.375 216.245 106.206 214.907" stroke="#D8C3A7" stroke-width="3" stroke-linecap="round"/>
<path d="M183.261 214.187C182.439 214.717 181.742 215.571 181.07 216.259C180.009 217.344 178.937 218.41 177.757 219.364C177.173 219.836 176.523 220.144 175.907 220.565C175.011 221.176 174.187 221.852 173.19 222.307C171.508 223.075 169.365 223.855 167.494 223.784C163.692 223.639 159.801 222.579 156.155 221.607C154.085 221.056 153.035 219.684 151.608 218.151C149.988 216.412 148.7 214.449 147.656 212.316C147.083 211.144 146.338 209.919 146.105 208.62C145.798 206.9 145.724 205.101 145.505 203.364" stroke="#D8C3A7" stroke-width="3" stroke-linecap="round"/>
<path d="M159.766 191.173C159.901 198.278 156.767 199.542 145.117 205.93C137.006 202.061 128.937 200.474 128.802 193.369C128.668 186.263 135.876 186.799 144.752 186.631C153.627 186.463 159.632 184.068 159.766 191.173Z" fill="#E54F4F"/>
<path d="M142.642 280.962C135.158 300.372 123.233 309.926 107.823 355.215C92.4125 400.504 71.2494 412.642 73.6851 422.941C76.1207 433.241 68.8812 438.946 63.2248 437.111C44.4668 431.024 64.2184 403.248 76.0585 368.452C91.4689 323.163 88.9012 270.99 142.642 280.962Z" fill="black"/>
<path d="M201.349 223C200.923 231.767 186.416 240.776 188.979 260.064C192.823 288.998 182.613 296.495 193.5 297.498C204.387 298.501 175.587 301.675 164.587 304.471C128.11 313.742 131.469 299.319 129.501 284.5C126.938 265.212 101.674 251.293 201.349 223Z" fill="black"/>
<path d="M178.122 282.352C187.414 301.265 200.206 310.084 219.843 354.333C239.481 398.581 261.729 409.429 260.271 419.844C258.813 430.259 266.57 435.519 272.038 433.353C290.17 426.171 267.855 399.645 252.767 365.648C233.13 321.4 230.771 269.22 178.122 282.352Z" fill="black"/>
<path d="M217.097 434C236.921 440.12 229.546 484.336 276.5 496.116C323.5 503.999 307 507.828 353.139 489.499C399.277 471.17 390.279 474.115 378.139 496.116C356.145 516.116 315.094 535.279 268.14 523.499C221.185 511.72 187.205 501.107 217.097 434Z" fill="black"/>
<path d="M129.542 474.351C128.51 499.432 137.43 514.367 132.68 572.24C127.93 630.112 146.14 650.977 138.265 662.271C130.39 673.564 135.852 682.52 143.229 682.15C167.692 680.921 158.823 642.19 162.473 597.725C167.224 539.853 195.939 479.573 129.542 474.351Z" fill="black"/>
<path d="M198.074 476.435C197.083 501.313 206.24 516.152 201.528 573.553C196.817 630.954 215.488 651.697 207.464 662.882C199.441 674.067 205.048 682.965 212.589 682.615C237.598 681.455 228.434 643.01 232.054 598.908C236.765 541.506 265.974 481.775 198.074 476.435Z" fill="black"/>
<path d="M163.758 268.272C212.503 267.436 238.34 385.587 240.152 452.102C253.849 516.823 228.715 515.988 179.97 516.823C131.225 517.658 117.94 462.389 116.128 395.874C114.317 329.36 115.013 269.107 163.758 268.272Z" fill="black"/>
<path d="M258.258 451.532C269.823 458.402 280.328 444.333 288.095 449.653C297.953 446.795 294.552 438.616 290.794 430.546C286.639 421.625 277.731 417.314 267.873 420.172C258.015 423.03 256.404 439.82 258.258 451.532Z" fill="black"/>
<path d="M292.414 437.61C292.414 437.61 294.183 440.789 294.075 442.875C293.978 444.752 292.796 446.462 292.293 447.049C291.789 447.636 289.407 449.206 287.425 448.46C285.429 447.709 283.433 442.826 283.735 443.783C284.037 444.74 283.696 447.656 282.255 448.914C281.243 449.797 279.009 449.855 279.009 449.855C279.009 449.855 277.353 450.795 276.17 450.679C274.85 450.549 273.899 450.185 272.981 448.991C272.158 447.921 272.226 446.598 271.924 445.641C271.622 444.683 271.297 448.25 270.547 449.697C269.779 451.177 269.332 452.115 268.056 453.031C266.705 454.002 265.689 454.497 264 454.207C262.68 453.981 261.866 453.556 260.811 452.52C259.697 451.426 259.312 450.457 258.792 448.926C258.21 447.214 258.244 444.383 258.244 444.383" stroke="white" stroke-width="2" stroke-linecap="round"/>
<path d="M42.998 450.379C52.3191 460.077 66.1879 449.309 72.2596 456.504C82.5226 456.371 81.4202 447.582 79.9436 438.803C78.3113 429.098 70.8712 422.573 60.6082 422.706C50.3452 422.839 44.3257 438.595 42.998 450.379Z" fill="black"/>
<path d="M79.627 446.043C79.627 446.043 80.4866 449.579 79.8277 451.561C79.2347 453.344 77.6404 454.678 76.9991 455.11C76.3577 455.542 73.6436 456.422 71.931 455.176C70.2066 453.921 69.5821 448.683 69.6186 449.686C69.6552 450.689 68.5509 453.409 66.8265 454.238C65.6166 454.82 63.4478 454.282 63.4478 454.282C63.4478 454.282 61.6006 454.747 60.4914 454.321C59.2539 453.844 58.4335 453.24 57.8662 451.846C57.3577 450.596 57.775 449.338 57.7385 448.335C57.702 447.332 56.4403 450.684 55.3322 451.879C54.1983 453.101 53.5177 453.887 52.0447 454.43C50.4834 455.006 49.3729 455.213 47.8213 454.485C46.6096 453.916 45.9374 453.29 45.1961 452.01C44.4134 450.659 44.3 449.623 44.2055 448.009C44.0998 446.204 44.8859 443.484 44.8859 443.484" stroke="white" stroke-width="2" stroke-linecap="round"/>
<path d="M127.858 691.295C135.866 703.357 147.782 689.965 152.999 698.913C161.817 698.747 160.87 687.817 159.601 676.899C158.198 664.829 151.806 656.714 142.988 656.88C134.17 657.045 128.998 676.641 127.858 691.295Z" fill="black"/>
<path d="M197.096 691.016C203.794 703.852 217.05 691.785 221.299 701.231C230.085 701.991 230.29 691.022 230.175 680.031C230.047 667.88 224.541 659.139 215.754 658.379C206.968 657.618 199.768 676.563 197.096 691.016Z" fill="black"/>
<path d="M159.329 685.904C159.329 685.904 160.067 690.301 159.501 692.765C158.992 694.983 157.622 696.642 157.071 697.179C156.52 697.716 154.188 698.811 152.716 697.261C151.235 695.7 150.698 689.186 150.73 690.434C150.761 691.681 149.812 695.064 148.331 696.095C147.291 696.819 145.428 696.15 145.428 696.15C145.428 696.15 143.841 696.729 142.888 696.198C141.824 695.605 141.119 694.854 140.632 693.12C140.195 691.565 140.554 690.001 140.522 688.753C140.491 687.506 139.407 691.674 138.455 693.161C137.481 694.681 136.896 695.658 135.63 696.334C134.289 697.051 133.335 697.308 132.002 696.402C130.96 695.695 130.383 694.915 129.746 693.324C129.073 691.644 128.976 690.355 128.895 688.348C128.804 686.103 129.479 682.72 129.479 682.72" stroke="white" stroke-width="2" stroke-linecap="round"/>
<path d="M228.959 688.957C228.959 688.957 229.232 693.407 228.41 695.799C227.671 697.951 226.134 699.457 225.53 699.934C224.926 700.41 222.492 701.254 221.191 699.558C219.882 697.85 220.032 691.316 219.932 692.56C219.832 693.804 218.534 697.069 216.952 697.938C215.842 698.549 214.059 697.688 214.059 697.688C214.059 697.688 212.42 698.097 211.528 697.469C210.533 696.768 209.911 695.948 209.608 694.171C209.337 692.579 209.857 691.061 209.957 689.818C210.057 688.574 208.541 692.605 207.439 693.983C206.31 695.394 205.626 696.303 204.297 696.843C202.887 697.415 201.911 697.571 200.681 696.53C199.72 695.717 199.227 694.882 198.761 693.232C198.268 691.491 198.307 690.199 198.437 688.194C198.582 685.952 199.609 682.659 199.609 682.659" stroke="white" stroke-width="2" stroke-linecap="round"/>
<path d="M49.6263 454.839L51.7704 450.695C51.7704 450.695 52.4091 448.084 51.8734 446.798C51.0822 444.898 49.4007 445.741 48.1214 446.829C46.3541 448.331 46.4489 452.373 46.3974 454.321C46.346 456.269 48.0138 462.925 48.0138 462.925L49.6263 454.839Z" fill="white" stroke="#060606"/>
<path d="M61.0418 455.839L63.1859 451.695C63.1859 451.695 63.8246 449.084 63.2889 447.798C62.4977 445.898 60.8162 446.741 59.5369 447.829C57.7696 449.331 57.8644 453.373 57.813 455.321C57.7615 457.269 59.4293 463.925 59.4293 463.925L61.0418 455.839Z" fill="white" stroke="#060606"/>
<path d="M74.0418 454.839L76.1859 450.695C76.1859 450.695 76.8246 448.084 76.2889 446.798C75.4977 444.898 73.8162 445.741 72.5369 446.829C70.7696 448.331 70.8644 452.373 70.813 454.321C70.7615 456.269 72.4293 462.925 72.4293 462.925L74.0418 454.839Z" fill="white" stroke="#060606"/>
<path d="M133.964 694.804L135.801 691.095C135.801 691.095 136.349 688.76 135.89 687.609C135.212 685.909 133.771 686.663 132.675 687.636C131.16 688.98 131.241 692.597 131.197 694.34C131.153 696.083 132.582 702.038 132.582 702.038L133.964 694.804Z" fill="white" stroke="#060606"/>
<path d="M202.964 698.804L204.801 695.095C204.801 695.095 205.349 692.76 204.89 691.609C204.212 689.909 202.771 690.663 201.675 691.636C200.16 692.98 200.241 696.597 200.197 698.34C200.153 700.083 201.582 706.038 201.582 706.038L202.964 698.804Z" fill="white" stroke="#060606"/>
<path d="M143.746 695.698L145.583 691.99C145.583 691.99 146.13 689.654 145.671 688.503C144.993 686.804 143.553 687.558 142.456 688.531C140.942 689.875 141.023 693.491 140.979 695.234C140.935 696.978 142.364 702.933 142.364 702.933L143.746 695.698Z" fill="white" stroke="#060606"/>
<path d="M212.746 699.698L214.583 695.99C214.583 695.99 215.13 693.654 214.671 692.503C213.993 690.804 212.553 691.558 211.456 692.531C209.942 693.875 210.023 697.491 209.979 699.234C209.935 700.978 211.364 706.933 211.364 706.933L212.746 699.698Z" fill="white" stroke="#060606"/>
<path d="M154.886 694.804L156.723 691.095C156.723 691.095 157.271 688.76 156.812 687.609C156.134 685.909 154.693 686.663 153.596 687.636C152.082 688.98 152.163 692.597 152.119 694.34C152.075 696.083 153.504 702.038 153.504 702.038L154.886 694.804Z" fill="white" stroke="#060606"/>
<path d="M223.886 698.804L225.723 695.095C225.723 695.095 226.271 692.76 225.812 691.609C225.134 689.909 223.693 690.663 222.596 691.636C221.082 692.98 221.163 696.597 221.119 698.34C221.075 700.083 222.504 706.038 222.504 706.038L223.886 698.804Z" fill="white" stroke="#060606"/>
<path d="M289.204 449.847L286.732 445.889C286.732 445.889 285.885 443.338 286.315 442.013C286.951 440.056 288.695 440.761 290.058 441.741C291.94 443.096 292.172 447.132 292.38 449.07C292.588 451.008 291.463 457.777 291.463 457.777L289.204 449.847Z" fill="white" stroke="#060606"/>
<path d="M277.906 451.764L275.434 447.806C275.434 447.806 274.587 445.255 275.018 443.93C275.653 441.973 277.397 442.678 278.76 443.658C280.642 445.013 280.874 449.049 281.082 450.987C281.291 452.925 280.165 459.694 280.165 459.694L277.906 451.764Z" fill="white" stroke="#060606"/>
<path d="M264.867 451.815L262.396 447.857C262.396 447.857 261.549 445.306 261.979 443.981C262.615 442.024 264.358 442.728 265.721 443.709C267.604 445.064 267.835 449.1 268.044 451.038C268.252 452.976 267.126 459.745 267.126 459.745L264.867 451.815Z" fill="white" stroke="#060606"/>
</svg>
