<svg width="3290" height="3118" viewBox="0 0 3290 3118" fill="none" xmlns="http://www.w3.org/2000/svg">
<rect width="105.987" height="1924.36" rx="52.9937" transform="matrix(-0.0376082 -0.986729 1.01199 -0.00522195 1315.5 2578.94)" fill="#D1AC8F"/>
<ellipse cx="150.721" cy="187.089" rx="150.721" ry="187.089" transform="matrix(0.0245671 -0.984619 1.013 0.0534492 1250.76 2621.77)" fill="#D1AC8F"/>
<rect width="105.85" height="1926.77" rx="52.9252" transform="matrix(-0.303769 -0.952746 0.966475 -0.25676 1305.01 2823.58)" fill="#D1AC8F"/>
<ellipse cx="150.43" cy="187.439" rx="150.43" ry="187.439" transform="matrix(-0.303769 -0.952746 0.966475 -0.25676 1147.55 2965.96)" fill="#D1AC8F"/>
<rect x="2489.76" width="384.202" height="2003.81" rx="50" fill="#CDA17F"/>
<rect x="2148.96" y="101.777" width="384.202" height="1841.56" rx="50" fill="#FB0000"/>
<rect x="1774.01" y="162.244" width="384.202" height="1732" rx="50" fill="#FBD500"/>
<rect x="1389.81" y="287.969" width="384.202" height="1613.46" rx="50" fill="#0075FB"/>
<rect x="1005.61" y="435.845" width="384.202" height="1394.94" rx="50" fill="#F69413"/>
<rect x="621.404" y="521.458" width="384.202" height="1263.83" rx="50" fill="#9013F6"/>
<rect x="246.451" y="598.089" width="384.202" height="1109.97" rx="50" fill="#1CE11C"/>
<ellipse cx="2341.06" cy="1737.69" rx="78.9749" ry="63.7603" fill="#888383"/>
<ellipse cx="1961.13" cy="1737.69" rx="78.9749" ry="63.7603" fill="#888383"/>
<ellipse cx="1591.16" cy="1707.76" rx="78.9749" ry="63.7603" fill="#888383"/>
<ellipse cx="1197.71" cy="1674.23" rx="78.9749" ry="63.7603" fill="#888383"/>
<ellipse cx="813.505" cy="1643.7" rx="78.9749" ry="63.7603" fill="#888383"/>
<ellipse cx="438.552" cy="1579.64" rx="78.9749" ry="63.7603" fill="#888383"/>
<ellipse cx="2341.06" cy="259.531" rx="78.9749" ry="63.7603" fill="#888383"/>
<ellipse cx="1961.13" cy="351.73" rx="78.9749" ry="63.7603" fill="#888383"/>
<ellipse cx="1586.18" cy="457.697" rx="78.9749" ry="63.7603" fill="#888383"/>
<ellipse cx="1201.98" cy="597.79" rx="78.9749" ry="63.7603" fill="#888383"/>
<ellipse cx="817.774" cy="705.554" rx="78.9749" ry="63.7603" fill="#888383"/>
<ellipse cx="438.552" cy="797.752" rx="78.9749" ry="63.7603" fill="#888383"/>
<rect y="545" width="256" height="1264" rx="50" fill="#CDA17F"/>
</svg>
