<svg width="185" height="338" viewBox="0 0 185 338" fill="none" xmlns="http://www.w3.org/2000/svg">
<path d="M74.4971 113.916C70.5739 124.17 64.3221 129.217 56.243 153.142C48.1639 177.068 37.069 183.479 38.3459 188.92C39.6228 194.362 35.8274 197.376 32.8619 196.406C23.0279 193.19 33.3828 178.517 39.5901 160.135C47.6692 136.21 46.3231 108.648 74.4971 113.916Z" fill="url(#paint0_radial_16_86)"/>
<path d="M93.0975 114.65C97.9692 124.642 104.676 129.301 114.971 152.676C125.266 176.052 136.929 181.782 136.165 187.284C135.401 192.786 139.468 195.565 142.334 194.421C151.84 190.627 140.141 176.614 132.231 158.654C121.936 135.278 120.7 107.713 93.0975 114.65Z" fill="url(#paint1_radial_16_86)"/>
<path d="M138.332 184.707C131.36 189.687 132.168 199.371 135.359 204.905C138.55 210.44 138.967 196.791 139.101 195.272C139.235 193.754 140.28 188.879 149.008 200.659C157.737 212.438 145.305 179.726 138.332 184.707Z" fill="url(#paint2_radial_16_86)"/>
<path d="M141.944 184.138C151.154 184.878 157.366 193.145 158.695 199.168C160.023 205.191 150 194.277 148.814 193.105C147.627 191.933 143.319 188.461 144.57 202.2C145.821 215.939 132.734 183.398 141.944 184.138Z" fill="url(#paint3_radial_16_86)"/>
<path d="M67.6295 216.079C67.0888 229.329 71.7652 237.219 69.2748 267.792C66.7843 298.364 76.3313 309.387 72.2027 315.353C68.0741 321.319 70.9376 326.051 74.805 325.855C87.6303 325.206 82.9808 304.745 84.8942 281.255C87.3846 250.682 102.439 218.838 67.6295 216.079Z" fill="url(#paint4_radial_16_86)"/>
<path d="M103.558 217.18C103.038 230.323 107.839 238.162 105.369 268.485C102.899 298.809 112.687 309.767 108.481 315.676C104.275 321.585 107.214 326.286 111.168 326.101C124.279 325.488 119.474 305.178 121.372 281.88C123.842 251.556 139.155 220.001 103.558 217.18Z" fill="url(#paint5_radial_16_86)"/>
<path d="M80.604 49.8656C89.7432 49.4745 98.4141 72.3511 100.339 101.086C102.264 129.821 98.7098 156.845 89.5706 157.236C80.4315 157.627 71.4623 134.65 69.5375 105.915C67.6127 77.1803 71.4648 50.2567 80.604 49.8656Z" fill="url(#paint6_radial_16_86)"/>
<path d="M85.5678 107.212C111.123 106.77 124.668 169.187 125.618 204.325C132.799 238.516 119.622 238.075 94.0671 238.516C68.512 238.957 61.5472 209.76 60.5973 174.622C59.6475 139.483 60.0127 107.653 85.5678 107.212Z" fill="url(#paint7_radial_16_86)"/>
<path d="M92.9725 1.91347C107.244 0.83782 119.636 10.8102 121.217 24.2102C122.797 37.6102 115.919 50.7353 101.647 51.8109C87.3751 52.8866 74.5238 42.8957 72.9429 29.4957C71.362 16.0957 78.7006 2.98912 92.9725 1.91347Z" fill="url(#paint8_radial_16_86)"/>
<path d="M49.6959 2.67861C63.9678 1.60296 76.359 11.5753 77.9399 24.9753C79.5208 38.3753 72.6423 51.5004 58.3704 52.576C44.0985 53.6517 31.2472 43.6608 29.6663 30.2608C28.0854 16.8608 35.4239 3.75426 49.6959 2.67861Z" fill="url(#paint9_radial_16_86)"/>
<path d="M5.72607 315.026C20.2273 309.088 40.6249 308.813 54.1755 310.546C67.7261 312.279 84.302 311.56 82.4067 321.025C80.5114 330.49 24.942 328.948 11.3914 327.214C-2.15925 325.481 85.2801 318.053 5.72607 315.026Z" fill="url(#paint10_radial_16_86)"/>
<path d="M2.14133 321.976C15.1021 314.067 41.9751 315.531 54.726 315.666C67.477 315.801 82.5809 314.277 82.4853 320.034C82.3898 325.792 26.9782 327.169 14.2273 327.034C1.47635 326.899 75.7573 318.515 2.14133 321.976Z" fill="url(#paint11_radial_16_86)"/>
<path d="M181.276 325.148C168.26 317.315 148.222 314.254 134.501 314.108C120.779 313.963 104.601 310.987 104.442 320.572C104.283 330.157 159.363 336.237 173.085 336.382C186.807 336.527 102.248 317.25 181.276 325.148Z" fill="url(#paint12_radial_16_86)"/>
<path d="M183.32 332.486C172.244 322.921 145.454 320.688 132.862 319.077C120.27 317.467 105.715 313.899 104.577 319.585C103.438 325.27 157.738 334.206 170.33 335.816C182.922 337.427 111.531 319.008 183.32 332.486Z" fill="url(#paint13_radial_16_86)"/>
<path d="M148.164 60.8346C149.807 77.5713 122.13 92.422 86.2376 94.672C50.345 96.9219 15.9138 89.2248 14.2715 72.4881C12.6292 55.7514 40.3946 40.3596 76.2873 38.1097C112.18 35.8597 146.522 44.0979 148.164 60.8346Z" fill="url(#paint14_radial_16_86)"/>
<path d="M141.999 69.3469C143.561 85.268 123.076 94.3793 88.7346 103.896C57.0512 99.7149 25.4683 95.7722 23.906 79.8511C22.3438 63.93 51.9186 66.3629 83.5817 64.3781C115.245 62.3932 140.437 53.4258 141.999 69.3469Z" fill="#A0EF8C"/>
<path d="M112.126 38.3602C112.132 40.0274 111.734 40.989 111.153 41.5621C110.564 42.1427 109.675 42.435 108.446 42.5071C107.214 42.5794 105.742 42.4258 104.077 42.2065C103.714 42.1588 103.343 42.108 102.965 42.0563C101.63 41.8736 100.208 41.679 98.7767 41.5651C96.917 41.4171 95.1388 41.4782 93.5537 41.5362L93.4871 41.5387C91.9059 41.5966 90.5562 41.646 89.431 41.5095C88.2936 41.3715 87.5404 41.0592 87.0517 40.5176C86.5605 39.9732 86.1922 39.0362 86.1866 37.34C86.1749 33.8033 86.5017 28.4883 88.2707 24.1975C89.1525 22.0587 90.3765 20.2145 92.0561 18.9618C93.7227 17.7188 95.8767 17.028 98.6965 17.2525C104.301 17.6985 107.618 21.1282 109.582 25.4113C111.563 29.7335 112.115 34.8486 112.126 38.3602Z" fill="#F6F4F4" stroke="black" stroke-width="1.5"/>
<path d="M107.917 39.8094C107.806 45.4973 102.361 44.98 96.8584 44.4614C91.3559 43.9429 86.1227 43.7034 86.234 38.0156C86.3454 32.3278 91.759 23.3454 97.2615 23.864C105.431 24.6338 108.029 34.1216 107.917 39.8094Z" fill="black"/>
<path d="M99.6361 32.4631C100.499 34.3911 99.6379 35.3342 97.4389 35.8095C95.2399 36.2848 92.7576 35.1072 91.8946 33.1793C91.0316 31.2514 92.1147 29.3032 94.3137 28.8278C96.5127 28.3525 98.7731 30.5352 99.6361 32.4631Z" fill="#FDF4F4"/>
<path d="M99.6361 32.4631C100.499 34.3911 99.6379 35.3342 97.4389 35.8095C95.2399 36.2848 92.7576 35.1072 91.8946 33.1793C91.0316 31.2514 92.1147 29.3032 94.3137 28.8278C96.5127 28.3525 98.7731 30.5352 99.6361 32.4631Z" fill="#FDF4F4"/>
<path d="M99.6361 32.4631C100.499 34.3911 99.6379 35.3342 97.4389 35.8095C95.2399 36.2848 92.7576 35.1072 91.8946 33.1793C91.0316 31.2514 92.1147 29.3032 94.3137 28.8278C96.5127 28.3525 98.7731 30.5352 99.6361 32.4631Z" fill="#FDF4F4"/>
<ellipse cx="1.58929" cy="1.46614" rx="1.58929" ry="1.46614" transform="matrix(0.991114 -0.21423 0.399672 0.892861 92.7979 37.77)" fill="#D9D9D9"/>
<path d="M90.9286 18.4152C89.4909 17.5825 88.8689 17.4258 88.0479 16.0349C86.4683 13.3587 87.6521 13.833 86.4592 10.8433" stroke="black" stroke-width="3" stroke-linecap="round"/>
<path d="M96.1789 16.3791C94.6059 14.0724 93.4768 11.9638 93.8979 9.33374" stroke="black" stroke-width="3" stroke-linecap="round"/>
<path d="M102.118 17.1381C101.72 15.074 100.801 12.3234 101.887 10.3024" stroke="black" stroke-width="3" stroke-linecap="round"/>
<path d="M106.724 19.1228C107.862 16.9003 109.005 14.9299 109.661 12.6113" stroke="black" stroke-width="3" stroke-linecap="round"/>
<path d="M69.6358 39.3392C69.9058 40.9906 69.6644 41.983 69.1791 42.6098C68.6868 43.2457 67.851 43.6263 66.6419 43.8228C65.4307 44.0196 63.9451 44.0166 62.2588 43.9681C61.8919 43.9575 61.5157 43.9448 61.1325 43.9318C59.7793 43.8861 58.3377 43.8374 56.9004 43.8696C55.0327 43.9115 53.279 44.1525 51.7159 44.3709L51.6498 44.3801C50.0909 44.598 48.7595 44.7841 47.6211 44.7628C46.4696 44.7412 45.6714 44.5074 45.1002 44.0195C44.5274 43.5301 44.0141 42.6399 43.7393 40.9595C43.1661 37.453 42.6462 32.1491 43.719 27.7149C44.2537 25.5047 45.1746 23.5517 46.6416 22.1387C48.0975 20.7363 50.1255 19.8319 52.9601 19.7683C58.5943 19.642 62.4298 22.7097 65.056 26.7567C67.7068 30.8415 69.0666 35.858 69.6358 39.3392Z" fill="#F6F4F4" stroke="black" stroke-width="1.5"/>
<path d="M65.6886 41.2038C66.4817 46.8569 60.9985 46.8963 55.4581 46.9403C49.9177 46.9843 44.6889 47.2778 43.8958 41.6247C43.1028 35.9716 47.0459 26.5126 52.5863 26.4686C60.8123 26.4032 64.8956 35.5507 65.6886 41.2038Z" fill="black"/>
<path d="M56.3074 34.7571C57.4696 36.5819 56.7653 37.6047 54.6596 38.2993C52.5538 38.9939 49.9046 38.0778 48.7424 36.253C47.5801 34.4282 48.345 32.3859 50.4507 31.6913C52.5564 30.9967 55.1452 32.9323 56.3074 34.7571Z" fill="#FDF4F4"/>
<path d="M56.3074 34.7571C57.4696 36.5819 56.7653 37.6047 54.6596 38.2993C52.5538 38.9939 49.9046 38.0778 48.7424 36.253C47.5801 34.4282 48.345 32.3859 50.4507 31.6913C52.5564 30.9967 55.1452 32.9323 56.3074 34.7571Z" fill="#FDF4F4"/>
<path d="M56.3074 34.7571C57.4696 36.5819 56.7653 37.6047 54.6596 38.2993C52.5538 38.9939 49.9046 38.0778 48.7424 36.253C47.5801 34.4282 48.345 32.3859 50.4507 31.6913C52.5564 30.9967 55.1452 32.9323 56.3074 34.7571Z" fill="#FDF4F4"/>
<ellipse cx="1.59289" cy="1.46239" rx="1.59289" ry="1.46239" transform="matrix(0.946921 -0.312358 0.539638 0.84725 50.3674 40.7151)" fill="#D9D9D9"/>
<path d="M45.4393 21.7063C43.881 21.0263 43.2392 20.934 42.2039 19.6376C40.212 17.1433 41.4616 17.4937 39.8035 14.6492" stroke="black" stroke-width="3" stroke-linecap="round"/>
<path d="M50.3237 19.1538C48.397 17.0255 46.9421 15.0485 46.9421 12.397" stroke="black" stroke-width="3" stroke-linecap="round"/>
<path d="M56.3354 19.304C55.6122 17.297 54.2644 14.6619 55.0203 12.5471" stroke="black" stroke-width="3" stroke-linecap="round"/>
<path d="M61.22 20.8054C61.995 18.4855 62.8166 16.415 63.0986 14.0486" stroke="black" stroke-width="3" stroke-linecap="round"/>
<path d="M69.6355 39.3392C69.9055 40.9906 69.6642 41.983 69.1788 42.6098C68.6865 43.2457 67.8508 43.6263 66.6417 43.8228C65.4305 44.0196 63.9449 44.0166 62.2586 43.9681C61.8916 43.9575 61.5155 43.9448 61.1323 43.9318C59.7791 43.8861 58.3375 43.8374 56.9001 43.8696C55.0324 43.9115 53.2787 44.1525 51.7157 44.3709L51.6495 44.3801C50.0907 44.598 48.7592 44.7841 47.6208 44.7628C46.4694 44.7412 45.6711 44.5074 45.1 44.0195C44.5271 43.5301 44.0138 42.6399 43.7391 40.9595C43.1658 37.453 42.646 32.1491 43.7187 27.7149C44.2534 25.5047 45.1743 23.5517 46.6413 22.1387C48.0973 20.7363 50.1253 19.8319 52.9598 19.7683C58.5941 19.642 62.4295 22.7097 65.0557 26.7567C67.7065 30.8415 69.0664 35.858 69.6355 39.3392Z" fill="#F6F4F4" stroke="black" stroke-width="1.5"/>
<path d="M65.6884 41.2038C66.4814 46.8569 60.9983 46.8963 55.4579 46.9403C49.9175 46.9843 44.6886 47.2778 43.8956 41.6247C43.1026 35.9716 47.0457 26.5126 52.5861 26.4686C60.812 26.4032 64.8953 35.5507 65.6884 41.2038Z" fill="black"/>
<path d="M56.3072 34.7571C57.4694 36.5819 56.765 37.6047 54.6593 38.2993C52.5536 38.9939 49.9044 38.0778 48.7421 36.253C47.5799 34.4282 48.3447 32.3859 50.4504 31.6913C52.5562 30.9967 55.1449 32.9323 56.3072 34.7571Z" fill="#FDF4F4"/>
<path d="M56.3072 34.7571C57.4694 36.5819 56.765 37.6047 54.6593 38.2993C52.5536 38.9939 49.9044 38.0778 48.7421 36.253C47.5799 34.4282 48.3447 32.3859 50.4504 31.6913C52.5562 30.9967 55.1449 32.9323 56.3072 34.7571Z" fill="#FDF4F4"/>
<path d="M56.3072 34.7571C57.4694 36.5819 56.765 37.6047 54.6593 38.2993C52.5536 38.9939 49.9044 38.0778 48.7421 36.253C47.5799 34.4282 48.3447 32.3859 50.4504 31.6913C52.5562 30.9967 55.1449 32.9323 56.3072 34.7571Z" fill="#FDF4F4"/>
<ellipse cx="1.59289" cy="1.46239" rx="1.59289" ry="1.46239" transform="matrix(0.946921 -0.312358 0.539638 0.84725 50.3672 40.7151)" fill="#D9D9D9"/>
<path d="M45.4391 21.7063C43.8808 21.0263 43.239 20.934 42.2037 19.6376C40.2118 17.1433 41.4613 17.4937 39.8032 14.6492" stroke="black" stroke-width="3" stroke-linecap="round"/>
<path d="M50.3234 19.1538C48.3968 17.0255 46.9419 15.0485 46.9419 12.397" stroke="black" stroke-width="3" stroke-linecap="round"/>
<path d="M56.3351 19.304C55.612 17.297 54.2641 14.6619 55.0201 12.5471" stroke="black" stroke-width="3" stroke-linecap="round"/>
<path d="M61.2197 20.8054C61.9948 18.4855 62.8164 16.415 63.0983 14.0486" stroke="black" stroke-width="3" stroke-linecap="round"/>
<path d="M41.7449 87.3617L43.678 84.1306L45.3474 80.6886V76.1228M45.3474 76.1228L43.678 72.119M45.3474 76.1228C45.3474 76.1228 47.054 79.0878 48.6864 80.6886C50.2674 82.239 51.553 82.809 53.4312 84.1306C56.3566 86.1889 57.711 87.6865 61.0757 89.2583C64.7865 90.9918 67.2302 91.5322 71.4441 92.2085C77.2307 93.1372 80.6859 92.6892 86.5573 92.2085C93.1997 91.6647 97.2693 91.6285 103.252 89.2583C107.134 87.7205 109.103 86.4655 112.302 84.1306C115.23 81.9939 116.866 80.6998 118.98 78.0194C121.112 75.317 121.817 73.5495 123.022 70.5034C124.145 67.6666 125.043 63.0576 125.043 63.0576" stroke="black" stroke-width="3.5" stroke-linecap="round"/>
<path d="M103.309 89.6121C103.309 89.6121 93.8491 102.059 83.9189 103.616C73.5221 101.656 63.1919 90.6834 63.1919 90.6834L74.2026 92.9027H80.809L88.6601 92.367L96.3197 91.6017L103.309 89.6121Z" fill="url(#paint15_linear_16_86)"/>
<path d="M35.944 186.479C43.3632 191.029 43.4635 200.733 40.7991 206.443C38.1347 212.153 36.4416 198.567 36.1657 197.061C35.8899 195.555 34.3924 190.756 26.7906 203.025C19.1888 215.293 28.5247 181.929 35.944 186.479Z" fill="url(#paint16_radial_16_86)"/>
<path d="M32.2891 186.128C23.1742 187.417 17.7531 196.032 16.9918 202.117C16.2306 208.202 25.2042 196.721 26.2777 195.481C27.3511 194.241 31.3226 190.521 31.3604 204.296C31.3981 218.072 41.404 184.84 32.2891 186.128Z" fill="url(#paint17_radial_16_86)"/>
<ellipse cx="68.8409" cy="57.2415" rx="2.39363" ry="2.75494" fill="#078821"/>
<ellipse cx="85.3092" cy="56.3233" rx="2.39363" ry="2.75494" fill="#078821"/>
<defs>
<radialGradient id="paint0_radial_16_86" cx="0" cy="0" r="1" gradientUnits="userSpaceOnUse" gradientTransform="translate(52.409 154.674) rotate(13.2024) scale(70.518 68.8872)">
<stop stop-color="#54CC36"/>
<stop offset="1" stop-color="#039803"/>
</radialGradient>
<radialGradient id="paint1_radial_16_86" cx="0" cy="0" r="1" gradientUnits="userSpaceOnUse" gradientTransform="translate(118.937 153.974) rotate(163.24) scale(69.9255 69.4709)">
<stop stop-color="#54CC36"/>
<stop offset="1" stop-color="#039803"/>
</radialGradient>
<radialGradient id="paint2_radial_16_86" cx="0" cy="0" r="1" gradientUnits="userSpaceOnUse" gradientTransform="translate(151.096 197.958) rotate(141.047) scale(21.0015 26.926)">
<stop stop-color="#54CC36"/>
<stop offset="1" stop-color="#039803"/>
</radialGradient>
<radialGradient id="paint3_radial_16_86" cx="0" cy="0" r="1" gradientUnits="userSpaceOnUse" gradientTransform="translate(140.955 200.993) rotate(7.50288) scale(22.8584 24.7386)">
<stop stop-color="#54CC36"/>
<stop offset="1" stop-color="#039803"/>
</radialGradient>
<radialGradient id="paint4_radial_16_86" cx="0" cy="0" r="1" gradientUnits="userSpaceOnUse" gradientTransform="translate(72.9094 270.8) rotate(-178.082) scale(86.4752 83.9616)">
<stop stop-color="#54CC36"/>
<stop offset="1" stop-color="#039803"/>
</radialGradient>
<radialGradient id="paint5_radial_16_86" cx="0" cy="0" r="1" gradientUnits="userSpaceOnUse" gradientTransform="translate(109.092 271.478) rotate(-178.003) scale(88.4259 83.2832)">
<stop stop-color="#54CC36"/>
<stop offset="1" stop-color="#039803"/>
</radialGradient>
<radialGradient id="paint6_radial_16_86" cx="0" cy="0" r="1" gradientUnits="userSpaceOnUse" gradientTransform="translate(84.942 103.557) rotate(6.8) scale(23.0163 77.5648)">
<stop stop-color="#54CC36"/>
<stop offset="1" stop-color="#039803"/>
</radialGradient>
<radialGradient id="paint7_radial_16_86" cx="0" cy="0" r="1" gradientUnits="userSpaceOnUse" gradientTransform="translate(89.4111 172.871) rotate(3.09433) scale(63.4286 96.0098)">
<stop stop-color="#54CC36"/>
<stop offset="1" stop-color="#039803"/>
</radialGradient>
<radialGradient id="paint8_radial_16_86" cx="0" cy="0" r="1" gradientUnits="userSpaceOnUse" gradientTransform="translate(97.0828 26.8793) rotate(-1.51453) scale(35.5191 36.8223)">
<stop stop-color="#54CC36"/>
<stop offset="1" stop-color="#039803"/>
</radialGradient>
<radialGradient id="paint9_radial_16_86" cx="0" cy="0" r="1" gradientUnits="userSpaceOnUse" gradientTransform="translate(53.8062 27.6444) rotate(-1.51453) scale(35.5191 36.8223)">
<stop stop-color="#54CC36"/>
<stop offset="1" stop-color="#039803"/>
</radialGradient>
<radialGradient id="paint10_radial_16_86" cx="0" cy="0" r="1" gradientUnits="userSpaceOnUse" gradientTransform="translate(43.9961 317.833) rotate(-74.5039) scale(24.0654 37.0526)">
<stop stop-color="#54CC36"/>
<stop offset="1" stop-color="#039803"/>
</radialGradient>
<radialGradient id="paint11_radial_16_86" cx="0" cy="0" r="1" gradientUnits="userSpaceOnUse" gradientTransform="translate(46.6407 320.675) rotate(-82.4913) scale(14.3477 34.6907)">
<stop stop-color="#54CC36"/>
<stop offset="1" stop-color="#039803"/>
</radialGradient>
<radialGradient id="paint12_radial_16_86" cx="0" cy="0" r="1" gradientUnits="userSpaceOnUse" gradientTransform="translate(142.97 322.679) rotate(-93.3046) scale(23.7674 37.5171)">
<stop stop-color="#54CC36"/>
<stop offset="1" stop-color="#039803"/>
</radialGradient>
<radialGradient id="paint13_radial_16_86" cx="0" cy="0" r="1" gradientUnits="userSpaceOnUse" gradientTransform="translate(139.756 325.118) rotate(-85.2015) scale(14.3215 34.7542)">
<stop stop-color="#54CC36"/>
<stop offset="1" stop-color="#039803"/>
</radialGradient>
<radialGradient id="paint14_radial_16_86" cx="0" cy="0" r="1" gradientUnits="userSpaceOnUse" gradientTransform="translate(81.1919 66.3953) rotate(90.7558) scale(41.6933 98.2683)">
<stop stop-color="#54CC36"/>
<stop offset="1" stop-color="#039803"/>
</radialGradient>
<linearGradient id="paint15_linear_16_86" x1="60.0595" y1="97.6761" x2="108.578" y2="97.6761" gradientUnits="userSpaceOnUse">
<stop stop-color="#D06666"/>
<stop offset="1" stop-color="#CD1010"/>
</linearGradient>
<radialGradient id="paint16_radial_16_86" cx="0" cy="0" r="1" gradientUnits="userSpaceOnUse" gradientTransform="translate(24.4561 200.456) rotate(34.827) scale(21.345 26.4927)">
<stop stop-color="#54CC36"/>
<stop offset="1" stop-color="#039803"/>
</radialGradient>
<radialGradient id="paint17_radial_16_86" cx="0" cy="0" r="1" gradientUnits="userSpaceOnUse" gradientTransform="translate(34.853 202.877) rotate(169.019) scale(22.7363 24.8715)">
<stop stop-color="#54CC36"/>
<stop offset="1" stop-color="#039803"/>
</radialGradient>
</defs>
</svg>
