<svg width="1572" height="2320" viewBox="0 0 1572 2320" fill="none" xmlns="http://www.w3.org/2000/svg">
<path d="M1070.84 1199.03C1078.26 1167.38 1106.48 1145 1138.99 1145H1212.59C1245.29 1145 1273.63 1167.64 1280.86 1199.53L1309.92 1327.83C1311.3 1333.92 1311.86 1340.16 1311.58 1346.39L1271.46 2253.09C1269.8 2290.51 1238.99 2320 1201.53 2320H1150.37C1112.95 2320 1082.15 2290.58 1080.44 2253.2L1038.94 1346.71C1038.65 1340.27 1039.25 1333.82 1040.72 1327.54L1070.84 1199.03Z" fill="#D1AC8F"/>
<path d="M1564.5 899.5C1564.5 1141.4 1517 1405.5 1172.5 1473.5C881.5 1392 786 1141.4 786 899.5C786 657.599 963.736 442 1172.5 442C1381.26 442 1564.5 657.599 1564.5 899.5Z" fill="#FF0000"/>
<path d="M1572 978.074C1572 1316.5 1517.03 1355.3 1172.75 1406C881.939 1345.24 786.5 1306 786.5 978.074C786.5 797.733 964.122 637 1172.75 637C1381.38 637 1572 797.733 1572 978.074Z" fill="#0CB50C"/>
<path d="M1564.5 1115.52C1564.5 1237.94 1531.5 1467 1099.5 1375.5C808.687 1334.26 810.5 1237.94 810.5 1115.52C810.5 993.106 964.122 884 1172.75 884C1381.38 884 1564.5 993.106 1564.5 1115.52Z" fill="#E9DE11"/>
<path d="M1552 1229.02C1552 1351.44 1486.5 1599.5 1199.25 1599.5C924.5 1599.5 820.5 1375.42 820.5 1253C820.5 1130.58 976.37 1100.5 1185 1100.5C1393.63 1100.5 1552 1106.61 1552 1229.02Z" fill="#1135E9"/>
<path d="M284.838 757.027C292.255 725.378 320.484 703 352.991 703H426.585C459.286 703 487.629 725.64 494.855 757.533L523.923 885.831C525.301 891.916 525.86 898.159 525.584 904.393L485.461 1811.09C483.805 1848.51 452.986 1878 415.529 1878H364.369C326.954 1878 296.153 1848.58 294.442 1811.2L252.945 904.71C252.65 898.268 253.246 891.815 254.718 885.536L284.838 757.027Z" fill="#D1AC8F"/>
<path d="M778.5 457.5C778.5 699.401 731 963.5 386.5 1031.5C95.5 950 0 699.401 0 457.5C0 215.599 177.736 0 386.5 0C595.264 0 778.5 215.599 778.5 457.5Z" fill="#FF0000"/>
<path d="M786 536.074C786 874.5 731.031 913.305 386.752 964C95.9387 903.24 0.5 864 0.5 536.074C0.5 355.733 178.122 195 386.752 195C595.381 195 786 355.733 786 536.074Z" fill="#0CB50C"/>
<path d="M778.5 673.522C778.5 795.938 745.5 1025 313.5 933.5C22.6872 892.256 24.5003 795.938 24.5003 673.522C24.5003 551.106 178.122 442 386.752 442C595.382 442 778.5 551.106 778.5 673.522Z" fill="#E9DE11"/>
<path d="M766 787.022C766 909.438 700.5 1157.5 413.252 1157.5C138.5 1157.5 34.5 933.416 34.5 811C34.5 688.584 190.37 658.5 399 658.5C607.63 658.5 766 664.606 766 787.022Z" fill="#1135E9"/>
</svg>
