<svg width="828" height="1118" viewBox="0 0 828 1118" fill="none" xmlns="http://www.w3.org/2000/svg">
<path d="M645.905 892.527C686.661 902.107 691.38 939.541 676.889 959.708C663.451 978.408 630.058 984.904 604.862 953.018C594.53 939.942 593.025 922.19 609.162 911.041C613.854 889.92 630.731 888.961 645.905 892.527Z" fill="#855312"/>
<path d="M341.715 973.763C342.963 953.684 351.72 923.523 353.127 918.779L343.398 913.79L330.131 896.289L317.879 877.16L301.265 937.342L287.227 991.659L280.701 1022.95L272.853 1021.64C269.277 1021.04 267.402 1019.68 263.697 1020.11C260.847 1020.44 259.126 1020.79 256.432 1022.5C254.309 1023.84 251.42 1027.06 251.42 1027.06C251.42 1027.06 249.509 1024.8 248.04 1023.8C244.537 1021.4 241.816 1021.35 237.576 1022.05C234.021 1022.64 232.06 1024.07 228.641 1025.96C224.818 1028.07 222.146 1028.56 219.161 1032.47C215.727 1036.97 215.666 1041.13 214.117 1046.92C212.951 1051.28 210.645 1054.26 211.76 1058.22C212.72 1061.62 214.728 1062.5 217.394 1063.65C220.53 1065.01 224.588 1064.85 226.258 1063.33C224.192 1066.35 223.552 1069.42 224.264 1072.89C224.77 1075.36 227.282 1077.89 227.282 1077.89L235.893 1082.03L243.741 1083.33C244.105 1090.29 244.962 1094.69 248.507 1099.42C254.3 1107.15 261.736 1105.18 270.743 1103.12C278.971 1101.24 282.795 1094.99 290.828 1091.18C298.706 1087.45 303.28 1086.3 311.316 1083.81C322.411 1080.36 331.216 1087.52 339.832 1076.87C343.142 1072.78 344.748 1069.81 346.475 1064.49C349.225 1056.01 347.084 1042.11 347.084 1042.11L343.84 1015.49C343.84 1015.49 340.682 990.387 341.715 973.763Z" fill="#95601B"/>
<path d="M353.318 918.141C353.318 918.141 343.073 951.918 341.715 973.763C340.682 990.387 343.84 1015.49 343.84 1015.49L347.084 1042.11C347.084 1042.11 349.225 1056.01 346.475 1064.49C344.748 1069.81 343.142 1072.78 339.832 1076.87C331.216 1087.52 322.411 1080.36 311.316 1083.81C303.28 1086.3 298.706 1087.45 290.828 1091.18C282.795 1094.99 278.971 1101.24 270.743 1103.12C261.736 1105.18 254.3 1107.15 248.507 1099.42C244.962 1094.69 244.105 1090.29 243.741 1083.33M243.741 1083.33C243.305 1074.97 244.244 1069.08 248.274 1061.61C251.37 1055.87 253.896 1052.35 258.841 1049.88C265.276 1046.66 275.191 1052.6 275.191 1052.6L285.654 1054.35M243.741 1083.33L235.893 1082.03L227.282 1077.89C227.282 1077.89 224.77 1075.36 224.264 1072.89C223.552 1069.42 224.192 1066.35 226.258 1063.33M226.258 1063.33C227.391 1057.9 226.785 1054.36 229.159 1049.43C231.592 1044.37 238.056 1039.22 238.056 1039.22C238.056 1039.22 243.962 1034.41 248.008 1033.68C251.718 1033.02 257.164 1035.21 257.164 1035.21L263.632 1039.89M226.258 1063.33C224.588 1064.85 220.53 1065.01 217.394 1063.65C214.728 1062.5 212.72 1061.62 211.76 1058.22C210.645 1054.26 212.951 1051.28 214.117 1046.92C215.666 1041.13 215.727 1036.97 219.161 1032.47C222.146 1028.56 224.818 1028.07 228.641 1025.96C232.06 1024.07 234.021 1022.64 237.576 1022.05C241.816 1021.35 244.537 1021.4 248.04 1023.8C249.509 1024.8 251.42 1027.06 251.42 1027.06C251.42 1027.06 254.309 1023.84 256.432 1022.5C259.126 1020.79 260.847 1020.44 263.697 1020.11C267.402 1019.68 269.277 1021.04 272.853 1021.64L280.701 1022.95M280.701 1022.95L290.511 1024.58M280.701 1022.95L287.227 991.659L301.265 937.342L317.879 877.16L330.131 896.289L343.398 913.79L353.791 919.119" stroke="#593F0B" stroke-opacity="0.96" stroke-width="2" stroke-linecap="round"/>
<path d="M503.685 960.763C502.437 940.684 493.68 910.523 492.273 905.779L502.002 900.79L515.27 883.289L527.521 864.16L544.136 924.342L558.173 978.659L564.7 1009.95L572.548 1008.64C576.123 1008.04 577.999 1006.68 581.703 1007.11C584.554 1007.44 586.274 1007.79 588.968 1009.5C591.091 1010.84 593.98 1014.06 593.98 1014.06C593.98 1014.06 595.891 1011.8 597.36 1010.8C600.864 1008.4 603.584 1008.35 607.824 1009.05C611.379 1009.64 613.341 1011.07 616.76 1012.96C620.582 1015.07 623.255 1015.56 626.239 1019.47C629.674 1023.97 629.734 1028.13 631.283 1033.92C632.45 1038.28 634.755 1041.26 633.64 1045.22C632.681 1048.62 630.672 1049.5 628.007 1050.65C624.87 1052.01 620.813 1051.85 619.142 1050.33C621.208 1053.35 621.849 1056.42 621.136 1059.89C620.631 1062.36 618.119 1064.89 618.119 1064.89L609.507 1069.03L601.659 1070.33C601.296 1077.29 600.439 1081.69 596.893 1086.42C591.1 1094.15 583.664 1092.18 574.658 1090.12C566.429 1088.24 562.605 1081.99 554.572 1078.18C546.694 1074.45 542.121 1073.3 534.085 1070.81C522.989 1067.36 514.184 1074.52 505.568 1063.87C502.259 1059.78 500.653 1056.81 498.925 1051.49C496.175 1043.01 498.317 1029.11 498.317 1029.11L501.561 1002.49C501.561 1002.49 504.718 977.387 503.685 960.763Z" fill="#95601B"/>
<path d="M492.082 905.141C492.082 905.141 502.328 938.918 503.685 960.763C504.718 977.387 501.561 1002.49 501.561 1002.49L498.317 1029.11C498.317 1029.11 496.175 1043.01 498.925 1051.49C500.653 1056.81 502.259 1059.78 505.568 1063.87C514.184 1074.52 522.989 1067.36 534.085 1070.81C542.121 1073.3 546.694 1074.45 554.572 1078.18C562.605 1081.99 566.429 1088.24 574.658 1090.12C583.664 1092.18 591.1 1094.15 596.893 1086.42C600.439 1081.69 601.296 1077.29 601.659 1070.33M601.659 1070.33C602.096 1061.97 601.156 1056.08 597.127 1048.61C594.031 1042.87 591.504 1039.35 586.56 1036.88C580.124 1033.66 570.21 1039.6 570.21 1039.6L559.746 1041.35M601.659 1070.33L609.507 1069.03L618.119 1064.89C618.119 1064.89 620.631 1062.36 621.136 1059.89C621.849 1056.42 621.208 1053.35 619.142 1050.33M619.142 1050.33C618.009 1044.9 618.615 1041.36 616.241 1036.43C613.808 1031.37 607.345 1026.22 607.345 1026.22C607.345 1026.22 601.438 1021.41 597.392 1020.68C593.682 1020.02 588.237 1022.21 588.237 1022.21L581.768 1026.89M619.142 1050.33C620.813 1051.85 624.87 1052.01 628.007 1050.65C630.672 1049.5 632.681 1048.62 633.64 1045.22C634.755 1041.26 632.45 1038.28 631.283 1033.92C629.734 1028.13 629.674 1023.97 626.239 1019.47C623.255 1015.56 620.582 1015.07 616.76 1012.96C613.341 1011.07 611.379 1009.64 607.824 1009.05C603.584 1008.35 600.864 1008.4 597.36 1010.8C595.891 1011.8 593.98 1014.06 593.98 1014.06C593.98 1014.06 591.091 1010.84 588.968 1009.5C586.274 1007.79 584.554 1007.44 581.703 1007.11C577.999 1006.68 576.123 1008.04 572.548 1008.64L564.7 1009.95M564.7 1009.95L554.89 1011.58M564.7 1009.95L558.173 978.659L544.136 924.342L527.521 864.16L515.27 883.289L502.002 900.79L491.61 906.119" stroke="#593F0B" stroke-opacity="0.96" stroke-width="2" stroke-linecap="round"/>
<path d="M619.238 274.503C635.232 386.356 540.016 447.389 403.412 469C278.154 441.986 171.592 386.356 187.586 274.503C201.896 174.425 294.489 83.4435 403.412 129.121C520.711 70.1823 604.928 174.425 619.238 274.503Z" fill="#95601B"/>
<path d="M630.773 579.708C726.09 855.175 561.424 1038 413.515 1038C276.357 1038 128.874 871.894 195.533 593.719C222.87 479.644 303.505 397.18 413.515 444.168C531.985 383.539 595.283 477.142 630.773 579.708Z" fill="#95601B"/>
<path d="M562.263 641.678C595.656 817.574 516.006 912 418.366 912C327.824 912 250.301 853.87 274.47 641.678C281.636 578.764 345.745 522.093 418.366 550.683C496.572 513.793 550.436 579.379 562.263 641.678Z" fill="#D69541"/>
<path d="M296.934 359.837C309.137 248.198 340.923 187.527 411.523 167.229C475.369 195.499 508.894 252.184 518.722 364.061C529.233 483.703 460.164 554.293 405.066 507.497C343.677 565.356 284.241 475.956 296.934 359.837Z" fill="#95601B"/>
<path d="M195.001 166.488C168.796 135.973 171.213 77.606 207.689 45.4335C250.115 29.9687 299.663 41.041 316.356 77.5733C331.291 110.26 314.009 140.501 272.862 147.3C249.285 187.028 218.446 193.791 195.001 166.488Z" fill="#95601B"/>
<path d="M610.99 161.043C637.194 130.527 634.777 72.1607 598.301 39.9882C555.876 24.5233 506.327 35.5956 489.635 72.128C474.699 104.814 491.981 135.056 533.128 141.854C556.706 181.583 587.544 188.345 610.99 161.043Z" fill="#95601B"/>
<path d="M540.075 243.532C544.788 267.379 530.972 290.157 509.215 294.408C487.458 298.66 466 282.775 461.287 258.928C456.574 235.082 478.392 201.032 500.149 196.78C521.906 192.529 535.363 219.686 540.075 243.532Z" fill="#875515"/>
<path d="M363.907 237.764C370.125 261.267 357.782 284.867 336.338 290.476C314.895 296.084 292.471 281.578 286.254 258.075C280.036 234.572 299.649 199.22 321.092 193.612C342.536 188.003 357.69 214.261 363.907 237.764Z" fill="#875515"/>
<path d="M439.91 307.849C438.397 358.445 470.257 363.195 404.679 363.897C354.024 364.439 367.061 366.51 368.574 315.914C370.086 265.318 387.661 211.863 406.609 215.311C427.975 215.082 441.422 257.253 439.91 307.849Z" fill="#EEAB53"/>
<path d="M292.633 100.709C300.49 114.772 309.057 124.753 280.771 144.713C239.459 173.865 230.547 163.435 223.476 152.879C196.515 112.627 205.446 71.9261 223.476 65.1832C241.676 54.0508 276.665 72.1296 292.633 100.709Z" fill="#EEAB53"/>
<path d="M348.37 163.337C350.32 166.925 354.161 168.524 324.533 186.104C281.261 211.78 276.928 205.322 274.5 203C287 183 285.97 178.511 302.94 169.889C321.455 159.316 344.406 156.047 348.37 163.337Z" fill="#67400E"/>
<path d="M492.162 165.364C490.212 168.951 486.371 170.55 515.999 188.13C559.271 213.807 563.604 207.348 566.032 205.027C553.532 185.026 554.563 180.538 537.592 171.915C519.077 161.343 496.126 158.073 492.162 165.364Z" fill="#67400E"/>
<path d="M518.234 93.7342C510.377 107.797 501.81 117.777 530.096 137.738C571.408 166.89 580.319 156.46 587.39 145.904C614.352 105.652 605.42 64.951 587.391 58.2081C569.191 47.0757 534.202 65.1545 518.234 93.7342Z" fill="#EEAB53"/>
<path d="M492.4 387.738C479.554 339.144 382.906 363.241 382.906 363.241C382.906 363.241 300.786 366.87 312.192 380.479C309.663 401.142 348.304 421.969 391.574 427.205C445.865 420.4 489.871 408.4 492.4 387.738Z" fill="#D69641"/>
<path d="M531.512 280.724C531.288 286.057 530.109 289.513 528.308 291.746C526.522 293.961 524.034 295.082 520.938 295.561C517.821 296.043 514.165 295.864 510.127 295.533C509.239 295.46 508.333 295.38 507.411 295.299C504.176 295.012 500.759 294.71 497.304 294.653C492.837 294.578 488.53 295.115 484.643 295.611L484.425 295.639C480.597 296.128 477.23 296.558 474.427 296.364C471.598 296.169 469.48 295.347 468.081 293.415C466.652 291.441 465.867 288.169 466.093 282.81C466.549 272.001 468.082 255.518 473.099 241.821C478.126 228.097 486.514 217.485 500.548 217.719C514.627 217.954 522.6 228.107 526.96 241.166C531.317 254.217 531.967 269.933 531.512 280.724Z" fill="#F6F4F4" stroke="black" stroke-width="1.5"/>
<path d="M519.955 285.96C518.908 303.276 505.667 302.8 492.285 302.331C478.904 301.863 466.143 302.189 467.19 284.873C468.237 267.557 482.695 239.156 496.077 239.624C515.945 240.32 521.002 268.644 519.955 285.96Z" fill="black"/>
<path d="M500.709 265.291C502.556 270.979 500.323 274.02 494.882 275.908C489.441 277.796 483.533 274.716 481.686 269.028C479.839 263.34 482.752 257.198 488.193 255.31C493.633 253.422 498.862 259.603 500.709 265.291Z" fill="#FDF4F4"/>
<path d="M500.709 265.291C502.556 270.979 500.323 274.02 494.882 275.908C489.441 277.796 483.533 274.716 481.686 269.028C479.839 263.34 482.752 257.198 488.193 255.31C493.633 253.422 498.862 259.603 500.709 265.291Z" fill="#FDF4F4"/>
<path d="M500.709 265.291C502.556 270.979 500.323 274.02 494.882 275.908C489.441 277.796 483.533 274.716 481.686 269.028C479.839 263.34 482.752 257.198 488.193 255.31C493.633 253.422 498.862 259.603 500.709 265.291Z" fill="#FDF4F4"/>
<ellipse cx="4.12462" cy="4.06168" rx="4.12462" ry="4.06168" transform="matrix(0.944874 -0.327893 0.308798 0.950873 483.27 282.803)" fill="#D9D9D9"/>
<path d="M355.804 278.216C355.579 283.549 354.4 287.006 352.599 289.239C350.813 291.454 348.325 292.574 345.229 293.054C342.112 293.536 338.456 293.357 334.418 293.026C333.53 292.953 332.624 292.873 331.702 292.792C328.467 292.505 325.05 292.203 321.595 292.145C317.128 292.071 312.821 292.608 308.934 293.104L308.716 293.132C304.888 293.621 301.521 294.051 298.718 293.857C295.889 293.662 293.771 292.84 292.372 290.908C290.943 288.934 290.158 285.661 290.384 280.303C290.84 269.494 292.373 253.011 297.39 239.314C302.417 225.59 310.805 214.978 324.839 215.212C338.918 215.447 346.891 225.6 351.251 238.659C355.608 251.71 356.258 267.426 355.804 278.216Z" fill="#F6F4F4" stroke="black" stroke-width="1.5"/>
<path d="M344.246 283.453C343.199 300.769 329.958 300.293 316.576 299.824C303.194 299.356 290.433 299.682 291.48 282.366C292.527 265.05 306.986 236.649 320.367 237.117C340.235 237.813 345.293 266.137 344.246 283.453Z" fill="black"/>
<path d="M325 262.784C326.847 268.472 324.613 271.513 319.172 273.401C313.732 275.289 307.824 272.209 305.976 266.521C304.129 260.833 307.042 254.691 312.483 252.803C317.924 250.915 323.153 257.096 325 262.784Z" fill="#FDF4F4"/>
<path d="M325 262.784C326.847 268.472 324.613 271.513 319.172 273.401C313.732 275.289 307.824 272.209 305.976 266.521C304.129 260.833 307.042 254.691 312.483 252.803C317.924 250.915 323.153 257.096 325 262.784Z" fill="#FDF4F4"/>
<path d="M325 262.784C326.847 268.472 324.613 271.513 319.172 273.401C313.732 275.289 307.824 272.209 305.976 266.521C304.129 260.833 307.042 254.691 312.483 252.803C317.924 250.915 323.153 257.096 325 262.784Z" fill="#FDF4F4"/>
<ellipse cx="4.12462" cy="4.06168" rx="4.12462" ry="4.06168" transform="matrix(0.944874 -0.327893 0.308798 0.950873 307.56 280.296)" fill="#D9D9D9"/>
<path d="M387.587 344.786C386.977 324.525 397.876 324.966 415.443 324.443C433.01 323.919 430.409 338.536 431.02 358.798C431.63 379.059 427.508 405.472 409.941 405.995C392.374 406.519 388.198 365.048 387.587 344.786Z" fill="#CA3A24"/>
<path d="M502.597 372.83C510.154 406.472 406.203 366.011 406.203 366.011C406.203 366.011 301.99 412.836 301.99 372.83C301.99 344.458 346.898 296 402.294 296C457.69 296 497.017 347.987 502.597 372.83Z" fill="#EEAB53"/>
<path d="M459.61 310.392C448.014 340.791 433.518 352.433 408.513 360.195C379.522 352.433 357.416 331.468 357.416 310.392C357.416 289.317 380.293 290.342 408.513 290.342C436.733 290.342 459.61 289.317 459.61 310.392Z" fill="#50320B"/>
<path d="M398.596 335.572C399.518 342.929 397.222 349.271 393.467 349.736C389.711 350.202 385.919 344.615 384.997 337.258C384.074 329.901 387.708 320.465 391.464 319.999C395.219 319.533 397.673 328.215 398.596 335.572Z" fill="black"/>
<path d="M398.596 335.572C399.518 342.929 397.222 349.271 393.467 349.736C389.711 350.202 385.919 344.615 384.997 337.258C384.074 329.901 387.708 320.465 391.464 319.999C395.219 319.533 397.673 328.215 398.596 335.572Z" fill="black"/>
<path d="M433.079 334.874C432.791 342.283 429.492 348.171 425.711 348.025C421.929 347.88 419.097 341.756 419.385 334.348C419.673 326.939 424.797 318.213 428.578 318.358C432.36 318.503 433.367 327.465 433.079 334.874Z" fill="black"/>
<path d="M433.079 334.874C432.791 342.283 429.492 348.171 425.711 348.025C421.929 347.88 419.097 341.756 419.385 334.348C419.673 326.939 424.797 318.213 428.578 318.358C432.36 318.503 433.367 327.465 433.079 334.874Z" fill="black"/>
<path d="M433.615 299.458C440.421 299.893 445.718 303.66 445.446 307.872C445.173 312.083 439.435 315.145 432.629 314.71C425.823 314.275 417.982 308.431 418.254 304.219C418.526 300.007 426.809 299.022 433.615 299.458Z" fill="black"/>
<path d="M433.615 299.458C440.421 299.893 445.718 303.66 445.446 307.872C445.173 312.083 439.435 315.145 432.629 314.71C425.823 314.275 417.982 308.431 418.254 304.219C418.526 300.007 426.809 299.022 433.615 299.458Z" fill="white" fill-opacity="0.83"/>
<path d="M424.02 301.88C428.705 302.18 432.363 304.591 432.19 307.266C432.017 309.94 428.079 311.866 423.394 311.566C418.709 311.267 413.294 307.528 413.467 304.853C413.639 302.178 419.336 301.581 424.02 301.88Z" fill="black"/>
<path d="M424.02 301.88C428.705 302.18 432.363 304.591 432.19 307.266C432.017 309.94 428.079 311.866 423.394 311.566C418.709 311.267 413.294 307.528 413.467 304.853C413.639 302.178 419.336 301.581 424.02 301.88Z" fill="white" fill-opacity="0.8"/>
<path d="M304.676 367.82C303.89 369.419 302.662 371.287 302.199 372.97C301.793 374.447 302.104 376.348 302.104 377.87C302.104 381.665 304.218 383.343 307.249 385.207C308.353 385.887 309.798 385.633 310.845 386.301C312.578 387.407 314.24 387.865 316.49 387.919C319.462 387.99 322.528 388.068 325.493 387.896C330.02 387.634 334.323 385.955 338.83 385.367C341.345 385.039 343.876 384.532 346.357 384.045C351.887 382.96 357.44 382.172 362.981 381.288C364.642 381.023 366.35 380.217 368.007 379.807C373.349 378.485 378.634 376.467 383.798 374.611C388.093 373.067 392.368 371.219 396.587 369.507C400.745 367.819 405.453 367 409.949 367C413.191 367 416.059 367.527 419.143 368.458C422.134 369.362 425.237 369.609 428.122 370.874C430.558 371.942 433.127 371.473 435.553 372.332C438.523 373.385 442.092 374.682 445.199 375.112C446.567 375.302 448.008 375.577 449.391 375.614C450.732 375.649 451.698 376.52 453.011 376.799C456.897 377.625 460.765 379.062 464.681 379.624C472.643 380.767 480.37 383.231 488.642 383.84C492.396 384.116 496.056 384.228 499.836 384.228C501.393 384.228 503.004 384.09 503.79 382.587C504.053 382.082 504.654 381.612 504.837 381.128C505.109 380.415 504.592 379.547 505.314 378.986C506.805 377.827 505.375 373.527 505.314 372.013C505.258 370.622 503.267 367.331 501.884 367" stroke="black" stroke-width="6" stroke-linecap="round"/>
<path d="M227.553 693.841C162.636 793.585 126.673 857.251 104.704 838.426C82.7363 819.601 102.12 724.347 148 625.67C193.879 526.993 248.88 462.26 270.849 481.085C280.236 489.129 282.072 511.13 277.517 541.39C234.418 615.739 220.991 639.926 227.553 693.841Z" fill="#95601B"/>
<path d="M141.578 867.17C120.029 886.761 99.1952 849.653 84.7669 864.721C65.858 857.863 71.8125 835.453 78.4545 813.304C85.7969 788.819 102.456 776.379 121.365 783.237C140.274 790.095 144.376 835.343 141.578 867.17Z" fill="#95601B"/>
<path d="M75.8135 832.544C75.8135 832.544 72.649 841.296 72.9836 846.924C73.2848 851.99 75.6369 856.508 76.6297 858.051C77.6225 859.593 82.2464 863.629 85.9672 861.437C89.7136 859.231 93.2023 845.854 92.6877 848.468C92.1731 851.083 93.0016 858.936 95.8192 862.209C97.7961 864.506 102.044 864.467 102.044 864.467C102.044 864.467 105.251 866.862 107.491 866.443C109.991 865.975 111.776 864.908 113.446 861.6C114.943 858.635 114.732 855.063 115.247 852.449C115.761 849.834 116.599 859.448 118.115 863.293C119.666 867.227 120.573 869.724 123.054 872.087C125.682 874.592 127.643 875.841 130.835 874.909C133.328 874.182 134.849 872.961 136.79 870.066C138.839 867.011 139.51 864.357 140.404 860.173C141.404 855.494 141.163 847.843 141.163 847.843" stroke="black" stroke-width="2" stroke-linecap="round"/>
<path d="M80.6869 859.941L84.4492 851.946C84.4492 851.946 86.0465 846.174 85.9106 842.448C85.7098 836.947 83.593 837.283 81.828 838.638C79.3898 840.51 78.0929 850.571 77.3622 855.32C76.6316 860.068 76.1366 878.2 76.1366 878.2L80.6869 859.941Z" fill="black" stroke="#060606"/>
<path d="M128.276 874.293L130.439 865.037C130.439 865.037 130.899 858.928 130.049 855.583C128.793 850.643 126.776 852.035 125.301 854.182C123.263 857.146 123.923 867.032 124.118 871.759C124.313 876.487 127.313 893.36 127.313 893.36L128.276 874.293Z" fill="black" stroke="#060606"/>
<path d="M98.8476 869.33L102.61 861.335C102.61 861.335 104.207 855.562 104.071 851.837C103.87 846.336 101.754 846.672 99.9886 848.027C97.5504 849.899 96.2535 859.959 95.5229 864.708C94.7923 869.457 94.2973 887.589 94.2973 887.589L98.8476 869.33Z" fill="black" stroke="#060606"/>
<path d="M592.142 671.491C662.049 767.804 701.205 829.558 722.187 809.64C743.169 789.722 718.964 695.577 668.124 599.362C617.284 503.147 559.061 441.296 538.079 461.214C529.113 469.725 528.398 491.79 534.487 521.779C581.312 593.839 595.953 617.312 592.142 671.491Z" fill="#95601B"/>
<path d="M686.823 840.222C709.341 858.691 728.26 820.572 743.436 834.886C761.972 827.075 754.885 804.996 747.125 783.214C738.546 759.135 721.276 747.558 702.74 755.37C684.205 763.181 682.409 808.579 686.823 840.222Z" fill="#95601B"/>
<path d="M750.741 802.295C750.741 802.295 754.346 810.874 754.299 816.513C754.255 821.587 752.136 826.219 751.223 827.81C750.31 829.401 745.898 833.667 742.07 831.668C738.216 829.654 734.052 816.472 734.699 819.057C735.346 821.642 734.918 829.528 732.27 832.94C730.413 835.334 726.168 835.511 726.168 835.511C726.168 835.511 723.088 838.066 720.829 837.761C718.309 837.421 716.471 836.446 714.635 833.228C712.989 830.343 713.018 826.765 712.371 824.18C711.724 821.595 711.376 831.239 710.059 835.156C708.71 839.164 707.93 841.704 705.574 844.19C703.076 846.826 701.181 848.172 697.946 847.405C695.419 846.805 693.837 845.663 691.752 842.871C689.551 839.923 688.745 837.307 687.639 833.174C686.403 828.552 686.254 820.898 686.254 820.898" stroke="black" stroke-width="2" stroke-linecap="round"/>
<path d="M747.268 829.905L743.104 822.112C743.104 822.112 741.215 816.428 741.161 812.701C741.082 807.196 743.213 807.424 745.045 808.688C747.575 810.433 749.382 820.415 750.353 825.12C751.325 829.826 752.741 847.909 752.741 847.909L747.268 829.905Z" fill="black" stroke="#060606"/>
<path d="M700.47 846.659L697.839 837.525C697.839 837.525 697.069 831.447 697.748 828.063C698.75 823.066 700.836 824.354 702.418 826.422C704.604 829.28 704.448 839.186 704.494 843.917C704.54 848.648 702.401 865.653 702.401 865.653L700.47 846.659Z" fill="black" stroke="#060606"/>
<path d="M729.608 840.205L725.444 832.412C725.444 832.412 723.555 826.728 723.501 823.001C723.422 817.496 725.553 817.724 727.385 818.988C729.915 820.734 731.722 830.715 732.693 835.42C733.664 840.126 735.081 858.209 735.081 858.209L729.608 840.205Z" fill="black" stroke="#060606"/>
<path d="M212.792 1058.97L220.219 1053.04C220.219 1053.04 224.363 1048.52 225.765 1045.37C227.837 1040.71 225.39 1040.56 222.903 1041.33C219.468 1042.4 213.867 1050.57 211.094 1054.41C208.321 1058.24 200.234 1073.35 200.234 1073.35L212.792 1058.97Z" fill="black" stroke="#060606"/>
<path d="M224.792 1076.97L232.219 1071.04C232.219 1071.04 236.363 1066.52 237.765 1063.37C239.837 1058.71 237.39 1058.56 234.903 1059.33C231.468 1060.4 225.867 1068.57 223.094 1072.41C220.321 1076.24 212.234 1091.35 212.234 1091.35L224.792 1076.97Z" fill="black" stroke="#060606"/>
<path d="M248.792 1088.97L256.219 1083.04C256.219 1083.04 260.363 1078.52 261.765 1075.37C263.837 1070.71 261.39 1070.56 258.903 1071.33C255.468 1072.4 249.867 1080.57 247.094 1084.41C244.321 1088.24 236.234 1103.35 236.234 1103.35L248.792 1088.97Z" fill="black" stroke="#060606"/>
<path d="M591.818 1076.92L585.215 1070.08C585.215 1070.08 581.685 1065.08 580.699 1061.77C579.243 1056.88 581.689 1057.04 584.056 1058.13C587.327 1059.63 591.831 1068.45 594.089 1072.61C596.346 1076.77 602.425 1092.79 602.425 1092.79L591.818 1076.92Z" fill="black" stroke="#060606"/>
<path d="M611.904 1061.62L605.3 1054.79C605.3 1054.79 601.771 1049.78 600.785 1046.47C599.329 1041.59 601.775 1041.75 604.142 1042.83C607.413 1044.33 611.917 1053.16 614.175 1057.31C616.432 1061.47 622.511 1077.5 622.511 1077.5L611.904 1061.62Z" fill="black" stroke="#060606"/>
<path d="M626.904 1041.62L620.3 1034.79C620.3 1034.79 616.771 1029.78 615.785 1026.47C614.329 1021.59 616.775 1021.75 619.142 1022.83C622.413 1024.33 626.917 1033.16 629.175 1037.31C631.432 1041.47 637.511 1057.5 637.511 1057.5L626.904 1041.62Z" fill="black" stroke="#060606"/>
</svg>
