<svg width="195" height="249" viewBox="0 0 195 249" fill="none" xmlns="http://www.w3.org/2000/svg">
<path d="M47.8653 224.892C51.3318 206.829 72.4855 201.636 93.203 204.676C97.2104 212.676 56.8831 202.033 52.6296 229.957C52.8845 236.606 4.00722 229.006 -0.000120404 221.006C26.5061 226.922 47.754 231.233 47.8653 224.892Z" fill="#AEA5A5"/>
<path d="M66.8675 65.155C51.6273 75.2162 30.7317 66.6891 19.3271 54.5224C9.96318 44.5328 14.7268 28.2784 29.9669 18.2173C45.207 8.15616 65.1525 8.09818 74.5164 18.0878C83.8803 28.0774 82.1076 55.0939 66.8675 65.155Z" fill="url(#paint0_radial_16_223)"/>
<path d="M123.706 66.8425C135.189 79.9551 158.039 76.4234 172.903 67.2562C185.107 59.7294 185.691 42.9979 174.209 29.8853C162.726 16.7727 143.524 12.2445 131.32 19.7713C119.116 27.2981 112.223 53.7299 123.706 66.8425Z" fill="url(#paint1_radial_16_223)"/>
<path d="M135.983 37.0474C146.407 29.263 159.947 32.8202 167.084 39.551C172.944 45.0775 169.245 55.868 158.821 63.6523C148.398 71.4366 135.197 73.267 129.337 67.7406C123.477 62.2141 125.56 44.8317 135.983 37.0474Z" fill="url(#paint2_radial_16_223)"/>
<path d="M31.031 46.7491C27.3362 35.4574 37.1372 26.8481 47.4902 24.4622C55.9906 22.5033 65.8767 30.0689 69.5715 41.3606C73.2663 52.6522 69.3705 63.3939 60.8701 65.3529C52.3697 67.3118 34.7258 58.0407 31.031 46.7491Z" fill="url(#paint3_radial_16_223)"/>
<path d="M83.3613 231.315C82.9436 228.861 83.8365 225.133 83.9836 224.547L81.6621 223.999L78.1271 221.948L74.7603 219.693L73.1683 227.127L71.9431 233.83L71.5818 237.682L69.8031 237.57C68.9927 237.52 68.5313 237.365 67.7279 237.441C67.1098 237.499 66.7415 237.551 66.2055 237.776C65.7831 237.953 65.2559 238.363 65.2559 238.363C65.2559 238.363 64.7557 238.099 64.3966 237.986C63.54 237.716 62.9374 237.727 62.025 237.838C61.2598 237.931 60.8761 238.118 60.186 238.369C59.4144 238.649 58.841 238.725 58.3169 239.22C57.7137 239.79 57.844 240.297 57.7016 241.011C57.5944 241.55 57.1883 241.927 57.5712 242.402C57.9004 242.811 58.3746 242.906 59.0033 243.03C59.7429 243.176 60.6338 243.132 60.9503 242.936C60.5979 243.316 60.5625 243.694 60.8399 244.113C61.0369 244.411 61.6791 244.703 61.6791 244.703L63.7242 245.154L65.5029 245.265C65.8235 246.111 66.1645 246.641 67.111 247.195C68.6575 248.101 70.2325 247.816 72.1508 247.51C73.9034 247.23 74.5322 246.445 76.1753 245.932C77.7866 245.429 78.7572 245.261 80.4462 244.907C82.778 244.419 84.9701 245.237 86.5058 243.887C87.0957 243.368 87.3479 242.997 87.5457 242.338C87.8604 241.288 86.9072 239.607 86.9072 239.607L85.2713 236.384C85.2713 236.384 83.7072 233.346 83.3613 231.315Z" fill="#AEA5A5"/>
<path d="M84.0037 224.468C84.0037 224.468 82.9069 228.645 83.3613 231.315C83.7071 233.346 85.2713 236.384 85.2713 236.384L86.9072 239.607C86.9072 239.607 87.8604 241.288 87.5457 242.338C87.3479 242.997 87.0957 243.368 86.5058 243.887C84.9701 245.237 82.778 244.419 80.4462 244.907C78.7572 245.261 77.7866 245.429 76.1753 245.932C74.5322 246.445 73.9034 247.23 72.1508 247.51C70.2325 247.816 68.6575 248.101 67.111 247.195C66.1645 246.641 65.8235 246.111 65.5029 245.265M65.5029 245.265C65.1177 244.249 65.1217 243.525 65.7538 242.591C66.2395 241.872 66.6763 241.429 67.6831 241.097C68.9934 240.665 71.3888 241.328 71.3888 241.328L73.7604 241.476M65.5029 245.265L63.7242 245.154L61.6791 244.703C61.6791 244.703 61.0369 244.411 60.8399 244.113C60.5625 243.694 60.5979 243.316 60.9503 242.936M60.9503 242.936C61.013 242.268 60.7569 241.84 61.1109 241.224C61.4738 240.594 62.7236 239.926 62.7236 239.926C62.7236 239.926 63.8622 239.304 64.7309 239.191C65.5276 239.087 66.8061 239.32 66.8061 239.32L68.3965 239.85M60.9503 242.936C60.6338 243.132 59.7429 243.176 59.0033 243.03C58.3746 242.906 57.9004 242.811 57.5712 242.402C57.1883 241.927 57.5944 241.55 57.7016 241.011C57.844 240.297 57.7137 239.79 58.3169 239.22C58.841 238.725 59.4144 238.649 60.186 238.369C60.8761 238.118 61.2598 237.931 62.025 237.838C62.9374 237.727 63.54 237.716 64.3966 237.986C64.7557 238.099 65.2559 238.363 65.2559 238.363C65.2559 238.363 65.7831 237.953 66.2055 237.776C66.7415 237.551 67.1098 237.499 67.7279 237.441C68.5313 237.365 68.9927 237.52 69.8031 237.57L71.5818 237.682M71.5818 237.682L73.8053 237.82M71.5818 237.682L71.9431 233.83L73.1683 227.127L74.7603 219.693L78.127 221.948L81.6621 223.999L84.1419 224.584" stroke="#989797" stroke-width="2" stroke-linecap="round"/>
<path d="M122.963 231.315C123.381 228.861 122.488 225.133 122.341 224.547L124.663 223.999L128.198 221.948L131.564 219.693L133.156 227.127L134.382 233.83L134.743 237.682L136.522 237.57C137.332 237.52 137.793 237.365 138.597 237.441C139.215 237.499 139.583 237.551 140.119 237.776C140.542 237.953 141.069 238.363 141.069 238.363C141.069 238.363 141.569 238.099 141.928 237.986C142.785 237.716 143.387 237.727 144.3 237.838C145.065 237.931 145.449 238.118 146.139 238.369C146.91 238.649 147.484 238.725 148.008 239.22C148.611 239.79 148.481 240.297 148.623 241.011C148.73 241.55 149.136 241.927 148.754 242.402C148.424 242.811 147.95 242.906 147.321 243.03C146.582 243.176 145.691 243.132 145.374 242.936C145.727 243.316 145.762 243.694 145.485 244.113C145.288 244.411 144.646 244.703 144.646 244.703L142.601 245.154L140.822 245.265C140.501 246.111 140.16 246.641 139.214 247.195C137.667 248.101 136.092 247.816 134.174 247.51C132.421 247.23 131.792 246.445 130.149 245.932C128.538 245.429 127.567 245.261 125.879 244.907C123.547 244.419 121.355 245.237 119.819 243.887C119.229 243.368 118.977 242.997 118.779 242.338C118.464 241.288 119.417 239.607 119.417 239.607L121.053 236.384C121.053 236.384 122.618 233.346 122.963 231.315Z" fill="#AEA5A5"/>
<path d="M122.321 224.468C122.321 224.468 123.418 228.645 122.963 231.315C122.618 233.346 121.053 236.384 121.053 236.384L119.417 239.607C119.417 239.607 118.464 241.288 118.779 242.338C118.977 242.997 119.229 243.368 119.819 243.887C121.355 245.237 123.547 244.419 125.879 244.907C127.567 245.261 128.538 245.429 130.149 245.932C131.792 246.445 132.421 247.23 134.174 247.51C136.092 247.816 137.667 248.101 139.214 247.195C140.16 246.641 140.501 246.111 140.822 245.265M140.822 245.265C141.207 244.249 141.203 243.525 140.571 242.591C140.085 241.872 139.648 241.429 138.642 241.097C137.331 240.665 134.936 241.328 134.936 241.328L132.564 241.476M140.822 245.265L142.601 245.154L144.646 244.703C144.646 244.703 145.288 244.411 145.485 244.113C145.762 243.694 145.727 243.316 145.374 242.936M145.374 242.936C145.312 242.268 145.568 241.84 145.214 241.224C144.851 240.594 143.601 239.926 143.601 239.926C143.601 239.926 142.462 239.304 141.594 239.191C140.797 239.087 139.519 239.32 139.519 239.32L137.928 239.85M145.374 242.936C145.691 243.132 146.582 243.176 147.321 243.03C147.95 242.906 148.424 242.811 148.754 242.402C149.136 241.927 148.73 241.55 148.623 241.011C148.481 240.297 148.611 239.79 148.008 239.22C147.484 238.725 146.91 238.649 146.139 238.369C145.449 238.118 145.065 237.931 144.3 237.838C143.387 237.727 142.785 237.716 141.928 237.986C141.569 238.099 141.069 238.363 141.069 238.363C141.069 238.363 140.542 237.953 140.119 237.776C139.583 237.551 139.215 237.499 138.597 237.441C137.793 237.365 137.332 237.52 136.522 237.57L134.743 237.682M134.743 237.682L132.519 237.82M134.743 237.682L134.382 233.83L133.156 227.127L131.564 219.693L128.198 221.948L124.663 223.999L122.183 224.584" stroke="#989797" stroke-width="2" stroke-linecap="round"/>
<path d="M160.278 104.456C156.673 126.687 116.755 133.971 83.1957 130.139C55.6416 126.993 36.2267 106.42 39.8312 84.1881C43.4357 61.9566 68.6946 46.485 96.2487 49.6313C123.803 52.7777 163.882 82.2241 160.278 104.456Z" fill="#AEA5A5"/>
<path d="M104.352 130.791C131.086 130.789 142.575 173.925 142.578 202.348C142.58 225.685 123.406 233.681 96.671 233.682C76.2748 228.304 66.9828 213.221 66.9804 189.884C66.978 166.547 77.6166 130.793 104.352 130.791Z" fill="#AEA5A5"/>
<path d="M101.008 122.386C127.675 120.787 117.84 146.548 128.057 172.237C138.274 197.927 127.58 216.967 100.913 218.566C74.2458 220.165 68.3068 179.783 81.584 153.328C89.6776 137.201 74.3415 123.985 101.008 122.386Z" fill="#AEA5A5"/>
<path d="M155.636 116.187C153.581 128.861 100.342 134.396 83.8725 132.515C47.0595 128.312 37.1158 102.343 39.1707 89.6691C37.8582 65.3796 76.1113 88.5229 90.338 92.6379C112.632 82.9224 184.24 76.347 155.636 116.187Z" fill="#E9D0B0"/>
<path d="M166.467 101.451C166.302 104.605 161.404 109.932 157.205 109.777C153.007 109.623 148.684 103.957 148.848 100.803C149.013 97.6484 153.604 98.2007 157.802 98.3552C162.001 98.5098 166.631 98.297 166.467 101.451Z" fill="url(#paint4_radial_16_223)"/>
<ellipse cx="12.1822" cy="8.76567" rx="12.1822" ry="8.76567" transform="matrix(0.993544 0.113452 -0.160044 0.98711 52.6907 92.1709)" fill="url(#paint5_radial_16_223)" fill-opacity="0.28"/>
<path d="M66.0888 119.361C66.0888 119.361 70.908 119.739 73.7143 118.926C76.3929 118.151 79.7278 115.568 79.7278 115.568C79.7278 115.568 81.748 114.47 83.2815 112.451M83.2815 112.451C84.4018 110.334 86.1502 107.031 86.1502 107.031M83.2815 112.451C82.3569 112.446 79.4204 115.495 79.624 116.249C79.8213 116.979 79.7381 117.788 80.0865 118.51C80.6292 119.635 80.442 120.123 81.2407 121.194C82.1215 122.376 82.8551 123.279 84.1387 124.259C85.9014 125.606 86.4976 126.205 88.5981 127.174C90.9744 128.269 93.4655 128.967 96.0182 129.429C97.6743 129.728 100.237 130.184 101.836 130.133C103.299 130.086 104.942 130.064 107.167 130.006C112.295 129.872 115.008 129.185 116.31 129.001C137.609 125.98 139.873 121.844 139.873 121.844" stroke="black" stroke-width="3.5" stroke-linecap="round"/>
<path d="M94.2794 87.1687C94.4686 88.5205 94.2611 89.3042 93.8923 89.7839C93.5202 90.268 92.8923 90.5629 91.9516 90.7101C91.0062 90.858 89.8432 90.8425 88.5049 90.7863C88.2157 90.7742 87.9186 90.7602 87.6154 90.7459C86.5413 90.6952 85.3905 90.6409 84.2434 90.6538C82.7483 90.6707 81.3432 90.8544 80.1002 91.0196L80.0595 91.025C78.8092 91.1912 77.7617 91.3305 76.8731 91.3025C75.9813 91.2745 75.4039 91.0801 75.0028 90.7135C74.5931 90.3391 74.2038 89.6357 74.0107 88.2555C73.6054 85.3596 73.2699 80.9944 74.1788 77.3655C74.6317 75.5571 75.3831 73.9757 76.5463 72.8443C77.697 71.7249 79.2828 71.0133 81.4913 70.9883C85.8731 70.9388 88.8239 73.4457 90.8379 76.7876C92.8717 80.1625 93.8775 84.2971 94.2794 87.1687Z" fill="#F6F4F4" stroke="black" stroke-width="1.5"/>
<path d="M91.2746 88.6678C91.8245 93.3404 87.4717 93.3206 83.0734 93.3041C78.6751 93.2876 74.5206 93.48 73.9707 88.8075C73.4207 84.1349 76.6837 76.367 81.0819 76.3834C87.6122 76.4079 90.7246 83.9953 91.2746 88.6678Z" fill="black"/>
<path d="M83.919 83.259C84.8158 84.7759 84.2423 85.6133 82.5612 86.1664C80.88 86.7195 78.7901 85.9382 77.8932 84.4214C76.9963 82.9045 77.6322 81.2264 79.3133 80.6733C80.9945 80.1202 83.0221 81.7422 83.919 83.259Z" fill="#FDF4F4"/>
<path d="M83.919 83.259C84.8158 84.7759 84.2423 85.6133 82.5612 86.1664C80.88 86.7195 78.7901 85.9382 77.8932 84.4214C76.9963 82.9045 77.6322 81.2264 79.3133 80.6733C80.9945 80.1202 83.0221 81.7422 83.919 83.259Z" fill="#FDF4F4"/>
<path d="M83.919 83.259C84.8158 84.7759 84.2423 85.6133 82.5612 86.1664C80.88 86.7195 78.7901 85.9382 77.8932 84.4214C76.9963 82.9045 77.6322 81.2264 79.3133 80.6733C80.9945 80.1202 83.0221 81.7422 83.919 83.259Z" fill="#FDF4F4"/>
<ellipse cx="1.26891" cy="1.19485" rx="1.26891" ry="1.19485" transform="matrix(0.949038 -0.31224 0.509658 0.861996 79.1204 88.1189)" fill="#D9D9D9"/>
<path d="M75.4762 72.3856C74.2489 71.8095 73.7408 71.7273 72.9372 70.6476C71.3913 68.5704 72.3782 68.8714 71.1021 66.5083" stroke="black" stroke-width="3" stroke-linecap="round"/>
<path d="M79.3891 70.3263C77.8897 68.5516 76.7627 66.9063 76.8 64.7183" stroke="black" stroke-width="3" stroke-linecap="round"/>
<path d="M84.1586 70.5072C83.6129 68.8441 82.5801 66.6568 83.2099 64.9189" stroke="black" stroke-width="3" stroke-linecap="round"/>
<path d="M88.0148 71.7928C88.6626 69.8858 89.3439 68.185 89.601 66.2349" stroke="black" stroke-width="3" stroke-linecap="round"/>
<path d="M132.186 84.2621C132.284 85.621 132.024 86.3941 131.624 86.8558C131.22 87.3215 130.573 87.5862 129.624 87.6887C128.671 87.7917 127.511 87.7213 126.178 87.602C125.89 87.5763 125.595 87.5483 125.293 87.5197C124.224 87.4183 123.079 87.3098 121.932 87.2685C120.438 87.2148 119.023 87.3318 117.771 87.4381L117.73 87.4416C116.471 87.5485 115.416 87.6381 114.53 87.5682C113.642 87.4981 113.079 87.2769 112.703 86.8921C112.319 86.4987 111.978 85.7776 111.877 84.3901C111.667 81.4797 111.624 77.1052 112.775 73.5247C113.349 71.7404 114.205 70.1969 115.442 69.1221C116.666 68.0589 118.297 67.4234 120.503 67.5028C124.88 67.6602 127.658 70.3019 129.445 73.7342C131.25 77.2 131.977 81.3759 132.186 84.2621Z" fill="#F6F4F4" stroke="black" stroke-width="1.5"/>
<path d="M129.086 85.6166C129.322 90.3077 124.977 90.0824 120.587 89.8583C116.197 89.6342 112.036 89.6301 111.8 84.939C111.564 80.2479 115.343 72.6463 119.733 72.8704C126.251 73.2032 128.85 80.9255 129.086 85.6166Z" fill="black"/>
<path d="M122.105 79.869C122.898 81.4258 122.27 82.2347 120.554 82.7076C118.838 83.1804 116.804 82.3017 116.01 80.7449C115.217 79.1881 115.964 77.5427 117.68 77.0698C119.395 76.597 121.311 78.3121 122.105 79.869Z" fill="#FDF4F4"/>
<path d="M122.105 79.869C122.898 81.4258 122.27 82.2347 120.554 82.7076C118.838 83.1804 116.804 82.3017 116.01 80.7449C115.217 79.1881 115.964 77.5427 117.68 77.0698C119.395 76.597 121.311 78.3121 122.105 79.869Z" fill="#FDF4F4"/>
<path d="M122.105 79.869C122.898 81.4258 122.27 82.2347 120.554 82.7076C118.838 83.1804 116.804 82.3017 116.01 80.7449C115.217 79.1881 115.964 77.5427 117.68 77.0698C119.395 76.597 121.311 78.3121 122.105 79.869Z" fill="#FDF4F4"/>
<ellipse cx="1.26822" cy="1.19553" rx="1.26822" ry="1.19553" transform="matrix(0.968997 -0.26708 0.450802 0.88419 116.988 84.4946)" fill="#D9D9D9"/>
<path d="M114.404 68.6146C113.217 67.9815 112.715 67.8753 111.985 66.7594C110.581 64.6125 111.546 64.9597 110.431 62.54" stroke="black" stroke-width="3" stroke-linecap="round"/>
<path d="M118.449 66.7428C117.071 64.9002 116.056 63.2043 116.24 61.0215" stroke="black" stroke-width="3" stroke-linecap="round"/>
<path d="M123.199 67.1484C122.765 65.4622 121.881 63.2296 122.626 61.5242" stroke="black" stroke-width="3" stroke-linecap="round"/>
<path d="M126.962 68.614C127.737 66.7405 128.531 65.0747 128.919 63.1398" stroke="black" stroke-width="3" stroke-linecap="round"/>
<path d="M129.478 193.724C128.12 210.375 116.379 217.23 99.1438 216.24C84.9922 215.427 74.6209 201.27 75.9788 184.619C77.3367 167.969 89.9096 155.129 104.061 155.942C118.213 156.755 130.836 177.073 129.478 193.724Z" fill="url(#paint6_radial_16_223)"/>
<path d="M128.944 171.078C144.02 184.939 152.306 193.835 157.817 190.916C163.328 187.997 159.335 174.383 148.899 160.508C138.463 146.633 125.536 137.751 120.026 140.67C117.671 141.918 117.052 145.118 117.929 149.457C127.875 159.836 130.965 163.217 128.944 171.078Z" fill="#AEA5A5"/>
<path d="M148.567 195.372C153.973 198.41 159.199 192.656 162.818 194.993C167.561 193.929 166.068 190.454 164.402 187.02C162.56 183.223 158.381 181.294 153.638 182.357C148.895 183.421 147.865 190.437 148.567 195.372Z" fill="#AEA5A5"/>
<path d="M165.064 190.003C165.064 190.003 165.858 191.36 165.774 192.233C165.699 193.019 165.109 193.719 164.86 193.959C164.611 194.198 163.451 194.824 162.517 194.484C161.577 194.141 160.702 192.067 160.831 192.473C160.961 192.878 160.753 194.096 160.046 194.603C159.55 194.96 158.484 194.953 158.484 194.953C158.484 194.953 157.68 195.325 157.118 195.26C156.491 195.187 156.043 195.022 155.624 194.509C155.249 194.049 155.302 193.495 155.173 193.09C155.044 192.684 154.833 194.175 154.453 194.771C154.064 195.381 153.836 195.769 153.214 196.135C152.555 196.524 152.063 196.717 151.262 196.573C150.637 196.46 150.255 196.271 149.769 195.822C149.255 195.348 149.086 194.936 148.862 194.288C148.611 193.562 148.672 192.376 148.672 192.376" stroke="black" stroke-width="2" stroke-linecap="round"/>
<path d="M163.841 194.251L162.898 193.012C162.898 193.012 162.497 192.117 162.531 191.539C162.582 190.686 163.113 190.738 163.555 190.948C164.167 191.238 164.492 192.798 164.675 193.535C164.859 194.271 164.983 197.083 164.983 197.083L163.841 194.251Z" fill="white" stroke="#060606"/>
<path d="M151.904 196.477L151.362 195.042C151.362 195.042 151.246 194.095 151.46 193.576C151.775 192.81 152.281 193.026 152.651 193.359C153.162 193.818 152.996 195.351 152.947 196.084C152.898 196.817 152.146 199.434 152.146 199.434L151.904 196.477Z" fill="#F5ECEC" stroke="#060606"/>
<path d="M159.286 195.707L158.343 194.468C158.343 194.468 157.942 193.572 157.976 192.995C158.026 192.142 158.557 192.194 159 192.404C159.612 192.694 159.937 194.254 160.12 194.991C160.304 195.727 160.428 198.539 160.428 198.539L159.286 195.707Z" fill="white" stroke="#060606"/>
<path d="M78.7758 171.078C63.6997 184.939 55.4131 193.835 49.9025 190.916C44.3919 187.997 48.3845 174.383 58.8203 160.508C69.256 146.633 82.183 137.751 87.6936 140.67C90.0484 141.918 90.6679 145.118 89.7908 149.457C79.8449 159.836 76.7543 163.217 78.7758 171.078Z" fill="#AEA5A5"/>
<path d="M59.1518 195.372C53.7461 198.41 48.5201 192.656 44.9009 194.993C40.1577 193.929 41.6513 190.454 43.3174 187.02C45.1592 183.223 49.3381 181.294 54.0813 182.357C58.8244 183.421 59.8536 190.437 59.1518 195.372Z" fill="#AEA5A5"/>
<path d="M42.6552 190.003C42.6552 190.003 41.8614 191.36 41.9454 192.233C42.0209 193.019 42.6109 193.719 42.8599 193.959C43.109 194.198 44.2689 194.824 45.2022 194.484C46.142 194.141 47.0171 192.067 46.888 192.473C46.7589 192.878 46.9668 194.096 47.6735 194.603C48.1694 194.96 49.235 194.953 49.235 194.953C49.235 194.953 50.0394 195.325 50.6014 195.26C51.2284 195.187 51.6762 195.022 52.0952 194.509C52.4706 194.049 52.4178 193.495 52.5469 193.09C52.676 192.684 52.8861 194.175 53.2663 194.771C53.6553 195.381 53.883 195.769 54.5051 196.135C55.1646 196.524 55.6563 196.717 56.457 196.573C57.0824 196.46 57.4641 196.271 57.9508 195.822C58.4647 195.348 58.6332 194.936 58.8574 194.288C59.1082 193.562 59.0479 192.376 59.0479 192.376" stroke="black" stroke-width="2" stroke-linecap="round"/>
<path d="M43.8777 194.251L44.8215 193.012C44.8215 193.012 45.2222 192.117 45.1881 191.539C45.1377 190.686 44.6067 190.738 44.164 190.948C43.5524 191.238 43.227 192.798 43.0438 193.535C42.8605 194.271 42.7363 197.083 42.7363 197.083L43.8777 194.251Z" fill="white" stroke="#060606"/>
<path d="M55.815 196.477L56.3574 195.042C56.3574 195.042 56.4729 194.095 56.2597 193.576C55.9447 192.81 55.4387 193.026 55.0687 193.359C54.5575 193.818 54.7229 195.351 54.7718 196.084C54.8207 196.817 55.5735 199.434 55.5735 199.434L55.815 196.477Z" fill="#F5ECEC" stroke="#060606"/>
<path d="M48.4329 195.707L49.3767 194.468C49.3767 194.468 49.7774 193.572 49.7433 192.995C49.6929 192.142 49.1619 192.194 48.7192 192.404C48.1075 192.694 47.7822 194.254 47.5989 194.991C47.4157 195.727 47.2915 198.539 47.2915 198.539L48.4329 195.707Z" fill="white" stroke="#060606"/>
<defs>
<radialGradient id="paint0_radial_16_223" cx="0" cy="0" r="1" gradientUnits="userSpaceOnUse" gradientTransform="translate(50.6093 40.239) rotate(146.568) scale(33.0656 29.7508)">
<stop stop-color="#E9DEDE"/>
<stop offset="1" stop-color="#AEA5A5"/>
</radialGradient>
<radialGradient id="paint1_radial_16_223" cx="0" cy="0" r="1" gradientUnits="userSpaceOnUse" gradientTransform="translate(147.305 46.4778) rotate(48.791) scale(31.5594 31.1708)">
<stop stop-color="#E9DEDE"/>
<stop offset="1" stop-color="#AEA5A5"/>
</radialGradient>
<radialGradient id="paint2_radial_16_223" cx="0" cy="0" r="1" gradientUnits="userSpaceOnUse" gradientTransform="translate(144.52 57.8694) rotate(-47.4699) scale(26.9596 21.763)">
<stop stop-color="#EFDCDC"/>
<stop offset="1" stop-color="#EE8A8A"/>
</radialGradient>
<radialGradient id="paint3_radial_16_223" cx="0" cy="0" r="1" gradientUnits="userSpaceOnUse" gradientTransform="translate(57.0555 49.5563) rotate(-120.275) scale(26.0709 22.5048)">
<stop stop-color="#EFDCDC"/>
<stop offset="1" stop-color="#EE8A8A"/>
</radialGradient>
<radialGradient id="paint4_radial_16_223" cx="0" cy="0" r="1" gradientUnits="userSpaceOnUse" gradientTransform="translate(157.646 103.651) rotate(-87.0077) scale(2.43891 1.70635)">
<stop stop-color="#666666"/>
<stop offset="0.92456"/>
</radialGradient>
<radialGradient id="paint5_radial_16_223" cx="0" cy="0" r="1" gradientUnits="userSpaceOnUse" gradientTransform="translate(12.1822 8.76567) rotate(90) scale(8.76567 12.1822)">
<stop stop-color="#E3DCDC"/>
<stop offset="0.714895" stop-color="#E5A8A8"/>
</radialGradient>
<radialGradient id="paint6_radial_16_223" cx="0" cy="0" r="1" gradientUnits="userSpaceOnUse" gradientTransform="translate(100.1 178.688) rotate(80.2836) scale(36.0573 37.3195)">
<stop stop-color="#EFDCDC"/>
<stop offset="1" stop-color="#EE8A8A"/>
</radialGradient>
</defs>
</svg>
