<svg width="1371" height="1912" viewBox="0 0 1371 1912" fill="none" xmlns="http://www.w3.org/2000/svg">
<path d="M167.283 94.5902V2L423.582 44.1445L434.821 155.678L419.174 318.509L403.748 410.674L419.174 444.943L474.709 464.312H721.091L769.794 444.943L798.664 410.674L851.995 230.602L878.661 16.261L1091.77 33.5019L1262.56 571.376L1346.96 1090.31L1369 1396.81L1331.32 1718.22L1053.86 1784.63L781.034 1806.13L352.62 1769.73L135.108 1731.2L90.812 1701.19L33.0732 1514.73L2 1257.4L15.2226 1111.59V886.609L33.0732 687.167L68.1132 521.995L111.527 378.959L153.399 215.702L167.283 94.5902Z" fill="url(#paint0_linear_62_213)" stroke="black" stroke-width="3"/>
<path d="M352.097 589.37C402.852 617.823 437.567 636.298 461.311 648.258C483.567 659.469 539.698 685.148 561.265 697.633L608.623 725.049C630.688 737.822 694.25 824.407 703.155 848.297V848.297C756.351 991.02 726.739 1054.14 571.855 909.498C416.97 764.852 132.463 991.02 191.49 872.778V872.778C224.288 807.076 168.839 692.101 205.845 628.675C233.666 580.992 279.082 548.438 352.097 589.37Z" fill="#D9D9D9" fill-opacity="0.2"/>
<path d="M1099.54 113.108C1182.26 241.021 1204.54 455.253 1208.1 495.883C1208.5 500.433 1208.65 504.931 1208.65 509.498L1208.65 715.477V715.477C1208.65 739.925 1204.49 740.802 1198.62 717.07C1182.91 653.609 1153.32 588.608 1099.54 538.385C944.655 393.739 948.114 350.973 1007.14 232.731V232.731C1044.85 157.192 1011.92 21.5725 1072.82 80.0482C1081.89 88.7575 1090.84 99.6565 1099.54 113.108Z" fill="#161DE6" fill-opacity="0.2"/>
<path d="M706.5 1790.2C547.105 1822.96 318.719 1763.83 292.635 1756.82C290.945 1756.37 289.356 1755.86 287.708 1755.29L134.282 1701.41C116.836 1695.29 117.006 1670.9 134.541 1664.42V1664.42C156.57 1656.28 230.492 1672.43 252.102 1663.23C263.296 1658.46 276.72 1652.41 292.685 1644.9C486.353 1553.73 489.636 1682.46 621.672 1665.46V1665.46C707.451 1654.41 794.076 1771.87 709.348 1789.61C708.408 1789.81 707.459 1790.01 706.5 1790.2Z" fill="#161DE6" fill-opacity="0.2"/>
<path d="M963.065 1274.4C1049.08 1322.62 1088.5 1291.84 1106.56 1252.85C1120.64 1222.46 1158.49 1200.29 1187.48 1217.07V1217.07C1225.98 1239.36 1209.68 1308.44 1167.54 1322.69C1111.56 1341.63 1068.13 1376.12 1091.55 1438.94C1144.74 1581.66 1183.22 1580.7 1004.5 1527.7C825.771 1474.7 867.456 1513.12 926.483 1394.88C930.953 1385.92 933.868 1377.64 935.44 1369.96C956.681 1266.28 870.747 1222.64 963.065 1274.4V1274.4Z" fill="#D9D9D9" fill-opacity="0.2"/>
<defs>
<linearGradient id="paint0_linear_62_213" x1="685.5" y1="2" x2="685.397" y2="2890.18" gradientUnits="userSpaceOnUse">
<stop stop-color="#A7C9C6"/>
<stop offset="1" stop-color="#6E8180"/>
</linearGradient>
</defs>
</svg>
