<svg width="1478" height="1794" viewBox="0 0 1478 1794" fill="none" xmlns="http://www.w3.org/2000/svg">
<rect x="1083" y="899.724" width="790.724" height="257.948" transform="rotate(-90 1083 899.724)" fill="#C60F0F"/>
<path d="M213.362 1792.51L131.802 1791.72C131.802 1791.72 31.3327 1663.65 62.0813 1500.03C92.83 1336.4 139.79 969.756 139.79 969.756L237.122 970.702C237.122 970.702 262.205 1357.46 293.695 1502.28C325.185 1647.09 213.362 1792.51 213.362 1792.51Z" fill="#D1AC8F"/>
<rect width="1478" height="168" fill="#C60F0F"/>
<rect y="847" width="1478" height="168" fill="#C60F0F"/>
<rect x="443" y="504" width="898" height="72" fill="#C60F0F"/>
<rect x="93" y="160" width="408" height="687" fill="#D1AC8F"/>
<rect x="125" y="160" width="22" height="687" fill="#AE8463"/>
<rect x="84" y="160" width="22" height="687" fill="#AE8463"/>
<rect x="168" y="160" width="22" height="687" fill="#AE8463"/>
<rect x="221" y="160" width="22" height="687" fill="#AE8463"/>
<rect x="274" y="160" width="22" height="687" fill="#AE8463"/>
<rect x="327" y="160" width="22" height="687" fill="#AE8463"/>
<rect x="370" y="160" width="22" height="687" fill="#AE8463"/>
<rect x="421" y="160" width="22" height="687" fill="#AE8463"/>
<rect x="464" y="160" width="22" height="687" fill="#AE8463"/>
</svg>
